<?xml version="1.0" standalone="no"?>
<!DOCTYPE svg PUBLIC "-//W3C//DTD SVG 1.1//EN" "http://www.w3.org/Graphics/SVG/1.1/DTD/svg11.dtd" >
<svg xmlns="http://www.w3.org/2000/svg" xmlns:xlink="http://www.w3.org/1999/xlink" version="1.1">
<metadata>
Created by FontForge 20170924 at Tue Mar 20 14:36:53 2018
 By www-data
Digitized data copyright 2012_2018 for FiraGO, bBox Type GmbH and HERE Europe B.V. All rights reserved, with Reserved Font Name "Fira" / Digitized data copyright 2012_2018 for Fira Sans The Mozilla Foundation, Telefonica S.A., Carrois Corporate GbR and bBox Type GmbH, with Reserved Font Name "Fira"
</metadata>
<defs>
<font id="FiraGO-SemiBold" horiz-adv-x="0" >
  <font-face 
    font-family="FiraGO SemiBold"
    font-weight="600"
    font-stretch="normal"
    units-per-em="1000"
    panose-1="2 11 6 3 5 0 0 2 0 4"
    ascent="800"
    descent="-200"
    x-height="530"
    cap-height="692"
    bbox="-777 -675 2533 1331"
    underline-thickness="50"
    underline-position="-100"
    stemh="106"
    stemv="142"
    unicode-range="U+000D-FEFF"
  />
<missing-glyph horiz-adv-x="666" 
d="M543 1050v-1400h-420v1400h420zM489 998h-311v-1296h311v1296zM324 451c86 0 111 -55 111 -115c0 -70 -28 -108 -95 -118v-45c0 -15 -13 -24 -25 -24c-13 0 -25 9 -25 24v84c72 4 91 24 91 77c0 39 -11 69 -61 69c-21 0 -35 -3 -52 -11c-5 -2 -9 -3 -13 -3
c-15 0 -24 10 -24 23c0 27 54 39 93 39zM315 120c20 0 35 -15 35 -35c0 -21 -15 -37 -35 -37s-35 16 -35 37c0 20 15 35 35 35z" />
    <glyph glyph-name="f_f" unicode="ff" horiz-adv-x="642" 
d="M588 651c-49 0 -67 -22 -67 -72v-49h126l-16 -100h-110v-430h-142v430h-151v-430h-142v430h-82v100h82v43c0 98 65 172 199 172c55 0 101 -11 150 -32c32 28 78 44 137 44c54 0 101 -13 141 -32l-40 -94c-31 15 -61 20 -85 20zM379 530v53c0 16 2 32 5 47
c-29 9 -54 13 -85 13c-53 0 -71 -19 -71 -66v-47h151z" />
    <glyph glyph-name="f_f_i" unicode="ffi" horiz-adv-x="883" 
d="M521 530h294v-530h-142v430h-152v-430h-142v430h-151v-430h-142v430h-82v100h82v43c0 98 65 172 199 172c56 0 101 -12 151 -32c34 27 84 44 154 44s126 -18 169 -39l-42 -93c-32 15 -70 25 -113 25c-65 0 -83 -22 -83 -73v-47zM379 530v51c0 17 2 33 6 49
c-30 9 -55 13 -86 13c-53 0 -71 -19 -71 -66v-47h151z" />
    <glyph glyph-name="f_f_j" unicode="ffj" horiz-adv-x="883" 
d="M815 530v-477c0 -167 -81 -225 -202 -272l-47 103c68 32 107 60 107 160v386h-152v-430h-142v430h-151v-430h-142v430h-82v100h82v43c0 98 65 172 199 172c56 0 101 -12 151 -32c34 27 84 44 154 44s126 -18 169 -39l-42 -93c-32 15 -70 25 -111 25
c-67 0 -85 -22 -85 -73v-47h294zM379 530v51c0 17 2 33 6 49c-30 9 -55 13 -86 13c-53 0 -71 -19 -71 -66v-47h151z" />
    <glyph glyph-name="f_f_l" unicode="ffl" horiz-adv-x="919" 
d="M881 103l29 -101c-26 -11 -61 -18 -96 -18c-83 0 -132 50 -132 142v514c-30 8 -54 12 -87 12c-57 0 -74 -21 -74 -71v-51h107l-16 -100h-91v-430h-142v430h-151v-430h-142v430h-82v100h82v43c0 98 65 172 199 172c55 0 101 -11 150 -32c33 28 80 44 142 44
c44 0 81 -8 116 -19l131 14v-613c0 -30 10 -42 29 -42c9 0 20 2 28 6zM379 530v53c0 16 2 32 5 47c-29 9 -54 13 -85 13c-53 0 -71 -19 -71 -66v-47h151z" />
    <glyph glyph-name="f_j" unicode="fj" horiz-adv-x="591" 
d="M523 530v-477c0 -167 -81 -225 -202 -272l-47 103c68 32 107 60 107 160v386h-153v-430h-142v430h-82v100h82v51c0 99 62 176 212 176c70 0 126 -18 169 -39l-42 -93c-32 15 -71 25 -111 25c-67 0 -86 -22 -86 -73v-47h295z" />
    <glyph glyph-name="fi" unicode="fi" horiz-adv-x="591" 
d="M298 757c70 0 126 -18 169 -39l-42 -93c-32 15 -71 25 -113 25c-65 0 -84 -22 -84 -73v-47h295v-530h-142v430h-153v-430h-142v430h-82v100h82v51c0 99 62 176 212 176z" />
    <glyph glyph-name="fl" unicode="fl" horiz-adv-x="627" 
d="M589 103l29 -101c-26 -11 -61 -18 -96 -18c-83 0 -132 50 -132 142v514c-30 8 -54 12 -87 12c-57 0 -75 -21 -75 -71v-51h108l-16 -100h-92v-430h-142v430h-82v100h82v53c0 98 65 174 199 174c44 0 81 -8 116 -19l131 14v-613c0 -30 10 -42 29 -42c9 0 20 2 28 6z" />
    <glyph glyph-name="uni0E240E45" unicode="&#xe24;&#xe45;" horiz-adv-x="958" 
d="M664 590c151 0 216 -61 216 -185v-603l-142 15v580c0 66 -31 87 -99 87c-31 0 -65 -5 -103 -15c15 -31 22 -67 22 -109v-568l-142 15v553c0 82 -30 118 -113 118c-70 0 -112 -25 -142 -52c46 -9 93 -23 139 -41v-83c-71 -5 -100 -34 -100 -96v-70c0 -32 11 -45 36 -45
c13 0 23 2 33 7l24 -94c-20 -9 -54 -20 -89 -20c-90 0 -135 53 -135 138v80c0 86 51 128 122 141c-48 15 -96 25 -144 29v80c34 41 114 128 271 128c66 0 118 -14 157 -40c64 34 131 50 189 50z" />
    <glyph glyph-name="uni0E260E45" unicode="&#xe26;&#xe45;" horiz-adv-x="958" 
d="M664 590c151 0 216 -61 216 -185v-603l-142 15v580c0 66 -31 87 -98 87c-31 0 -65 -5 -103 -15c15 -30 22 -67 22 -109v-568l-142 15v553c0 82 -29 118 -110 118c-67 0 -110 -24 -139 -52c46 -9 94 -23 140 -41v-83c-44 -4 -75 -30 -75 -105v-73
c0 -71 -29 -133 -145 -133c-12 0 -24 1 -40 3l-2 97h9c40 0 41 20 41 56v71c0 73 45 111 105 125c-49 15 -98 24 -146 29v80c33 40 112 128 267 128c65 0 116 -14 154 -40c64 34 130 50 188 50z" />
    <glyph glyph-name="uniFEFB" unicode="&#xfedf;&#xfe8e;" horiz-adv-x="644" arabic-form="isolated" 
d="M493 385c62 -63 98 -132 98 -196c0 -126 -72 -189 -252 -189h-253l11 125c130 99 213 166 265 239l-298 269l148 23l200 -192c16 51 22 110 22 185v113l112 14v-137c0 -100 -19 -183 -53 -254zM318 135c130 0 177 6 177 59c0 30 -21 62 -59 100
c-44 -57 -100 -108 -165 -159h47z" />
    <glyph glyph-name="uniFEFC" unicode="&#xfee0;&#xfe8e;" horiz-adv-x="679" arabic-form="final" 
d="M690 135l9 -74l-20 -61c-67 0 -128 30 -155 105c-56 -80 -144 -105 -308 -105h-133l-15 135h155c65 0 114 5 152 14l-285 438l142 20l156 -270c37 -66 55 -109 68 -149c31 32 35 77 35 133v441l111 15v-529c0 -82 15 -113 88 -113z" />
    <glyph glyph-name="uniFEF7" unicode="&#xfedf;&#xfe84;" horiz-adv-x="644" arabic-form="isolated" 
d="M250 795l11 -67l-224 -36l-8 66l62 10c-25 23 -36 47 -36 66c0 48 34 90 107 90c25 0 56 -9 85 -26l-40 -62c-21 13 -34 15 -45 15c-23 0 -32 -14 -32 -27s9 -27 27 -45zM493 385c62 -63 98 -132 98 -196c0 -126 -72 -189 -252 -189h-253l11 125c130 99 213 166 265 239
l-298 269l148 23l200 -192c16 51 22 110 22 185v113l112 14v-137c0 -100 -19 -183 -53 -254zM318 135c130 0 177 6 177 59c0 30 -21 62 -59 100c-44 -57 -100 -108 -165 -159h47z" />
    <glyph glyph-name="uniFEF8" unicode="&#xfee0;&#xfe84;" horiz-adv-x="679" arabic-form="final" 
d="M249 754l11 -67l-224 -36l-8 66l62 10c-25 23 -36 47 -36 66c0 48 34 90 107 90c25 0 56 -9 85 -26l-40 -62c-21 13 -34 15 -45 15c-23 0 -32 -14 -32 -27s9 -27 27 -45zM690 135l9 -74l-20 -61c-67 0 -128 30 -155 105c-56 -80 -144 -105 -308 -105h-133l-15 135h155
c65 0 114 5 152 14l-285 438l142 20l156 -270c37 -66 55 -109 68 -149c31 32 35 77 35 133v441l111 15v-529c0 -82 15 -113 88 -113z" />
    <glyph glyph-name="uniFEF9" unicode="&#xfedf;&#xfe88;" horiz-adv-x="644" arabic-form="isolated" 
d="M493 385c62 -63 98 -132 98 -196c0 -126 -72 -189 -252 -189h-253l11 125c130 99 213 166 265 239l-298 269l148 23l200 -192c16 51 22 110 22 185v113l112 14v-137c0 -100 -19 -183 -53 -254zM318 135c130 0 177 6 177 59c0 30 -21 62 -59 100
c-44 -57 -100 -108 -165 -159h47zM202 -181l93 16l11 -67l-224 -36l-8 66l62 10c-25 23 -36 47 -36 66c0 48 34 90 106 90c26 0 56 -9 86 -26l-41 -62c-20 13 -33 15 -45 15c-23 0 -31 -15 -31 -27c0 -13 8 -27 27 -45z" />
    <glyph glyph-name="uniFEFA" unicode="&#xfee0;&#xfe88;" horiz-adv-x="679" arabic-form="final" 
d="M690 135l9 -74l-20 -61c-67 0 -128 30 -155 105c-56 -80 -144 -105 -308 -105h-133l-15 135h155c65 0 114 5 152 14l-285 438l142 20l156 -270c37 -66 55 -109 68 -149c31 32 35 77 35 133v441l111 15v-529c0 -82 15 -113 88 -113zM203 -181l93 16l11 -67l-224 -36l-8 66
l62 10c-25 23 -36 47 -36 66c0 48 34 90 106 90c26 0 57 -9 86 -26l-41 -62c-20 13 -33 15 -44 15c-24 0 -32 -15 -32 -27c0 -13 8 -27 27 -45z" />
    <glyph glyph-name="uniFEF5" unicode="&#xfedf;&#xfe82;" horiz-adv-x="644" arabic-form="isolated" 
d="M122 740c-20 0 -34 -17 -43 -38l-60 18c17 59 57 98 100 98c44 0 55 -27 88 -27c16 0 23 4 41 15l29 -51c-29 -29 -53 -40 -79 -40c-32 0 -51 25 -76 25zM493 385c62 -63 98 -132 98 -196c0 -126 -72 -189 -252 -189h-253l11 125c130 99 213 166 265 239l-298 269l148 23
l200 -192c16 51 22 110 22 185v113l112 14v-137c0 -100 -19 -183 -53 -254zM318 135c130 0 177 6 177 59c0 30 -21 62 -59 100c-44 -57 -100 -108 -165 -159h47z" />
    <glyph glyph-name="uniFEF6" unicode="&#xfee0;&#xfe82;" horiz-adv-x="679" arabic-form="final" 
d="M121 699c-20 0 -34 -17 -43 -38l-60 18c17 59 57 98 100 98c44 0 55 -27 88 -27c16 0 23 4 41 15l29 -51c-29 -29 -53 -40 -79 -40c-32 0 -51 25 -76 25zM690 135l9 -74l-20 -61c-67 0 -128 30 -155 105c-56 -80 -144 -105 -308 -105h-133l-15 135h155c65 0 114 5 152 14
l-285 438l142 20l156 -270c37 -66 55 -109 68 -149c31 32 35 77 35 133v441l111 15v-529c0 -82 15 -113 88 -113z" />
    <glyph glyph-name="uni06440671" unicode="&#xfedf;&#xfb51;" horiz-adv-x="644" 
d="M96 746l-18 -33l-57 20l30 86c11 -3 21 -7 32 -9c34 76 84 99 124 99c38 0 80 -25 80 -79c0 -75 -59 -95 -122 -95c-22 0 -48 5 -69 11zM200 845c-26 0 -49 -24 -64 -46c14 -2 28 -3 40 -3c22 0 49 4 49 28c0 14 -9 21 -25 21zM493 385c62 -63 98 -132 98 -196
c0 -126 -72 -189 -252 -189h-253l11 125c130 99 213 166 265 239l-298 269l148 23l200 -192c16 51 22 110 22 185v113l112 14v-137c0 -100 -19 -183 -53 -254zM318 135c130 0 177 6 177 59c0 30 -21 62 -59 100c-44 -57 -100 -108 -165 -159h47z" />
    <glyph glyph-name="uni06440671.fina" unicode="&#xfee0;&#xfb51;" horiz-adv-x="679" 
d="M95 705l-18 -33l-57 20l30 86c11 -3 21 -7 32 -9c34 76 84 99 124 99c38 0 80 -25 80 -79c0 -75 -59 -95 -122 -95c-22 0 -48 5 -69 11zM199 804c-26 0 -49 -24 -64 -46c14 -2 28 -3 40 -3c22 0 49 4 49 28c0 14 -9 21 -25 21zM690 135l9 -74l-20 -61
c-67 0 -128 30 -155 105c-56 -80 -144 -105 -308 -105h-133l-15 135h155c65 0 114 5 152 14l-285 438l142 20l156 -270c37 -66 55 -109 68 -149c31 32 35 77 35 133v441l111 15v-529c0 -82 15 -113 88 -113z" />
    <glyph glyph-name="uniFDF2" unicode="&#x627;&#xfedf;&#xfee0;&#xfeea;" horiz-adv-x="1139" arabic-form="isolated" 
d="M609 939v-188h-72v179zM512 615c-31 0 -72 23 -72 78c0 24 7 49 17 71l55 -13c-3 -11 -6 -25 -6 -41c0 -14 5 -26 18 -26c11 0 21 8 21 31v31h56v-34c0 -16 7 -24 19 -24c14 0 19 12 19 30c0 14 -4 35 -11 53l57 19c12 -28 21 -65 21 -90c0 -51 -30 -83 -77 -83
c-30 0 -47 13 -56 28c-11 -16 -29 -30 -61 -30zM964 762l117 15v-777h-117v762zM744 234v420l112 15v-456c0 -163 -60 -213 -158 -213c-56 0 -100 25 -125 64c-22 -37 -64 -64 -118 -64c-74 0 -121 34 -143 90c-30 -41 -83 -64 -136 -64c-87 0 -154 57 -154 146
c0 115 111 193 268 217v75l112 16v-261c0 -66 13 -89 56 -89c45 0 58 22 58 100v321l112 16v-333c0 -75 12 -104 61 -104c46 0 55 32 55 104zM290 182v104c-106 -9 -163 -52 -163 -97c0 -36 23 -53 63 -53s75 15 100 46z" />
    <glyph glyph-name="uni0E1B0E31" unicode="&#xe1b;&#xe31;" horiz-adv-x="631" 
d="M675 660c-41 -8 -82 -13 -121 -17v-424c0 -132 -85 -235 -246 -235c-163 0 -242 78 -242 235v165c0 87 -10 135 -26 172l132 16c17 -27 36 -92 36 -153v-195c0 -90 31 -135 100 -135s104 45 104 135v412c-117 1 -180 35 -180 119c0 25 4 48 8 63h97c-2 -12 -4 -25 -4 -37
c0 -42 21 -55 79 -56v71l142 -16v-49c35 3 70 9 106 16z" />
    <glyph glyph-name="uni0E1B0E49" unicode="&#xe1b;&#xe49;" horiz-adv-x="631" 
d="M553 567h1v-348c0 -132 -85 -235 -246 -235c-163 0 -242 78 -242 235v165c0 87 -10 135 -26 172l132 16c17 -27 36 -92 36 -153v-195c0 -90 31 -135 100 -135s104 45 104 135v343h-1v122c-58 -36 -139 -49 -242 -52l-30 36c12 19 19 37 19 54c0 33 -18 44 -49 44
c-14 0 -28 -2 -42 -5l-11 75c18 6 49 12 81 12c72 0 123 -30 123 -90c0 -16 -3 -31 -10 -45c83 8 129 34 159 79l4 -1l140 -16v-213z" />
    <glyph glyph-name="uni0E1B0E4A" unicode="&#xe1b;&#xe4a;" horiz-adv-x="631" 
d="M412 796l142 -16v-561c0 -132 -85 -235 -246 -235c-163 0 -242 78 -242 235v165c0 87 -10 135 -26 172l132 16c17 -27 36 -92 36 -153v-195c0 -90 31 -135 100 -135s104 45 104 135v457c-34 -30 -81 -43 -138 -43c-20 0 -38 2 -51 4c3 32 5 66 5 83c0 30 -12 45 -32 45
c-22 0 -37 -20 -37 -63v-39l-92 -8v47c0 43 -14 63 -36 63c-20 0 -32 -15 -32 -46c0 -23 3 -56 9 -84h-98c-7 27 -12 67 -12 99c0 76 47 114 113 114c68 0 94 -42 102 -81c8 40 38 81 107 81c67 0 105 -40 105 -90c0 -17 -3 -33 -7 -46c55 7 84 38 94 79z" />
    <glyph glyph-name="uni0E1B0E4B" unicode="&#xe1b;&#xe4b;" horiz-adv-x="631" 
d="M179 643l2 63l-80 -1l8 84l72 -1l-2 58l109 10l-2 -68l75 1v-84l-75 1l2 -63h-109zM412 796l142 -16v-561c0 -132 -85 -235 -246 -235c-163 0 -242 78 -242 235v165c0 87 -10 135 -26 172l132 16c17 -27 36 -92 36 -153v-195c0 -90 31 -135 100 -135s104 45 104 135v572z
" />
    <glyph glyph-name="uni0E1B0E4C" unicode="&#xe1b;&#xe4c;" horiz-adv-x="631" 
d="M635 758v-87h-81v-452c0 -132 -85 -235 -246 -235c-163 0 -242 78 -242 235v165c0 87 -10 135 -26 172l132 16c17 -27 36 -92 36 -153v-195c0 -90 31 -135 100 -135s104 45 104 135v447h-34c-30 0 -42 -10 -42 -41c0 -12 1 -23 2 -33h-102c-2 11 -4 34 -4 55
c0 75 55 106 129 106h51v38l142 -16v-22h81z" />
    <glyph glyph-name="uni0E1B0E4D" unicode="&#xe1b;&#xe4d;" horiz-adv-x="631" 
d="M251 634c-72 0 -119 51 -119 112c0 62 47 112 119 112c74 0 120 -50 120 -112c0 -61 -46 -112 -120 -112zM412 796l142 -16v-561c0 -132 -85 -235 -246 -235c-163 0 -242 78 -242 235v165c0 87 -10 135 -26 172l132 16c17 -27 36 -92 36 -153v-195
c0 -90 31 -135 100 -135s104 45 104 135v572zM251 784c-20 0 -34 -13 -34 -38c0 -24 14 -38 34 -38c21 0 35 14 35 38c0 25 -14 38 -35 38z" />
    <glyph glyph-name="uni0E1D0E31" unicode="&#xe1d;&#xe31;" horiz-adv-x="773" 
d="M817 660c-42 -8 -82 -13 -121 -17v-433c0 -162 -71 -226 -173 -226c-76 0 -126 35 -144 118c-20 -84 -62 -118 -147 -118c-98 0 -166 62 -166 226v78c0 194 31 292 164 292c35 0 72 -9 88 -16l-14 -93c-7 2 -18 6 -37 6c-42 0 -62 -34 -62 -162v-104
c0 -91 19 -121 59 -121c34 0 53 19 53 95v121l125 15v-136c0 -67 19 -95 53 -95c37 0 59 21 59 117v429c-117 1 -180 35 -180 119c0 25 4 48 9 63h96c-2 -12 -3 -25 -3 -37c0 -42 20 -55 78 -56v71l142 -16v-49c35 3 70 8 106 16z" />
    <glyph glyph-name="uni0E1D0E49" unicode="&#xe1d;&#xe49;" horiz-adv-x="774" 
d="M556 796l140 -16v-570c0 -162 -71 -226 -173 -226c-76 0 -126 35 -144 118c-20 -84 -62 -118 -147 -118c-98 0 -166 62 -166 226v78c0 194 31 292 164 292c35 0 72 -9 88 -16l-14 -93c-7 2 -18 6 -37 6c-42 0 -62 -34 -62 -162v-104c0 -91 19 -121 59 -121
c34 0 53 19 53 95v121l125 15v-136c0 -67 19 -95 53 -95c37 0 59 21 59 117v482c-58 -36 -139 -49 -242 -52l-30 36c12 19 19 37 19 54c0 33 -18 44 -49 44c-14 0 -28 -2 -42 -5l-11 75c18 6 49 12 81 12c72 0 123 -30 123 -90c0 -16 -3 -31 -10 -45c83 8 129 34 159 79z
" />
    <glyph glyph-name="uni0E1D0E4A" unicode="&#xe1d;&#xe4a;" horiz-adv-x="773" 
d="M554 796l142 -16v-570c0 -162 -71 -226 -173 -226c-76 0 -126 35 -144 118c-20 -84 -62 -118 -147 -118c-98 0 -166 62 -166 226v78c0 194 31 292 164 292c35 0 72 -9 88 -16l-14 -93c-7 2 -18 6 -37 6c-42 0 -62 -34 -62 -162v-104c0 -91 19 -121 59 -121
c34 0 53 19 53 95v121l125 15v-136c0 -67 19 -95 53 -95c37 0 59 21 59 117v474c-34 -30 -81 -43 -138 -43c-20 0 -38 2 -51 4c3 32 5 66 5 83c0 30 -12 45 -32 45c-22 0 -37 -20 -37 -63v-39l-92 -8v47c0 43 -14 63 -36 63c-20 0 -32 -15 -32 -46c0 -23 3 -56 9 -84h-98
c-7 27 -12 67 -12 99c0 76 47 114 113 114c68 0 94 -42 102 -81c8 40 38 81 107 81c67 0 105 -40 105 -90c0 -17 -3 -33 -7 -46c55 7 84 38 94 79z" />
    <glyph glyph-name="uni0E1D0E4B" unicode="&#xe1d;&#xe4b;" horiz-adv-x="773" 
d="M321 643l2 63l-80 -1l8 84l72 -1l-2 58l109 10l-2 -68l75 1v-84l-75 1l2 -63h-109zM554 796l142 -16v-570c0 -162 -71 -226 -173 -226c-76 0 -126 35 -144 118c-20 -84 -62 -118 -147 -118c-98 0 -166 62 -166 226v78c0 194 31 292 164 292c35 0 72 -9 88 -16l-14 -93
c-7 2 -18 6 -37 6c-42 0 -62 -34 -62 -162v-104c0 -91 19 -121 59 -121c34 0 53 19 53 95v121l125 15v-136c0 -67 19 -95 53 -95c37 0 59 21 59 117v589z" />
    <glyph glyph-name="uni0E1D0E4C" unicode="&#xe1d;&#xe4c;" horiz-adv-x="773" 
d="M778 758v-87h-82v-461c0 -162 -71 -226 -173 -226c-76 0 -126 35 -144 118c-20 -84 -62 -118 -147 -118c-98 0 -166 62 -166 226v78c0 194 31 292 164 292c35 0 72 -9 88 -16l-14 -93c-7 2 -18 6 -37 6c-42 0 -62 -34 -62 -162v-104c0 -91 19 -121 59 -121
c34 0 53 19 53 95v121l125 15v-136c0 -67 19 -95 53 -95c37 0 59 21 59 117v464h-34c-30 0 -41 -10 -41 -41c0 -12 1 -23 2 -33h-103c-1 11 -4 34 -4 55c0 75 55 106 129 106h51v38l142 -16v-22h82z" />
    <glyph glyph-name="uni0E1D0E4D" unicode="&#xe1d;&#xe4d;" horiz-adv-x="773" 
d="M393 634c-72 0 -119 51 -119 112c0 62 47 112 119 112c74 0 120 -50 120 -112c0 -61 -46 -112 -120 -112zM554 796l142 -16v-570c0 -162 -71 -226 -173 -226c-76 0 -126 35 -144 118c-20 -84 -62 -118 -147 -118c-98 0 -166 62 -166 226v78c0 194 31 292 164 292
c35 0 72 -9 88 -16l-14 -93c-7 2 -18 6 -37 6c-42 0 -62 -34 -62 -162v-104c0 -91 19 -121 59 -121c34 0 53 19 53 95v121l125 15v-136c0 -67 19 -95 53 -95c37 0 59 21 59 117v589zM393 784c-20 0 -34 -13 -34 -38c0 -24 14 -38 34 -38c21 0 35 14 35 38
c0 25 -14 38 -35 38z" />
    <glyph glyph-name="uni0E1F0E31" unicode="&#xe1f;&#xe31;" horiz-adv-x="788" 
d="M887 660c-46 -9 -91 -15 -134 -18l-13 -75l-100 -567h-184l-73 440l-81 -440h-178l-60 353c-21 119 -39 166 -60 201l121 21c23 -30 52 -87 67 -208l34 -268l85 468h147l81 -468l67 468l10 69c-112 2 -172 37 -172 119c0 25 4 48 9 63h96c-2 -12 -3 -25 -3 -37
c0 -43 22 -56 83 -56l10 71h142l-12 -65c34 4 68 9 103 16z" />
    <glyph glyph-name="uni0E1F0E49" unicode="&#xe1f;&#xe49;" horiz-adv-x="774" 
d="M642 795h139l-40 -228h-1l-100 -567h-184l-73 440l-81 -440h-178l-60 353c-21 119 -39 166 -60 201l121 21c23 -30 52 -87 67 -208l34 -268l85 468h147l81 -468l67 468h1l7 43c4 29 9 54 16 77c-58 -35 -135 -48 -227 -51l-29 38c13 18 19 35 19 52c0 34 -18 45 -49 45
c-14 0 -28 -2 -42 -6l-11 76c18 6 49 12 81 12c72 0 123 -31 123 -92c0 -14 -3 -28 -9 -42c71 8 118 33 151 77z" />
    <glyph glyph-name="uni0E1F0E4A" unicode="&#xe1f;&#xe4a;" horiz-adv-x="773" 
d="M639 796l142 -1l-41 -228l-100 -567h-184l-73 440l-81 -440h-178l-60 353c-21 119 -39 166 -60 201l121 21c23 -30 52 -87 67 -208l34 -268l85 468h147l81 -468l67 468l6 38c4 24 9 46 15 65c-32 -23 -73 -32 -121 -32c-20 0 -38 2 -51 4c3 32 5 66 5 83
c0 30 -12 45 -32 45c-22 0 -37 -20 -37 -63v-39l-92 -8v47c0 43 -14 63 -36 63c-20 0 -32 -15 -32 -46c0 -23 3 -56 9 -84h-98c-7 27 -12 67 -12 99c0 76 47 114 113 114c68 0 94 -42 102 -81c8 40 38 81 107 81c67 0 105 -40 105 -90c0 -17 -3 -33 -7 -46c51 8 79 39 89 79
z" />
    <glyph glyph-name="uni0E1F0E4B" unicode="&#xe1f;&#xe4b;" horiz-adv-x="773" 
d="M395 643l2 63l-80 -1l8 84l72 -1l-2 58l109 10l-2 -68l75 1v-84l-75 1l2 -63h-109zM639 796h142l-41 -229l-100 -567h-184l-73 440l-81 -440h-178l-60 353c-21 119 -39 166 -60 201l121 21c23 -30 52 -87 67 -208l34 -268l85 468h147l81 -468l67 468z" />
    <glyph glyph-name="uni0E1F0E4C" unicode="&#xe1f;&#xe4c;" horiz-adv-x="788" 
d="M848 758v-87h-89l-19 -104l-100 -567h-184l-73 440l-81 -440h-178l-60 353c-21 119 -39 166 -60 201l121 21c23 -30 52 -87 67 -208l34 -268l85 468h147l81 -468l67 468l15 104h-31c-30 0 -41 -10 -41 -41c0 -12 1 -23 2 -33h-102c-2 11 -5 34 -5 55c0 75 55 106 130 106
h60l5 38h142l-7 -38h74z" />
    <glyph glyph-name="uni0E1F0E4D" unicode="&#xe1f;&#xe4d;" horiz-adv-x="773" 
d="M467 634c-72 0 -119 51 -119 112c0 62 47 112 119 112c74 0 120 -50 120 -112c0 -61 -46 -112 -120 -112zM639 796h142l-41 -229l-100 -567h-184l-73 440l-81 -440h-178l-60 353c-21 119 -39 166 -60 201l121 21c23 -30 52 -87 67 -208l34 -268l85 468h147l81 -468
l67 468zM467 784c-20 0 -34 -13 -34 -38c0 -24 14 -38 34 -38c21 0 35 14 35 38c0 25 -14 38 -35 38z" />
    <glyph glyph-name="uni0E310E4A" unicode="&#xe31;&#xe4a;" 
d="M-116 1064l86 -16c-42 -119 -118 -161 -232 -161c-18 0 -34 2 -46 4c3 29 5 59 5 75c0 27 -11 40 -29 40c-20 0 -33 -18 -33 -57v-35l-83 -7v42c0 39 -13 57 -32 57c-18 0 -29 -14 -29 -42c0 -20 2 -50 8 -75h-88c-6 25 -11 60 -11 89c0 68 43 103 101 103
c62 0 86 -38 93 -73c7 36 34 73 96 73c60 0 94 -36 94 -82c0 -17 -3 -32 -7 -44c58 9 90 52 107 109zM-405 740c52 0 131 12 205 41l23 -87c-91 -36 -180 -50 -252 -50c-97 0 -150 32 -150 111c0 25 6 51 11 63h94c-3 -11 -4 -23 -4 -35c0 -34 17 -43 73 -43z" />
    <glyph glyph-name="uniFE8E" unicode="&#x627;" horiz-adv-x="257" arabic-form="final" 
d="M58 230v532l112 14v-542c0 -79 29 -99 98 -99l9 -73l-20 -62c-128 0 -199 59 -199 230z" />
    <glyph glyph-name="uniFE84" unicode="&#x623;" horiz-adv-x="257" arabic-form="final" 
d="M217 781l11 -67l-224 -36l-8 66l62 10c-25 23 -36 47 -36 66c0 48 34 90 107 90c25 0 56 -9 85 -26l-40 -62c-21 13 -34 15 -45 15c-23 0 -32 -14 -32 -27s9 -27 28 -44zM268 135l9 -73l-20 -62c-128 0 -199 59 -199 230v400l112 15v-411c0 -79 29 -99 98 -99z" />
    <glyph glyph-name="uniFE88" unicode="&#x625;" horiz-adv-x="257" arabic-form="final" 
d="M268 135l9 -73l-20 -62c-128 0 -199 59 -199 230v532l112 14v-542c0 -79 29 -99 98 -99zM136 -181l93 16l11 -67l-224 -36l-8 66l62 10c-25 23 -36 47 -36 66c0 48 34 90 107 90c25 0 56 -9 85 -26l-40 -62c-21 13 -34 15 -45 15c-23 0 -32 -15 -32 -27
c0 -13 9 -28 27 -45z" />
    <glyph glyph-name="uniFE82" unicode="&#x622;" horiz-adv-x="257" arabic-form="final" 
d="M46 688l-60 18c17 59 57 98 100 98c44 0 55 -27 88 -27c16 0 23 4 41 15l29 -51c-29 -29 -53 -40 -79 -40c-32 0 -51 25 -76 25c-20 0 -34 -17 -43 -38zM58 230v400l112 15v-411c0 -79 29 -99 98 -99l9 -73l-20 -62c-128 0 -199 59 -199 230z" />
    <glyph glyph-name="uniFB51" unicode="&#x671;" horiz-adv-x="257" arabic-form="final" 
d="M132 721c-22 0 -48 5 -69 11l-18 -33l-57 20l30 86c11 -3 21 -7 32 -9c34 76 84 99 124 99c38 0 80 -25 80 -79c0 -75 -59 -95 -122 -95zM167 831c-26 0 -49 -24 -64 -46c14 -2 28 -3 40 -3c22 0 49 4 49 28c0 14 -9 21 -25 21zM268 135l9 -73l-20 -62
c-128 0 -199 59 -199 230v400l112 15v-411c0 -79 29 -99 98 -99z" />
    <glyph glyph-name="uniFD3D" unicode="&#xfd3d;" horiz-adv-x="233" arabic-form="isolated" 
d="M2 786l3 69l226 43l-3 -68zM2 685l3 69l226 43l-3 -69zM175 0h-117v630l117 15v-645z" />
    <glyph glyph-name="uniFD3C" unicode="&#xfd3c;" horiz-adv-x="257" arabic-form="final" 
d="M0 785l3 69l226 43l-3 -68zM0 684l3 69l226 43l-3 -69zM58 230v400l112 15v-411c0 -79 29 -99 98 -99l9 -73l-20 -62c-128 0 -199 59 -199 230z" />
    <glyph glyph-name="uni066E.init" unicode="&#x66e;" horiz-adv-x="312" 
d="M11 135c116 0 137 15 137 68c0 37 -15 93 -47 179l118 38c29 -84 43 -172 43 -232c0 -153 -66 -188 -262 -188l-20 62z" />
    <glyph glyph-name="uni066E.medi" unicode="&#x66e;" horiz-adv-x="335" 
d="M346 135l9 -73l-20 -62c-80 0 -132 15 -167 68c-35 -53 -84 -68 -168 -68l-20 62l32 73c99 0 100 23 100 95v108h112v-107c0 -74 14 -96 122 -96z" />
    <glyph glyph-name="uni066E.fina" unicode="&#x66e;" horiz-adv-x="1064" 
d="M1075 135l9 -70l-20 -65c-99 0 -160 15 -205 80c-110 -65 -235 -97 -444 -97c-302 0 -375 58 -375 214c0 52 15 112 39 162l86 -27c-10 -39 -17 -74 -17 -106c0 -80 48 -108 278 -108c163 0 311 29 385 72v155h113v-83c0 -97 25 -127 151 -127z" />
    <glyph glyph-name="uniFE90" unicode="&#x628;" horiz-adv-x="1064" arabic-form="final" 
d="M1075 135l9 -70l-20 -65c-99 0 -160 15 -205 80c-110 -65 -235 -97 -444 -97c-302 0 -375 58 -375 214c0 52 15 112 39 162l86 -27c-10 -39 -17 -74 -17 -106c0 -80 48 -108 278 -108c163 0 311 29 385 72v155h113v-83c0 -97 25 -127 151 -127zM453 -86
c37 0 65 -29 65 -66c0 -36 -28 -65 -65 -65s-65 29 -65 65c0 37 28 66 65 66z" />
    <glyph glyph-name="uniFE92" unicode="&#x628;" horiz-adv-x="335" arabic-form="medial" 
d="M346 135l9 -73l-20 -62c-80 0 -132 15 -167 68c-35 -53 -84 -68 -168 -68l-20 62l32 73c99 0 100 23 100 95v108h112v-107c0 -74 14 -96 122 -96zM167 -86c37 0 65 -29 65 -66c0 -36 -28 -65 -65 -65s-65 29 -65 65c0 37 28 66 65 66z" />
    <glyph glyph-name="uniFE91" unicode="&#x628;" horiz-adv-x="312" arabic-form="initial" 
d="M11 135c116 0 137 15 137 68c0 37 -15 93 -47 179l118 38c29 -84 43 -172 43 -232c0 -153 -66 -188 -262 -188l-20 62zM147 -217c-37 0 -65 29 -65 65c0 37 28 66 65 66s65 -29 65 -66c0 -36 -28 -65 -65 -65z" />
    <glyph glyph-name="uniFB57" unicode="&#x67e;" horiz-adv-x="1064" arabic-form="final" 
d="M1075 135l9 -70l-20 -65c-99 0 -160 15 -205 80c-110 -65 -235 -97 -444 -97c-302 0 -375 58 -375 214c0 52 15 112 39 162l86 -27c-10 -39 -17 -74 -17 -106c0 -80 48 -108 278 -108c163 0 311 29 385 72v155h113v-83c0 -97 25 -127 151 -127zM423 -146
c0 -33 -27 -58 -57 -58c-33 0 -59 25 -59 58c0 31 26 57 59 57c30 0 57 -26 57 -57zM540 -89c33 0 59 -26 59 -57c0 -33 -26 -58 -59 -58c-30 0 -57 25 -57 58c0 31 27 57 57 57zM453 -220c31 0 57 -26 57 -58s-26 -57 -57 -57s-57 25 -57 57s26 58 57 58z" />
    <glyph glyph-name="uniFB59" unicode="&#x67e;" horiz-adv-x="335" arabic-form="medial" 
d="M346 135l9 -73l-20 -62c-80 0 -132 15 -167 68c-35 -53 -84 -68 -168 -68l-20 62l32 73c99 0 100 23 100 95v108h112v-107c0 -74 14 -96 122 -96zM137 -146c0 -33 -27 -58 -57 -58c-33 0 -59 25 -59 58c0 31 26 57 59 57c30 0 57 -26 57 -57zM254 -89c33 0 59 -26 59 -57
c0 -33 -26 -58 -59 -58c-30 0 -57 25 -57 58c0 31 27 57 57 57zM167 -220c31 0 57 -26 57 -58s-26 -57 -57 -57s-57 25 -57 57s26 58 57 58z" />
    <glyph glyph-name="uniFB58" unicode="&#x67e;" horiz-adv-x="312" arabic-form="initial" 
d="M11 135c116 0 137 15 137 68c0 37 -15 93 -47 179l118 38c29 -84 43 -172 43 -232c0 -153 -66 -188 -262 -188l-20 62zM60 -89c30 0 57 -26 57 -57c0 -33 -27 -58 -57 -58c-33 0 -59 25 -59 58c0 31 26 57 59 57zM234 -89c33 0 59 -26 59 -57c0 -33 -26 -58 -59 -58
c-30 0 -57 25 -57 58c0 31 27 57 57 57zM147 -220c31 0 57 -26 57 -58s-26 -57 -57 -57s-57 25 -57 57s26 58 57 58z" />
    <glyph glyph-name="uniFB53" unicode="&#x67b;" horiz-adv-x="1064" arabic-form="final" 
d="M1075 135l9 -70l-20 -65c-99 0 -160 15 -205 80c-110 -65 -235 -97 -444 -97c-302 0 -375 58 -375 214c0 52 15 112 39 162l86 -27c-10 -39 -17 -74 -17 -106c0 -80 48 -108 278 -108c163 0 311 29 385 72v155h113v-83c0 -97 25 -127 151 -127zM453 -193
c-33 0 -60 27 -60 61c0 33 27 60 60 60c34 0 60 -27 60 -60c0 -34 -26 -61 -60 -61zM454 -228c33 0 60 -28 60 -61s-27 -60 -60 -60c-34 0 -60 27 -60 60s26 61 60 61z" />
    <glyph glyph-name="uniFB55" unicode="&#x67b;" horiz-adv-x="335" arabic-form="medial" 
d="M346 135l9 -73l-20 -62c-80 0 -132 15 -167 68c-35 -53 -84 -68 -168 -68l-20 62l32 73c99 0 100 23 100 95v108h112v-107c0 -74 14 -96 122 -96zM167 -193c-33 0 -60 27 -60 61c0 33 27 60 60 60c34 0 60 -27 60 -60c0 -34 -26 -61 -60 -61zM168 -228
c33 0 60 -28 60 -61s-27 -60 -60 -60c-34 0 -60 27 -60 60s26 61 60 61z" />
    <glyph glyph-name="uniFB54" unicode="&#x67b;" horiz-adv-x="312" arabic-form="initial" 
d="M11 135c116 0 137 15 137 68c0 37 -15 93 -47 179l118 38c29 -84 43 -172 43 -232c0 -153 -66 -188 -262 -188l-20 62zM147 -193c-33 0 -60 27 -60 61c0 33 27 60 60 60c34 0 60 -27 60 -60c0 -34 -26 -61 -60 -61zM148 -349c-34 0 -60 27 -60 60s26 61 60 61
c33 0 60 -28 60 -61s-27 -60 -60 -60z" />
    <glyph glyph-name="uniFB5B" unicode="&#x680;" horiz-adv-x="1064" arabic-form="final" 
d="M1075 135l9 -70l-20 -65c-99 0 -160 15 -205 80c-110 -65 -235 -97 -444 -97c-302 0 -375 58 -375 214c0 52 15 112 39 162l86 -27c-10 -39 -17 -74 -17 -106c0 -80 48 -108 278 -108c163 0 311 29 385 72v155h113v-83c0 -97 25 -127 151 -127zM379 -76
c30 0 55 -24 55 -56c0 -30 -25 -55 -55 -55c-31 0 -56 25 -56 55c0 32 25 56 56 56zM526 -76c31 0 56 -24 56 -56c0 -30 -25 -55 -56 -55c-30 0 -55 25 -55 55c0 32 25 56 55 56zM379 -217c30 0 55 -25 55 -56s-25 -56 -55 -56c-31 0 -56 25 -56 56s25 56 56 56zM526 -217
c31 0 56 -25 56 -56s-25 -56 -56 -56c-30 0 -55 25 -55 56s25 56 55 56z" />
    <glyph glyph-name="uniFB5D" unicode="&#x680;" horiz-adv-x="335" arabic-form="medial" 
d="M346 135l9 -73l-20 -62c-80 0 -132 15 -167 68c-35 -53 -84 -68 -168 -68l-20 62l32 73c99 0 100 23 100 95v108h112v-107c0 -74 14 -96 122 -96zM93 -76c30 0 55 -24 55 -56c0 -30 -25 -55 -55 -55c-31 0 -56 25 -56 55c0 32 25 56 56 56zM240 -76c31 0 56 -24 56 -56
c0 -30 -25 -55 -56 -55c-30 0 -55 25 -55 55c0 32 25 56 55 56zM93 -217c30 0 55 -25 55 -56s-25 -56 -55 -56c-31 0 -56 25 -56 56s25 56 56 56zM240 -217c31 0 56 -25 56 -56s-25 -56 -56 -56c-30 0 -55 25 -55 56s25 56 55 56z" />
    <glyph glyph-name="uniFB5C" unicode="&#x680;" horiz-adv-x="312" arabic-form="initial" 
d="M11 135c116 0 137 15 137 68c0 37 -15 93 -47 179l118 38c29 -84 43 -172 43 -232c0 -153 -66 -188 -262 -188l-20 62zM73 -187c-31 0 -56 25 -56 55c0 32 25 56 56 56c30 0 55 -24 55 -56c0 -30 -25 -55 -55 -55zM220 -187c-30 0 -55 25 -55 55c0 32 25 56 55 56
c31 0 56 -24 56 -56c0 -30 -25 -55 -56 -55zM73 -329c-31 0 -56 25 -56 56s25 56 56 56c30 0 55 -25 55 -56s-25 -56 -55 -56zM220 -329c-30 0 -55 25 -55 56s25 56 55 56c31 0 56 -25 56 -56s-25 -56 -56 -56z" />
    <glyph glyph-name="uniFBE9" unicode="&#x649;" horiz-adv-x="335" arabic-form="medial" 
d="M346 135l9 -73l-20 -62c-80 0 -132 15 -167 68c-35 -53 -84 -68 -168 -68l-20 62l32 73c99 0 100 23 100 95v108h112v-107c0 -74 14 -96 122 -96z" />
    <glyph glyph-name="uniFBE8" unicode="&#x649;" horiz-adv-x="312" arabic-form="initial" 
d="M11 135c116 0 137 15 137 68c0 37 -15 93 -47 179l118 38c29 -84 43 -172 43 -232c0 -153 -66 -188 -262 -188l-20 62z" />
    <glyph glyph-name="uniFE96" unicode="&#x62a;" horiz-adv-x="1064" arabic-form="final" 
d="M466 392c-32 0 -60 27 -60 61s28 60 60 60c33 0 61 -26 61 -60s-28 -61 -61 -61zM629 392c-33 0 -60 27 -60 61s27 60 60 60s60 -26 60 -60s-27 -61 -60 -61zM1075 135l9 -70l-20 -65c-99 0 -160 15 -205 80c-110 -65 -235 -97 -444 -97c-302 0 -375 58 -375 214
c0 52 15 112 39 162l86 -27c-10 -39 -17 -74 -17 -106c0 -80 48 -108 278 -108c163 0 311 29 385 72v155h113v-83c0 -97 25 -127 151 -127z" />
    <glyph glyph-name="uniFE98" unicode="&#x62a;" horiz-adv-x="335" arabic-form="medial" 
d="M86 426c-32 0 -60 27 -60 61s28 60 60 60c33 0 61 -26 61 -60s-28 -61 -61 -61zM249 426c-33 0 -60 27 -60 61s27 60 60 60s60 -26 60 -60s-27 -61 -60 -61zM346 135l9 -73l-20 -62c-80 0 -132 15 -167 68c-35 -53 -84 -68 -168 -68l-20 62l32 73c99 0 100 23 100 95v108
h112v-107c0 -74 14 -96 122 -96z" />
    <glyph glyph-name="uniFE97" unicode="&#x62a;" horiz-adv-x="312" arabic-form="initial" 
d="M45 496c-32 0 -60 27 -60 61s28 60 60 60c33 0 61 -26 61 -60s-28 -61 -61 -61zM208 496c-33 0 -60 27 -60 61s27 60 60 60s60 -26 60 -60s-27 -61 -60 -61zM11 135c116 0 137 15 137 68c0 37 -15 93 -47 179l118 38c29 -84 43 -172 43 -232c0 -153 -66 -188 -262 -188
l-20 62z" />
    <glyph glyph-name="uni067C.init" unicode="&#x67c;" horiz-adv-x="309" 
d="M45 496c-32 0 -60 27 -60 61s28 60 60 60c33 0 61 -26 61 -60s-28 -61 -61 -61zM208 496c-33 0 -60 27 -60 61s27 60 60 60s60 -26 60 -60s-27 -61 -60 -61zM262 188c0 -76 -16 -122 -56 -150c14 -16 23 -38 23 -63c0 -53 -40 -91 -93 -91s-94 38 -94 91c0 9 1 18 3 26
c-14 -1 -29 -1 -45 -1l-20 62l31 73c116 0 137 15 137 68c0 37 -15 93 -47 179l118 38c29 -84 43 -172 43 -232zM136 10h-1c-5 -1 -9 -2 -14 -3c-14 -5 -22 -16 -22 -32c0 -18 14 -34 37 -34s37 16 37 34c0 21 -15 35 -37 35z" />
    <glyph glyph-name="uni067C.medi" unicode="&#x67c;" horiz-adv-x="335" 
d="M86 426c-32 0 -60 27 -60 61s28 60 60 60c33 0 61 -26 61 -60s-28 -61 -61 -61zM249 426c-33 0 -60 27 -60 61s27 60 60 60s60 -26 60 -60s-27 -61 -60 -61zM335 0c-80 0 -132 15 -167 68c-2 -4 -5 -8 -8 -11c27 -16 45 -44 45 -79c0 -53 -40 -91 -94 -91
c-52 0 -94 38 -94 91c0 8 1 15 3 22h-20l-20 62l32 73c99 0 100 23 100 95v108h112v-107c0 -74 14 -96 122 -96l9 -73zM111 -56c24 0 37 16 37 34c0 21 -15 35 -37 35s-37 -14 -37 -35c0 -18 14 -34 37 -34z" />
    <glyph glyph-name="uni067C.fina" unicode="&#x67c;" horiz-adv-x="1064" 
d="M466 392c-32 0 -60 27 -60 61s28 60 60 60c33 0 61 -26 61 -60s-28 -61 -61 -61zM629 392c-33 0 -60 27 -60 61s27 60 60 60s60 -26 60 -60s-27 -61 -60 -61zM1075 135l9 -70l-20 -65c-99 0 -160 15 -205 80c-103 -61 -220 -93 -405 -97c4 -10 6 -22 6 -34
c0 -53 -40 -92 -93 -92s-94 39 -94 92c0 14 3 27 8 39c-190 17 -241 79 -241 209c0 52 15 112 39 162l86 -27c-10 -39 -17 -74 -17 -106c0 -80 48 -108 278 -108c163 0 311 29 385 72v155h113v-83c0 -97 25 -127 151 -127zM367 -85c23 0 37 16 37 34c0 20 -15 34 -37 34
s-37 -14 -37 -34c0 -18 14 -34 37 -34z" />
    <glyph glyph-name="uni067D.init" unicode="&#x67d;" horiz-adv-x="312" 
d="M40 723c30 0 57 -26 57 -57c0 -33 -27 -58 -57 -58c-33 0 -59 25 -59 58c0 31 26 57 59 57zM214 723c33 0 59 -26 59 -57c0 -33 -26 -58 -59 -58c-30 0 -57 25 -57 58c0 31 27 57 57 57zM127 592c31 0 57 -26 57 -58s-26 -57 -57 -57s-57 25 -57 57s26 58 57 58zM11 135
c116 0 137 15 137 68c0 37 -15 93 -47 179l118 38c29 -84 43 -172 43 -232c0 -153 -66 -188 -262 -188l-20 62z" />
    <glyph glyph-name="uni067D.medi" unicode="&#x67d;" horiz-adv-x="335" 
d="M81 538c-33 0 -59 25 -59 58c0 31 26 57 59 57c30 0 57 -26 57 -57c0 -33 -27 -58 -57 -58zM255 538c-30 0 -57 25 -57 58c0 31 27 57 57 57c33 0 59 -26 59 -57c0 -33 -26 -58 -59 -58zM111 464c0 32 26 58 57 58s57 -26 57 -58s-26 -57 -57 -57s-57 25 -57 57zM346 135
l9 -73l-20 -62c-80 0 -132 15 -167 68c-35 -53 -84 -68 -168 -68l-20 62l32 73c99 0 100 23 100 95v108h112v-107c0 -74 14 -96 122 -96z" />
    <glyph glyph-name="uni067D.fina" unicode="&#x67d;" horiz-adv-x="1064" 
d="M461 504c-33 0 -59 25 -59 58c0 31 26 57 59 57c30 0 57 -26 57 -57c0 -33 -27 -58 -57 -58zM635 504c-30 0 -57 25 -57 58c0 31 27 57 57 57c33 0 59 -26 59 -57c0 -33 -26 -58 -59 -58zM491 430c0 32 26 58 57 58s57 -26 57 -58s-26 -57 -57 -57s-57 25 -57 57z
M1075 135l9 -70l-20 -65c-99 0 -160 15 -205 80c-110 -65 -235 -97 -444 -97c-302 0 -375 58 -375 214c0 52 15 112 39 162l86 -27c-10 -39 -17 -74 -17 -106c0 -80 48 -108 278 -108c163 0 311 29 385 72v155h113v-83c0 -97 25 -127 151 -127z" />
    <glyph glyph-name="uniFE9A" unicode="&#x62b;" horiz-adv-x="1064" arabic-form="final" 
d="M548 513c-31 0 -57 26 -57 58s26 58 57 58s57 -26 57 -58s-26 -58 -57 -58zM461 382c-33 0 -59 26 -59 57c0 33 26 59 59 59c30 0 57 -26 57 -59c0 -31 -27 -57 -57 -57zM578 439c0 33 27 59 57 59c33 0 59 -26 59 -59c0 -31 -26 -57 -59 -57c-30 0 -57 26 -57 57z
M1075 135l9 -70l-20 -65c-99 0 -160 15 -205 80c-110 -65 -235 -97 -444 -97c-302 0 -375 58 -375 214c0 52 15 112 39 162l86 -27c-10 -39 -17 -74 -17 -106c0 -80 48 -108 278 -108c163 0 311 29 385 72v155h113v-83c0 -97 25 -127 151 -127z" />
    <glyph glyph-name="uniFE9C" unicode="&#x62b;" horiz-adv-x="335" arabic-form="medial" 
d="M168 547c-31 0 -57 26 -57 58s26 58 57 58s57 -26 57 -58s-26 -58 -57 -58zM81 416c-33 0 -59 26 -59 57c0 33 26 59 59 59c30 0 57 -26 57 -59c0 -31 -27 -57 -57 -57zM198 473c0 33 27 59 57 59c33 0 59 -26 59 -59c0 -31 -26 -57 -59 -57c-30 0 -57 26 -57 57z
M346 135l9 -73l-20 -62c-80 0 -132 15 -167 68c-35 -53 -84 -68 -168 -68l-20 62l32 73c99 0 100 23 100 95v108h112v-107c0 -74 14 -96 122 -96z" />
    <glyph glyph-name="uniFE9B" unicode="&#x62b;" horiz-adv-x="312" arabic-form="initial" 
d="M127 617c-31 0 -57 26 -57 58s26 58 57 58s57 -26 57 -58s-26 -58 -57 -58zM40 486c-33 0 -59 26 -59 57c0 33 26 59 59 59c30 0 57 -26 57 -59c0 -31 -27 -57 -57 -57zM214 486c-30 0 -57 26 -57 57c0 33 27 59 57 59c33 0 59 -26 59 -59c0 -31 -26 -57 -59 -57zM11 135
c116 0 137 15 137 68c0 37 -15 93 -47 179l118 38c29 -84 43 -172 43 -232c0 -153 -66 -188 -262 -188l-20 62z" />
    <glyph glyph-name="uniFB67" unicode="&#x679;" horiz-adv-x="1064" arabic-form="final" 
d="M674 470c0 -34 -23 -88 -101 -88h-155l7 62h33v152h61v-70c26 27 49 36 75 36c53 0 80 -41 80 -92zM503 444h60c40 0 53 9 53 29c0 15 -8 26 -29 26c-31 0 -61 -26 -84 -55zM1075 135l9 -70l-20 -65c-99 0 -160 15 -205 80c-110 -65 -235 -97 -444 -97
c-302 0 -375 58 -375 214c0 52 15 112 39 162l86 -27c-10 -39 -17 -74 -17 -106c0 -80 48 -108 278 -108c163 0 311 29 385 72v155h113v-83c0 -97 25 -127 151 -127z" />
    <glyph glyph-name="uniFB69" unicode="&#x679;" horiz-adv-x="335" arabic-form="medial" 
d="M294 504c0 -34 -23 -88 -101 -88h-155l7 62h33v152h61v-70c26 27 49 36 75 36c53 0 80 -41 80 -92zM123 478h60c40 0 53 9 53 29c0 15 -8 26 -29 26c-31 0 -61 -26 -84 -55zM346 135l9 -73l-20 -62c-80 0 -132 15 -167 68c-35 -53 -84 -68 -168 -68l-20 62l32 73
c99 0 100 23 100 95v108h112v-107c0 -74 14 -96 122 -96z" />
    <glyph glyph-name="uniFB68" unicode="&#x679;" horiz-adv-x="312" arabic-form="initial" 
d="M253 574c0 -34 -23 -88 -101 -88h-155l7 62h33v152h61v-70c26 27 49 36 75 36c53 0 80 -41 80 -92zM82 548h60c40 0 53 9 53 29c0 15 -8 26 -29 26c-31 0 -61 -26 -84 -55zM219 420c29 -84 43 -172 43 -232c0 -153 -66 -188 -262 -188l-20 62l31 73c116 0 137 15 137 68
c0 37 -15 93 -47 179z" />
    <glyph glyph-name="uniFB5F" unicode="&#x67a;" horiz-adv-x="1064" arabic-form="final" 
d="M548 522c-33 0 -60 27 -60 61c0 33 27 60 60 60c34 0 60 -27 60 -60c0 -34 -26 -61 -60 -61zM549 487c33 0 60 -28 60 -61s-27 -60 -60 -60c-34 0 -60 27 -60 60s26 61 60 61zM1075 135l9 -70l-20 -65c-99 0 -160 15 -205 80c-110 -65 -235 -97 -444 -97
c-302 0 -375 58 -375 214c0 52 15 112 39 162l86 -27c-10 -39 -17 -74 -17 -106c0 -80 48 -108 278 -108c163 0 311 29 385 72v155h113v-83c0 -97 25 -127 151 -127z" />
    <glyph glyph-name="uniFB61" unicode="&#x67a;" horiz-adv-x="335" arabic-form="medial" 
d="M168 556c-33 0 -60 27 -60 61c0 33 27 60 60 60c34 0 60 -27 60 -60c0 -34 -26 -61 -60 -61zM169 521c33 0 60 -28 60 -61s-27 -60 -60 -60c-34 0 -60 27 -60 60s26 61 60 61zM346 135l9 -73l-20 -62c-80 0 -132 15 -167 68c-35 -53 -84 -68 -168 -68l-20 62l32 73
c99 0 100 23 100 95v108h112v-107c0 -74 14 -96 122 -96z" />
    <glyph glyph-name="uniFB60" unicode="&#x67a;" horiz-adv-x="312" arabic-form="initial" 
d="M127 626c-33 0 -60 27 -60 61c0 33 27 60 60 60c34 0 60 -27 60 -60c0 -34 -26 -61 -60 -61zM128 470c-34 0 -60 27 -60 60s26 61 60 61c33 0 60 -28 60 -61s-27 -60 -60 -60zM11 135c116 0 137 15 137 68c0 37 -15 93 -47 179l118 38c29 -84 43 -172 43 -232
c0 -153 -66 -188 -262 -188l-20 62z" />
    <glyph glyph-name="uniFB63" unicode="&#x67f;" horiz-adv-x="1064" arabic-form="final" 
d="M475 508c-31 0 -56 25 -56 54c0 33 25 56 56 56c30 0 55 -23 55 -56c0 -29 -25 -54 -55 -54zM622 508c-30 0 -55 25 -55 54c0 33 25 56 55 56c31 0 56 -23 56 -56c0 -29 -25 -54 -56 -54zM475 366c-31 0 -56 24 -56 55s25 56 56 56c30 0 55 -25 55 -56s-25 -55 -55 -55z
M622 366c-30 0 -55 24 -55 55s25 56 55 56c31 0 56 -25 56 -56s-25 -55 -56 -55zM1075 135l9 -70l-20 -65c-99 0 -160 15 -205 80c-110 -65 -235 -97 -444 -97c-302 0 -375 58 -375 214c0 52 15 112 39 162l86 -27c-10 -39 -17 -74 -17 -106c0 -80 48 -108 278 -108
c163 0 311 29 385 72v155h113v-83c0 -97 25 -127 151 -127z" />
    <glyph glyph-name="uniFB65" unicode="&#x67f;" horiz-adv-x="335" arabic-form="medial" 
d="M95 542c-31 0 -56 25 -56 54c0 33 25 56 56 56c30 0 55 -23 55 -56c0 -29 -25 -54 -55 -54zM242 542c-30 0 -55 25 -55 54c0 33 25 56 55 56c31 0 56 -23 56 -56c0 -29 -25 -54 -56 -54zM95 400c-31 0 -56 24 -56 55s25 56 56 56c30 0 55 -25 55 -56s-25 -55 -55 -55z
M242 400c-30 0 -55 24 -55 55s25 56 55 56c31 0 56 -25 56 -56s-25 -55 -56 -55zM346 135l9 -73l-20 -62c-80 0 -132 15 -167 68c-35 -53 -84 -68 -168 -68l-20 62l32 73c99 0 100 23 100 95v108h112v-107c0 -74 14 -96 122 -96z" />
    <glyph glyph-name="uniFB64" unicode="&#x67f;" horiz-adv-x="312" arabic-form="initial" 
d="M54 612c-31 0 -56 25 -56 54c0 33 25 56 56 56c30 0 55 -23 55 -56c0 -29 -25 -54 -55 -54zM201 612c-30 0 -55 25 -55 54c0 33 25 56 55 56c31 0 56 -23 56 -56c0 -29 -25 -54 -56 -54zM54 470c-31 0 -56 24 -56 55s25 56 56 56c30 0 55 -25 55 -56s-25 -55 -55 -55z
M201 470c-30 0 -55 24 -55 55s25 56 55 56c31 0 56 -25 56 -56s-25 -55 -56 -55zM11 135c116 0 137 15 137 68c0 37 -15 93 -47 179l118 38c29 -84 43 -172 43 -232c0 -153 -66 -188 -262 -188l-20 62z" />
    <glyph glyph-name="uniFE9E" unicode="&#x62c;" horiz-adv-x="685" arabic-form="final" 
d="M685 0c-126 0 -222 61 -234 195c-232 -23 -305 -155 -305 -246c0 -125 98 -181 254 -181c81 0 160 19 216 47l48 -118c-59 -38 -153 -66 -276 -66c-227 0 -344 127 -344 300c0 183 125 324 380 366c-71 26 -100 59 -193 59c-57 0 -104 -19 -133 -37l-58 111
c55 34 125 55 194 55c179 0 242 -151 395 -170l-13 -112l-61 -3c14 -57 46 -65 141 -65l9 -75zM310 -47c0 37 28 66 65 66s65 -29 65 -66c0 -36 -28 -65 -65 -65s-65 29 -65 65z" />
    <glyph glyph-name="uniFEA0" unicode="&#x62c;" horiz-adv-x="733" arabic-form="medial" 
d="M744 135l9 -75l-20 -60c-161 0 -243 59 -262 185c-160 -48 -293 -185 -471 -185l-20 62l31 73c195 0 288 114 473 151c-104 33 -135 71 -242 71c-50 0 -95 -19 -126 -37l-61 111c57 34 128 54 180 54c224 0 222 -122 440 -171l-15 -110l-85 -3c12 -62 45 -66 169 -66z
M400 -36c37 0 65 -29 65 -66c0 -36 -28 -65 -65 -65s-65 29 -65 65c0 37 28 66 65 66z" />
    <glyph glyph-name="uniFE9F" unicode="&#x62c;" horiz-adv-x="711" arabic-form="initial" 
d="M237 485c239 0 223 -159 438 -213l-15 -111l-102 -6c-218 -14 -344 -155 -558 -155l-20 62l31 73c173 0 294 91 464 120c-96 48 -109 102 -237 102c-54 0 -96 -19 -128 -37l-59 111c57 34 128 54 186 54zM306 -86c37 0 65 -29 65 -66c0 -36 -28 -65 -65 -65
s-65 29 -65 65c0 37 28 66 65 66z" />
    <glyph glyph-name="uniFB7B" unicode="&#x686;" horiz-adv-x="685" arabic-form="final" 
d="M685 0c-126 0 -222 61 -234 195c-232 -23 -305 -155 -305 -246c0 -125 98 -181 254 -181c81 0 160 19 216 47l48 -118c-59 -38 -153 -66 -276 -66c-227 0 -344 127 -344 300c0 183 125 324 380 366c-71 26 -100 59 -193 59c-57 0 -104 -19 -133 -37l-58 111
c55 34 125 55 194 55c179 0 242 -151 395 -170l-13 -112l-61 -3c14 -57 46 -65 141 -65l9 -75zM282 59c29 0 53 -24 53 -53c0 -31 -24 -55 -53 -55c-31 0 -55 24 -55 55c0 29 24 53 55 53zM499 6c0 -31 -24 -55 -55 -55c-28 0 -53 24 -53 55c0 29 25 53 53 53
c31 0 55 -24 55 -53zM363 -171c-29 0 -53 24 -53 54s24 54 53 54s53 -24 53 -54s-24 -54 -53 -54z" />
    <glyph glyph-name="uniFB7D" unicode="&#x686;" horiz-adv-x="733" arabic-form="medial" 
d="M744 135l9 -75l-20 -60c-161 0 -243 59 -262 185c-160 -48 -293 -185 -471 -185l-20 62l31 73c195 0 288 114 473 151c-104 33 -135 71 -242 71c-50 0 -95 -19 -126 -37l-61 111c57 34 128 54 180 54c224 0 222 -122 440 -171l-15 -110l-85 -3c12 -62 45 -66 169 -66z
M370 -96c0 -33 -27 -58 -57 -58c-33 0 -59 25 -59 58c0 31 26 57 59 57c30 0 57 -26 57 -57zM487 -39c33 0 59 -26 59 -57c0 -33 -26 -58 -59 -58c-30 0 -57 25 -57 58c0 31 27 57 57 57zM400 -170c31 0 57 -26 57 -58s-26 -57 -57 -57s-57 25 -57 57s26 58 57 58z" />
    <glyph glyph-name="uniFB7C" unicode="&#x686;" horiz-adv-x="711" arabic-form="initial" 
d="M237 485c239 0 223 -159 438 -213l-15 -111l-102 -6c-218 -14 -344 -155 -558 -155l-20 62l31 73c173 0 294 91 464 120c-96 48 -109 102 -237 102c-54 0 -96 -19 -128 -37l-59 111c57 34 128 54 186 54zM276 -146c0 -33 -27 -58 -57 -58c-33 0 -59 25 -59 58
c0 31 26 57 59 57c30 0 57 -26 57 -57zM393 -89c33 0 59 -26 59 -57c0 -33 -26 -58 -59 -58c-30 0 -57 25 -57 58c0 31 27 57 57 57zM306 -220c31 0 57 -26 57 -58s-26 -57 -57 -57s-57 25 -57 57s26 58 57 58z" />
    <glyph glyph-name="uniFB7F" unicode="&#x687;" horiz-adv-x="685" arabic-form="final" 
d="M685 0c-126 0 -222 61 -234 195c-232 -23 -305 -155 -305 -246c0 -125 98 -181 254 -181c81 0 160 19 216 47l48 -118c-59 -38 -153 -66 -276 -66c-227 0 -344 127 -344 300c0 183 125 324 380 366c-71 26 -100 59 -193 59c-57 0 -104 -19 -133 -37l-58 111
c55 34 125 55 194 55c179 0 242 -151 395 -170l-13 -112l-61 -3c14 -57 46 -65 141 -65l9 -75zM307 83c29 0 52 -23 52 -53c0 -27 -23 -50 -52 -50c-28 0 -52 23 -52 50c0 30 24 53 52 53zM444 83c29 0 53 -23 53 -53c0 -27 -24 -50 -53 -50c-28 0 -51 23 -51 50
c0 30 23 53 51 53zM307 -49c29 0 52 -23 52 -51c0 -29 -23 -52 -52 -52c-28 0 -52 23 -52 52c0 28 24 51 52 51zM444 -49c29 0 53 -23 53 -51c0 -29 -24 -52 -53 -52c-28 0 -51 23 -51 52c0 28 23 51 51 51z" />
    <glyph glyph-name="uniFB81" unicode="&#x687;" horiz-adv-x="733" arabic-form="medial" 
d="M744 135l9 -75l-20 -60c-161 0 -243 59 -262 185c-160 -48 -293 -185 -471 -185l-20 62l31 73c195 0 288 114 473 151c-104 33 -135 71 -242 71c-50 0 -95 -19 -126 -37l-61 111c57 34 128 54 180 54c224 0 222 -122 440 -171l-15 -110l-85 -3c12 -62 45 -66 169 -66z
M326 -26c30 0 55 -24 55 -56c0 -30 -25 -55 -55 -55c-31 0 -56 25 -56 55c0 32 25 56 56 56zM473 -26c31 0 56 -24 56 -56c0 -30 -25 -55 -56 -55c-30 0 -55 25 -55 55c0 32 25 56 55 56zM326 -167c30 0 55 -25 55 -56s-25 -56 -55 -56c-31 0 -56 25 -56 56s25 56 56 56z
M473 -167c31 0 56 -25 56 -56s-25 -56 -56 -56c-30 0 -55 25 -55 56s25 56 55 56z" />
    <glyph glyph-name="uniFB80" unicode="&#x687;" horiz-adv-x="711" arabic-form="initial" 
d="M237 485c239 0 223 -159 438 -213l-15 -111l-102 -6c-218 -14 -344 -155 -558 -155l-20 62l31 73c173 0 294 91 464 120c-96 48 -109 102 -237 102c-54 0 -96 -19 -128 -37l-59 111c57 34 128 54 186 54zM232 -76c30 0 55 -24 55 -56c0 -30 -25 -55 -55 -55
c-31 0 -56 25 -56 55c0 32 25 56 56 56zM379 -76c31 0 56 -24 56 -56c0 -30 -25 -55 -56 -55c-30 0 -55 25 -55 55c0 32 25 56 55 56zM232 -217c30 0 55 -25 55 -56s-25 -56 -55 -56c-31 0 -56 25 -56 56s25 56 56 56zM379 -217c31 0 56 -25 56 -56s-25 -56 -56 -56
c-30 0 -55 25 -55 56s25 56 55 56z" />
    <glyph glyph-name="uni06BF.init" unicode="&#x6bf;" horiz-adv-x="711" 
d="M236 553c-37 0 -65 29 -65 65c0 37 28 66 65 66s65 -29 65 -66c0 -36 -28 -65 -65 -65zM237 485c239 0 223 -159 438 -213l-15 -111l-102 -6c-218 -14 -344 -155 -558 -155l-20 62l31 73c173 0 294 91 464 120c-96 48 -109 102 -237 102c-54 0 -96 -19 -128 -37l-59 111
c57 34 128 54 186 54zM276 -146c0 -33 -27 -58 -57 -58c-33 0 -59 25 -59 58c0 31 26 57 59 57c30 0 57 -26 57 -57zM393 -89c33 0 59 -26 59 -57c0 -33 -26 -58 -59 -58c-30 0 -57 25 -57 58c0 31 27 57 57 57zM306 -220c31 0 57 -26 57 -58s-26 -57 -57 -57s-57 25 -57 57
s26 58 57 58z" />
    <glyph glyph-name="uni06BF.medi" unicode="&#x6bf;" horiz-adv-x="733" 
d="M234 553c-37 0 -65 29 -65 65c0 37 28 66 65 66s65 -29 65 -66c0 -36 -28 -65 -65 -65zM744 135l9 -75l-20 -60c-161 0 -243 59 -262 185c-160 -48 -293 -185 -471 -185l-20 62l31 73c195 0 288 114 473 151c-104 33 -135 71 -242 71c-50 0 -95 -19 -126 -37l-61 111
c57 34 128 54 180 54c224 0 222 -122 440 -171l-15 -110l-85 -3c12 -62 45 -66 169 -66zM370 -96c0 -33 -27 -58 -57 -58c-33 0 -59 25 -59 58c0 31 26 57 59 57c30 0 57 -26 57 -57zM487 -39c33 0 59 -26 59 -57c0 -33 -26 -58 -59 -58c-30 0 -57 25 -57 58
c0 31 27 57 57 57zM400 -170c31 0 57 -26 57 -58s-26 -57 -57 -57s-57 25 -57 57s26 58 57 58z" />
    <glyph glyph-name="uni06BF.fina" unicode="&#x6bf;" horiz-adv-x="685" 
d="M234 553c-37 0 -65 29 -65 65c0 37 28 66 65 66s65 -29 65 -66c0 -36 -28 -65 -65 -65zM685 0c-126 0 -222 61 -234 195c-232 -23 -305 -155 -305 -246c0 -125 98 -181 254 -181c81 0 160 19 216 47l48 -118c-59 -38 -153 -66 -276 -66c-227 0 -344 127 -344 300
c0 183 125 324 380 366c-71 26 -100 59 -193 59c-57 0 -104 -19 -133 -37l-58 111c55 34 125 55 194 55c179 0 242 -151 395 -170l-13 -112l-61 -3c14 -57 46 -65 141 -65l9 -75zM282 59c29 0 53 -24 53 -53c0 -31 -24 -55 -53 -55c-31 0 -55 24 -55 55c0 29 24 53 55 53z
M499 6c0 -31 -24 -55 -55 -55c-28 0 -53 24 -53 55c0 29 25 53 53 53c31 0 55 -24 55 -53zM363 -171c-29 0 -53 24 -53 54s24 54 53 54s53 -24 53 -54s-24 -54 -53 -54z" />
    <glyph glyph-name="uniFB77" unicode="&#x683;" horiz-adv-x="685" arabic-form="final" 
d="M705 60l-20 -60c-126 0 -222 61 -234 195c-232 -23 -305 -155 -305 -246c0 -125 98 -181 254 -181c81 0 160 19 216 47l48 -118c-59 -38 -153 -66 -276 -66c-227 0 -344 127 -344 300c0 183 125 324 380 366c-71 26 -100 59 -193 59c-57 0 -104 -19 -133 -37l-58 111
c55 34 125 55 194 55c179 0 242 -151 395 -170l-13 -112l-61 -3c14 -57 46 -65 141 -65zM233 -42c0 33 28 60 60 60c33 0 61 -27 61 -60c0 -34 -28 -61 -61 -61c-32 0 -60 27 -60 61zM456 18c33 0 60 -27 60 -60c0 -34 -27 -61 -60 -61s-60 27 -60 61c0 33 27 60 60 60z" />
    <glyph glyph-name="uniFB79" unicode="&#x683;" horiz-adv-x="733" arabic-form="medial" 
d="M744 135l9 -75l-20 -60c-161 0 -243 59 -262 185c-160 -48 -293 -185 -471 -185l-20 62l31 73c195 0 288 114 473 151c-104 33 -135 71 -242 71c-50 0 -95 -19 -126 -37l-61 111c57 34 128 54 180 54c224 0 222 -122 440 -171l-15 -110l-85 -3c12 -62 45 -66 169 -66z
M318 -33c33 0 61 -26 61 -60s-28 -60 -61 -60c-32 0 -60 26 -60 60s28 60 60 60zM481 -33c33 0 60 -26 60 -60s-27 -60 -60 -60s-60 26 -60 60s27 60 60 60z" />
    <glyph glyph-name="uniFB78" unicode="&#x683;" horiz-adv-x="711" arabic-form="initial" 
d="M237 485c239 0 223 -159 438 -213l-15 -111l-102 -6c-218 -14 -344 -155 -558 -155l-20 62l31 73c173 0 294 91 464 120c-96 48 -109 102 -237 102c-54 0 -96 -19 -128 -37l-59 111c57 34 128 54 186 54zM224 -83c33 0 61 -26 61 -60s-28 -60 -61 -60
c-32 0 -60 26 -60 60s28 60 60 60zM387 -83c33 0 60 -26 60 -60s-27 -60 -60 -60s-60 26 -60 60s27 60 60 60z" />
    <glyph glyph-name="uniFB73" unicode="&#x684;" horiz-adv-x="685" arabic-form="final" 
d="M685 0c-126 0 -222 61 -234 195c-232 -23 -305 -155 -305 -246c0 -125 98 -181 254 -181c81 0 160 19 216 47l48 -118c-59 -38 -153 -66 -276 -66c-227 0 -344 127 -344 300c0 183 125 324 380 366c-71 26 -100 59 -193 59c-57 0 -104 -19 -133 -37l-58 111
c55 34 125 55 194 55c179 0 242 -151 395 -170l-13 -112l-61 -3c14 -57 46 -65 141 -65l9 -75zM377 -40c-34 0 -60 27 -60 60c0 34 26 60 60 60c33 0 60 -26 60 -60c0 -33 -27 -60 -60 -60zM377 -196c-34 0 -60 27 -60 60s26 60 60 60c33 0 61 -27 61 -60s-28 -60 -61 -60z
" />
    <glyph glyph-name="uniFB75" unicode="&#x684;" horiz-adv-x="733" arabic-form="medial" 
d="M744 135l9 -75l-20 -60c-161 0 -243 59 -262 185c-160 -48 -293 -185 -471 -185l-20 62l31 73c195 0 288 114 473 151c-104 33 -135 71 -242 71c-50 0 -95 -19 -126 -37l-61 111c57 34 128 54 180 54c224 0 222 -122 440 -171l-15 -110l-85 -3c12 -62 45 -66 169 -66z
M401 -143c-33 0 -60 27 -60 61c0 33 27 60 60 60c34 0 60 -27 60 -60c0 -34 -26 -61 -60 -61zM402 -178c33 0 60 -28 60 -61s-27 -60 -60 -60c-34 0 -60 27 -60 60s26 61 60 61z" />
    <glyph glyph-name="uniFB74" unicode="&#x684;" horiz-adv-x="711" arabic-form="initial" 
d="M237 485c239 0 223 -159 438 -213l-15 -111l-102 -6c-218 -14 -344 -155 -558 -155l-20 62l31 73c173 0 294 91 464 120c-96 48 -109 102 -237 102c-54 0 -96 -19 -128 -37l-59 111c57 34 128 54 186 54zM306 -193c-33 0 -60 27 -60 61c0 33 27 60 60 60
c34 0 60 -27 60 -60c0 -34 -26 -61 -60 -61zM307 -228c33 0 60 -28 60 -61s-27 -60 -60 -60c-34 0 -60 27 -60 60s26 61 60 61z" />
    <glyph glyph-name="uniFEA2" unicode="&#x62d;" horiz-adv-x="685" arabic-form="final" 
d="M451 195c-232 -23 -305 -155 -305 -246c0 -125 98 -181 254 -181c81 0 160 19 216 47l48 -118c-59 -38 -153 -66 -276 -66c-227 0 -344 127 -344 300c0 183 125 324 380 366c-71 26 -100 59 -193 59c-57 0 -104 -19 -133 -37l-58 111c55 34 125 55 194 55
c179 0 242 -151 395 -170l-13 -112l-61 -3c14 -57 46 -65 141 -65l9 -75l-20 -60c-126 0 -222 61 -234 195z" />
    <glyph glyph-name="uniFEA4" unicode="&#x62d;" horiz-adv-x="733" arabic-form="medial" 
d="M744 135l9 -75l-20 -60c-161 0 -243 59 -262 185c-160 -48 -293 -185 -471 -185l-20 62l31 73c195 0 288 114 473 151c-104 33 -135 71 -242 71c-50 0 -95 -19 -126 -37l-61 111c57 34 128 54 180 54c224 0 222 -122 440 -171l-15 -110l-85 -3c12 -62 45 -66 169 -66z
" />
    <glyph glyph-name="uniFEA3" unicode="&#x62d;" horiz-adv-x="711" arabic-form="initial" 
d="M237 485c239 0 223 -159 438 -213l-15 -111l-102 -6c-218 -14 -344 -155 -558 -155l-20 62l31 73c173 0 294 91 464 120c-96 48 -109 102 -237 102c-54 0 -96 -19 -128 -37l-59 111c57 34 128 54 186 54z" />
    <glyph glyph-name="uni0681.init" unicode="&#x681;" horiz-adv-x="711" 
d="M127 527l-8 66l62 10c-25 23 -36 47 -36 66c0 48 34 90 107 90c25 0 56 -9 85 -26l-40 -62c-21 13 -34 15 -45 15c-23 0 -32 -14 -32 -27s9 -27 28 -44l92 15l11 -67zM237 485c239 0 223 -159 438 -213l-15 -111l-102 -6c-218 -14 -344 -155 -558 -155l-20 62l31 73
c173 0 294 91 464 120c-96 48 -109 102 -237 102c-54 0 -96 -19 -128 -37l-59 111c57 34 128 54 186 54z" />
    <glyph glyph-name="uni0681.medi" unicode="&#x681;" horiz-adv-x="733" 
d="M124 527l-8 66l62 10c-25 23 -36 47 -36 66c0 48 34 90 107 90c25 0 56 -9 85 -26l-40 -62c-21 13 -34 15 -45 15c-23 0 -32 -14 -32 -27s9 -27 28 -44l92 15l11 -67zM744 135l9 -75l-20 -60c-161 0 -243 59 -262 185c-160 -48 -293 -185 -471 -185l-20 62l31 73
c195 0 288 114 473 151c-104 33 -135 71 -242 71c-50 0 -95 -19 -126 -37l-61 111c57 34 128 54 180 54c224 0 222 -122 440 -171l-15 -110l-85 -3c12 -62 45 -66 169 -66z" />
    <glyph glyph-name="uni0681.fina" unicode="&#x681;" horiz-adv-x="685" 
d="M124 527l-8 66l62 10c-25 23 -36 47 -36 66c0 48 34 90 107 90c25 0 56 -9 85 -26l-40 -62c-21 13 -34 15 -45 15c-23 0 -32 -14 -32 -27s9 -27 28 -44l92 15l11 -67zM451 195c-232 -23 -305 -155 -305 -246c0 -125 98 -181 254 -181c81 0 160 19 216 47l48 -118
c-59 -38 -153 -66 -276 -66c-227 0 -344 127 -344 300c0 183 125 324 380 366c-71 26 -100 59 -193 59c-57 0 -104 -19 -133 -37l-58 111c55 34 125 55 194 55c179 0 242 -151 395 -170l-13 -112l-61 -3c14 -57 46 -65 141 -65l9 -75l-20 -60c-126 0 -222 61 -234 195z" />
    <glyph glyph-name="uni0682.init" unicode="&#x682;" horiz-adv-x="711" 
d="M238 696c-33 0 -60 27 -60 61c0 33 27 60 60 60c34 0 60 -27 60 -60c0 -34 -26 -61 -60 -61zM239 661c33 0 60 -28 60 -61s-27 -60 -60 -60c-34 0 -60 27 -60 60s26 61 60 61zM237 485c239 0 223 -159 438 -213l-15 -111l-102 -6c-218 -14 -344 -155 -558 -155l-20 62
l31 73c173 0 294 91 464 120c-96 48 -109 102 -237 102c-54 0 -96 -19 -128 -37l-59 111c57 34 128 54 186 54z" />
    <glyph glyph-name="uni0682.medi" unicode="&#x682;" horiz-adv-x="733" 
d="M235 696c-33 0 -60 27 -60 61c0 33 27 60 60 60c34 0 60 -27 60 -60c0 -34 -26 -61 -60 -61zM236 661c33 0 60 -28 60 -61s-27 -60 -60 -60c-34 0 -60 27 -60 60s26 61 60 61zM744 135l9 -75l-20 -60c-161 0 -243 59 -262 185c-160 -48 -293 -185 -471 -185l-20 62l31 73
c195 0 288 114 473 151c-104 33 -135 71 -242 71c-50 0 -95 -19 -126 -37l-61 111c57 34 128 54 180 54c224 0 222 -122 440 -171l-15 -110l-85 -3c12 -62 45 -66 169 -66z" />
    <glyph glyph-name="uni0682.fina" unicode="&#x682;" horiz-adv-x="685" 
d="M235 696c-33 0 -60 27 -60 61c0 33 27 60 60 60c34 0 60 -27 60 -60c0 -34 -26 -61 -60 -61zM236 661c33 0 60 -28 60 -61s-27 -60 -60 -60c-34 0 -60 27 -60 60s26 61 60 61zM451 195c-232 -23 -305 -155 -305 -246c0 -125 98 -181 254 -181c81 0 160 19 216 47l48 -118
c-59 -38 -153 -66 -276 -66c-227 0 -344 127 -344 300c0 183 125 324 380 366c-71 26 -100 59 -193 59c-57 0 -104 -19 -133 -37l-58 111c55 34 125 55 194 55c179 0 242 -151 395 -170l-13 -112l-61 -3c14 -57 46 -65 141 -65l9 -75l-20 -60c-126 0 -222 61 -234 195z" />
    <glyph glyph-name="uni0685.init" unicode="&#x685;" horiz-adv-x="711" 
d="M238 687c-31 0 -57 26 -57 58s26 58 57 58s57 -26 57 -58s-26 -58 -57 -58zM151 556c-33 0 -59 26 -59 57c0 33 26 59 59 59c30 0 57 -26 57 -59c0 -31 -27 -57 -57 -57zM268 613c0 33 27 59 57 59c33 0 59 -26 59 -59c0 -31 -26 -57 -59 -57c-30 0 -57 26 -57 57z
M237 485c239 0 223 -159 438 -213l-15 -111l-102 -6c-218 -14 -344 -155 -558 -155l-20 62l31 73c173 0 294 91 464 120c-96 48 -109 102 -237 102c-54 0 -96 -19 -128 -37l-59 111c57 34 128 54 186 54z" />
    <glyph glyph-name="uni0685.medi" unicode="&#x685;" horiz-adv-x="733" 
d="M235 687c-31 0 -57 26 -57 58s26 58 57 58s57 -26 57 -58s-26 -58 -57 -58zM148 556c-33 0 -59 26 -59 57c0 33 26 59 59 59c30 0 57 -26 57 -59c0 -31 -27 -57 -57 -57zM265 613c0 33 27 59 57 59c33 0 59 -26 59 -59c0 -31 -26 -57 -59 -57c-30 0 -57 26 -57 57z
M744 135l9 -75l-20 -60c-161 0 -243 59 -262 185c-160 -48 -293 -185 -471 -185l-20 62l31 73c195 0 288 114 473 151c-104 33 -135 71 -242 71c-50 0 -95 -19 -126 -37l-61 111c57 34 128 54 180 54c224 0 222 -122 440 -171l-15 -110l-85 -3c12 -62 45 -66 169 -66z" />
    <glyph glyph-name="uni0685.fina" unicode="&#x685;" horiz-adv-x="685" 
d="M235 687c-31 0 -57 26 -57 58s26 58 57 58s57 -26 57 -58s-26 -58 -57 -58zM148 556c-33 0 -59 26 -59 57c0 33 26 59 59 59c30 0 57 -26 57 -59c0 -31 -27 -57 -57 -57zM265 613c0 33 27 59 57 59c33 0 59 -26 59 -59c0 -31 -26 -57 -59 -57c-30 0 -57 26 -57 57z
M451 195c-232 -23 -305 -155 -305 -246c0 -125 98 -181 254 -181c81 0 160 19 216 47l48 -118c-59 -38 -153 -66 -276 -66c-227 0 -344 127 -344 300c0 183 125 324 380 366c-71 26 -100 59 -193 59c-57 0 -104 -19 -133 -37l-58 111c55 34 125 55 194 55
c179 0 242 -151 395 -170l-13 -112l-61 -3c14 -57 46 -65 141 -65l9 -75l-20 -60c-126 0 -222 61 -234 195z" />
    <glyph glyph-name="uniFEA6" unicode="&#x62e;" horiz-adv-x="685" arabic-form="final" 
d="M233 553c-37 0 -65 29 -65 65c0 37 28 66 65 66s65 -29 65 -66c0 -36 -28 -65 -65 -65zM451 195c-232 -23 -305 -155 -305 -246c0 -125 98 -181 254 -181c81 0 160 19 216 47l48 -118c-59 -38 -153 -66 -276 -66c-227 0 -344 127 -344 300c0 183 125 324 380 366
c-71 26 -100 59 -193 59c-57 0 -104 -19 -133 -37l-58 111c55 34 125 55 194 55c179 0 242 -151 395 -170l-13 -112l-61 -3c14 -57 46 -65 141 -65l9 -75l-20 -60c-126 0 -222 61 -234 195z" />
    <glyph glyph-name="uniFEA8" unicode="&#x62e;" horiz-adv-x="733" arabic-form="medial" 
d="M234 553c-37 0 -65 29 -65 65c0 37 28 66 65 66s65 -29 65 -66c0 -36 -28 -65 -65 -65zM744 135l9 -75l-20 -60c-161 0 -243 59 -262 185c-160 -48 -293 -185 -471 -185l-20 62l31 73c195 0 288 114 473 151c-104 33 -135 71 -242 71c-50 0 -95 -19 -126 -37l-61 111
c57 34 128 54 180 54c224 0 222 -122 440 -171l-15 -110l-85 -3c12 -62 45 -66 169 -66z" />
    <glyph glyph-name="uniFEA7" unicode="&#x62e;" horiz-adv-x="711" arabic-form="initial" 
d="M236 553c-37 0 -65 29 -65 65c0 37 28 66 65 66s65 -29 65 -66c0 -36 -28 -65 -65 -65zM237 485c239 0 223 -159 438 -213l-15 -111l-102 -6c-218 -14 -344 -155 -558 -155l-20 62l31 73c173 0 294 91 464 120c-96 48 -109 102 -237 102c-54 0 -96 -19 -128 -37l-59 111
c57 34 128 54 186 54z" />
    <glyph glyph-name="uniFEAA" unicode="&#x62f;" horiz-adv-x="532" arabic-form="final" 
d="M543 135l9 -72l-20 -63c-63 0 -121 34 -152 82c-35 -66 -104 -96 -202 -96c-71 0 -126 12 -156 21l37 132c32 -8 73 -17 129 -17c64 0 106 15 147 47l-148 310l124 56l109 -287c33 -90 54 -113 123 -113z" />
    <glyph glyph-name="uniFEAC" unicode="&#x630;" horiz-adv-x="532" arabic-form="final" 
d="M219 596c-37 0 -65 29 -65 65c0 37 28 66 65 66s65 -29 65 -66c0 -36 -28 -65 -65 -65zM543 135l9 -72l-20 -63c-63 0 -121 34 -152 82c-35 -66 -104 -96 -202 -96c-71 0 -126 12 -156 21l37 132c32 -8 73 -17 129 -17c64 0 106 15 147 47l-148 310l124 56l109 -287
c33 -90 54 -113 123 -113z" />
    <glyph glyph-name="uniFC5B" unicode="&#xfc5b;" horiz-adv-x="478" arabic-form="isolated" 
d="M137 969l73 9v-188h-73v179zM173 594c-37 0 -65 29 -65 65c0 37 28 66 65 66s65 -29 65 -66c0 -36 -28 -65 -65 -65zM177 -17c-69 0 -127 12 -155 22l37 133c30 -9 73 -18 128 -18c58 0 145 18 145 68c0 82 -122 201 -193 265l107 87c66 -68 191 -214 191 -364
c0 -169 -181 -193 -260 -193z" />
    <glyph glyph-name="uniFB89" unicode="&#x688;" horiz-adv-x="532" arabic-form="final" 
d="M347 687c0 -34 -23 -88 -101 -88h-155l7 62h33v152h61v-70c26 27 49 36 75 36c53 0 80 -41 80 -92zM176 661h60c40 0 53 9 53 29c0 15 -8 26 -29 26c-31 0 -61 -26 -84 -55zM543 135l9 -72l-20 -63c-63 0 -121 34 -152 82c-35 -66 -104 -96 -202 -96
c-71 0 -126 12 -156 21l37 132c32 -8 73 -17 129 -17c64 0 106 15 147 47l-148 310l124 56l109 -287c33 -90 54 -113 123 -113z" />
    <glyph glyph-name="uniFB85" unicode="&#x68c;" horiz-adv-x="532" arabic-form="final" 
d="M139 609c-32 0 -60 27 -60 61s28 60 60 60c33 0 61 -26 61 -60s-28 -61 -61 -61zM302 609c-33 0 -60 27 -60 61s27 60 60 60s60 -26 60 -60s-27 -61 -60 -61zM543 135l9 -72l-20 -63c-63 0 -121 34 -152 82c-35 -66 -104 -96 -202 -96c-71 0 -126 12 -156 21l37 132
c32 -8 73 -17 129 -17c64 0 106 15 147 47l-148 310l124 56l109 -287c33 -90 54 -113 123 -113z" />
    <glyph glyph-name="uniFB83" unicode="&#x68d;" horiz-adv-x="532" arabic-form="final" 
d="M543 135l9 -72l-20 -63c-63 0 -121 34 -152 82c-35 -66 -104 -96 -202 -96c-71 0 -126 12 -156 21l37 132c32 -8 73 -17 129 -17c64 0 106 15 147 47l-148 310l124 56l109 -287c33 -90 54 -113 123 -113zM122 -83c33 0 61 -26 61 -60s-28 -60 -61 -60
c-32 0 -60 26 -60 60s28 60 60 60zM285 -83c33 0 60 -26 60 -60s-27 -60 -60 -60s-60 26 -60 60s27 60 60 60z" />
    <glyph glyph-name="uni0689.fina" unicode="&#x689;" horiz-adv-x="532" 
d="M543 135l9 -72l-20 -63c-63 0 -121 34 -152 82c-22 -41 -56 -68 -102 -82c8 -14 13 -31 13 -49c0 -53 -40 -92 -94 -92c-52 0 -94 39 -94 92c0 14 3 27 8 39c-39 4 -69 11 -89 17l37 132c32 -8 73 -17 129 -17c64 0 106 15 147 47l-148 310l124 56l109 -287
c33 -90 54 -113 123 -113zM197 -83c24 0 37 16 37 34c0 20 -15 34 -37 34s-37 -14 -37 -34c0 -18 14 -34 37 -34z" />
    <glyph glyph-name="uni068A.fina" unicode="&#x68a;" horiz-adv-x="532" 
d="M543 135l9 -72l-20 -63c-63 0 -121 34 -152 82c-35 -66 -104 -96 -202 -96c-71 0 -126 12 -156 21l37 132c32 -8 73 -17 129 -17c64 0 106 15 147 47l-148 310l124 56l109 -287c33 -90 54 -113 123 -113zM204 -86c37 0 65 -29 65 -66c0 -36 -28 -65 -65 -65
s-65 29 -65 65c0 37 28 66 65 66z" />
    <glyph glyph-name="uni068B.fina" unicode="&#x68b;" horiz-adv-x="532" 
d="M347 687c0 -34 -23 -88 -101 -88h-155l7 62h33v152h61v-70c26 27 49 36 75 36c53 0 80 -41 80 -92zM176 661h60c40 0 53 9 53 29c0 15 -8 26 -29 26c-31 0 -61 -26 -84 -55zM543 135l9 -72l-20 -63c-63 0 -121 34 -152 82c-35 -66 -104 -96 -202 -96
c-71 0 -126 12 -156 21l37 132c32 -8 73 -17 129 -17c64 0 106 15 147 47l-148 310l124 56l109 -287c33 -90 54 -113 123 -113zM204 -86c37 0 65 -29 65 -66c0 -36 -28 -65 -65 -65s-65 29 -65 65c0 37 28 66 65 66z" />
    <glyph glyph-name="uniFB87" unicode="&#x68e;" horiz-adv-x="532" arabic-form="final" 
d="M221 730c-31 0 -57 26 -57 58s26 58 57 58s57 -26 57 -58s-26 -58 -57 -58zM134 599c-33 0 -59 26 -59 57c0 33 26 59 59 59c30 0 57 -26 57 -59c0 -31 -27 -57 -57 -57zM251 656c0 33 27 59 57 59c33 0 59 -26 59 -59c0 -31 -26 -57 -59 -57c-30 0 -57 26 -57 57z
M543 135l9 -72l-20 -63c-63 0 -121 34 -152 82c-35 -66 -104 -96 -202 -96c-71 0 -126 12 -156 21l37 132c32 -8 73 -17 129 -17c64 0 106 15 147 47l-148 310l124 56l109 -287c33 -90 54 -113 123 -113z" />
    <glyph glyph-name="uni068F.fina" unicode="&#x68f;" horiz-adv-x="532" 
d="M134 721c-33 0 -59 25 -59 58c0 31 26 57 59 57c30 0 57 -26 57 -57c0 -33 -27 -58 -57 -58zM308 721c-30 0 -57 25 -57 58c0 31 27 57 57 57c33 0 59 -26 59 -57c0 -33 -26 -58 -59 -58zM164 647c0 32 26 58 57 58s57 -26 57 -58s-26 -57 -57 -57s-57 25 -57 57z
M543 135l9 -72l-20 -63c-63 0 -121 34 -152 82c-35 -66 -104 -96 -202 -96c-71 0 -126 12 -156 21l37 132c32 -8 73 -17 129 -17c64 0 106 15 147 47l-148 310l124 56l109 -287c33 -90 54 -113 123 -113z" />
    <glyph glyph-name="uni0690.fina" unicode="&#x690;" horiz-adv-x="532" 
d="M148 725c-31 0 -56 25 -56 54c0 33 25 56 56 56c30 0 55 -23 55 -56c0 -29 -25 -54 -55 -54zM295 725c-30 0 -55 25 -55 54c0 33 25 56 55 56c31 0 56 -23 56 -56c0 -29 -25 -54 -56 -54zM148 583c-31 0 -56 24 -56 55s25 56 56 56c30 0 55 -25 55 -56s-25 -55 -55 -55z
M295 583c-30 0 -55 24 -55 55s25 56 55 56c31 0 56 -25 56 -56s-25 -55 -56 -55zM543 135l9 -72l-20 -63c-63 0 -121 34 -152 82c-35 -66 -104 -96 -202 -96c-71 0 -126 12 -156 21l37 132c32 -8 73 -17 129 -17c64 0 106 15 147 47l-148 310l124 56l109 -287
c33 -90 54 -113 123 -113z" />
    <glyph glyph-name="uni06EE.fina" unicode="&#x6ee;" horiz-adv-x="532" 
d="M221 677l-48 -80l-64 26l79 142h64l81 -142l-64 -26zM543 135l9 -72l-20 -63c-63 0 -121 34 -152 82c-35 -66 -104 -96 -202 -96c-71 0 -126 12 -156 21l37 132c32 -8 73 -17 129 -17c64 0 106 15 147 47l-148 310l124 56l109 -287c33 -90 54 -113 123 -113z" />
    <glyph glyph-name="uniFEAE" unicode="&#x631;" horiz-adv-x="416" arabic-form="final" 
d="M427 135l9 -73l-20 -62c-49 0 -77 10 -97 37c-14 -147 -119 -239 -304 -293l-50 130c195 56 265 138 265 218c0 58 -37 143 -84 238l127 43c12 -32 28 -79 39 -117c28 -93 54 -121 115 -121z" />
    <glyph glyph-name="uniFEB0" unicode="&#x632;" horiz-adv-x="416" arabic-form="final" 
d="M179 458c-37 0 -65 29 -65 65c0 37 28 66 65 66s65 -29 65 -66c0 -36 -28 -65 -65 -65zM427 135l9 -73l-20 -62c-49 0 -77 10 -97 37c-14 -147 -119 -239 -304 -293l-50 130c195 56 265 138 265 218c0 58 -37 143 -84 238l127 43c12 -32 28 -79 39 -117
c28 -93 54 -121 115 -121z" />
    <glyph glyph-name="uniFB8D" unicode="&#x691;" horiz-adv-x="416" arabic-form="final" 
d="M307 549c0 -34 -23 -88 -101 -88h-155l7 62h33v152h61v-70c26 27 49 36 75 36c53 0 80 -41 80 -92zM136 523h60c40 0 53 9 53 29c0 15 -8 26 -29 26c-31 0 -61 -26 -84 -55zM427 135l9 -73l-20 -62c-49 0 -77 10 -97 37c-14 -147 -119 -239 -304 -293l-50 130
c195 56 265 138 265 218c0 58 -37 143 -84 238l127 43c12 -32 28 -79 39 -117c28 -93 54 -121 115 -121z" />
    <glyph glyph-name="uni0692.fina" unicode="&#x692;" horiz-adv-x="416" 
d="M212 432h-64l-79 142l64 27l48 -81l48 81l64 -27zM427 135l9 -73l-20 -62c-49 0 -77 10 -97 37c-14 -147 -119 -239 -304 -293l-50 130c195 56 265 138 265 218c0 58 -37 143 -84 238l127 43c12 -32 28 -79 39 -117c28 -93 54 -121 115 -121z" />
    <glyph glyph-name="uni0693.fina" unicode="&#x693;" horiz-adv-x="416" 
d="M427 135l9 -73l-20 -62c-49 0 -77 10 -97 37c-6 -65 -30 -119 -70 -164c42 -7 75 -42 75 -90c0 -53 -40 -91 -93 -91c-52 0 -94 38 -94 91v8c-35 -18 -76 -34 -122 -47l-50 130c195 56 265 138 265 218c0 58 -37 143 -84 238l127 43c12 -32 28 -79 39 -117
c28 -93 54 -121 115 -121zM268 -217c0 20 -15 34 -37 34s-37 -14 -37 -34c0 -18 14 -34 37 -34c24 0 37 16 37 34z" />
    <glyph glyph-name="uni0694.fina" unicode="&#x694;" horiz-adv-x="416" 
d="M427 135l9 -73l-20 -62c-49 0 -77 10 -97 37c-14 -147 -119 -239 -304 -293l-50 130c195 56 265 138 265 218c0 58 -37 143 -84 238l127 43c12 -32 28 -79 39 -117c28 -93 54 -121 115 -121zM230 -268c37 0 65 -29 65 -66c0 -36 -28 -65 -65 -65s-65 29 -65 65
c0 37 28 66 65 66z" />
    <glyph glyph-name="uni0695.fina" unicode="&#x695;" horiz-adv-x="416" 
d="M427 135l9 -73l-20 -62c-49 0 -77 10 -97 37c-14 -147 -119 -239 -304 -293l-50 130c195 56 265 138 265 218c0 58 -37 143 -84 238l127 43c12 -32 28 -79 39 -117c28 -93 54 -121 115 -121zM230 -309l48 80l64 -26l-81 -143h-64l-79 143l64 26z" />
    <glyph glyph-name="uni0696.fina" unicode="&#x696;" horiz-adv-x="416" 
d="M179 458c-37 0 -65 29 -65 65c0 37 28 66 65 66s65 -29 65 -66c0 -36 -28 -65 -65 -65zM427 135l9 -73l-20 -62c-49 0 -77 10 -97 37c-14 -147 -119 -239 -304 -293l-50 130c195 56 265 138 265 218c0 58 -37 143 -84 238l127 43c12 -32 28 -79 39 -117
c28 -93 54 -121 115 -121zM230 -268c37 0 65 -29 65 -66c0 -36 -28 -65 -65 -65s-65 29 -65 65c0 37 28 66 65 66z" />
    <glyph glyph-name="uni0697.fina" unicode="&#x697;" horiz-adv-x="416" 
d="M99 471c-32 0 -60 27 -60 61s28 60 60 60c33 0 61 -26 61 -60s-28 -61 -61 -61zM262 471c-33 0 -60 27 -60 61s27 60 60 60s60 -26 60 -60s-27 -61 -60 -61zM427 135l9 -73l-20 -62c-49 0 -77 10 -97 37c-14 -147 -119 -239 -304 -293l-50 130c195 56 265 138 265 218
c0 58 -37 143 -84 238l127 43c12 -32 28 -79 39 -117c28 -93 54 -121 115 -121z" />
    <glyph glyph-name="uniFB8B" unicode="&#x698;" horiz-adv-x="416" arabic-form="final" 
d="M181 592c-31 0 -57 26 -57 58s26 58 57 58s57 -26 57 -58s-26 -58 -57 -58zM94 461c-33 0 -59 26 -59 57c0 33 26 59 59 59c30 0 57 -26 57 -59c0 -31 -27 -57 -57 -57zM211 518c0 33 27 59 57 59c33 0 59 -26 59 -59c0 -31 -26 -57 -59 -57c-30 0 -57 26 -57 57z
M427 135l9 -73l-20 -62c-49 0 -77 10 -97 37c-14 -147 -119 -239 -304 -293l-50 130c195 56 265 138 265 218c0 58 -37 143 -84 238l127 43c12 -32 28 -79 39 -117c28 -93 54 -121 115 -121z" />
    <glyph glyph-name="uni0699.fina" unicode="&#x699;" horiz-adv-x="416" 
d="M108 587c-31 0 -56 25 -56 54c0 33 25 56 56 56c30 0 55 -23 55 -56c0 -29 -25 -54 -55 -54zM255 587c-30 0 -55 25 -55 54c0 33 25 56 55 56c31 0 56 -23 56 -56c0 -29 -25 -54 -56 -54zM108 445c-31 0 -56 24 -56 55s25 56 56 56c30 0 55 -25 55 -56s-25 -55 -55 -55z
M255 445c-30 0 -55 24 -55 55s25 56 55 56c31 0 56 -25 56 -56s-25 -55 -56 -55zM427 135l9 -73l-20 -62c-49 0 -77 10 -97 37c-14 -147 -119 -239 -304 -293l-50 130c195 56 265 138 265 218c0 58 -37 143 -84 238l127 43c12 -32 28 -79 39 -117c28 -93 54 -121 115 -121z
" />
    <glyph glyph-name="uniFC5C" unicode="&#xfc5c;" horiz-adv-x="374" arabic-form="isolated" 
d="M142 620l73 9v-188h-73v179zM17 -256l-52 130c186 60 251 134 251 218c0 61 -26 131 -80 236l133 46c29 -76 55 -175 55 -273c0 -179 -113 -293 -307 -357z" />
    <glyph glyph-name="uniFEB2" unicode="&#x633;" horiz-adv-x="1307" arabic-form="final" 
d="M1318 135l9 -71l-20 -64c-70 0 -122 26 -148 64c-33 -46 -85 -64 -144 -64c-55 0 -108 18 -140 68c-35 -50 -85 -68 -146 -68h-1c-36 0 -66 9 -91 30c-9 -230 -134 -289 -325 -289c-189 0 -272 98 -272 257c0 87 31 161 54 204l86 -26c-12 -33 -27 -88 -27 -156
c0 -86 47 -144 171 -144c145 0 203 48 203 171c0 80 -23 153 -65 240l124 49c10 -33 24 -73 36 -106c30 -82 64 -95 118 -95c44 0 74 29 74 96v107h111v-106c0 -70 28 -97 83 -97c48 0 75 24 75 76v165h112v-157c0 -68 37 -84 123 -84z" />
    <glyph glyph-name="uniFEB4" unicode="&#x633;" horiz-adv-x="883" arabic-form="medial" 
d="M895 135l8 -71l-20 -64c-70 0 -121 26 -148 64c-32 -45 -84 -64 -143 -64c-55 0 -108 18 -141 68c-34 -50 -82 -68 -136 -68c-52 0 -106 18 -136 67c-41 -53 -104 -67 -179 -67l-20 63l32 72c67 0 111 14 111 76v127h111v-110c0 -80 38 -93 82 -93c45 0 75 29 75 96v107
h111v-106c0 -70 28 -97 83 -97c47 0 74 24 74 76v158h113v-150c0 -68 37 -84 123 -84z" />
    <glyph glyph-name="uniFEB3" unicode="&#x633;" horiz-adv-x="825" arabic-form="initial" 
d="M732 425c32 -84 42 -161 42 -216c0 -152 -79 -209 -175 -209c-55 0 -107 18 -140 68c-34 -50 -83 -68 -136 -68c-52 0 -107 18 -137 67c-41 -53 -105 -67 -186 -67l-20 63l31 72c75 0 120 14 120 76v127h111v-110c0 -80 37 -93 81 -93c45 0 75 29 75 96v107h111v-106
c0 -70 29 -97 83 -97c47 0 68 25 68 78c0 40 -10 100 -40 176z" />
    <glyph glyph-name="uni069A.init" unicode="&#x69a;" horiz-adv-x="825" 
d="M438 413c-37 0 -65 29 -65 65c0 37 28 66 65 66s65 -29 65 -66c0 -36 -28 -65 -65 -65zM732 425c32 -84 42 -161 42 -216c0 -152 -79 -209 -175 -209c-55 0 -107 18 -140 68c-34 -50 -83 -68 -136 -68c-52 0 -107 18 -137 67c-41 -53 -105 -67 -186 -67l-20 63l31 72
c75 0 120 14 120 76v127h111v-110c0 -80 37 -93 81 -93c45 0 75 29 75 96v107h111v-106c0 -70 29 -97 83 -97c47 0 68 25 68 78c0 40 -10 100 -40 176zM461 -86c37 0 65 -29 65 -66c0 -36 -28 -65 -65 -65s-65 29 -65 65c0 37 28 66 65 66z" />
    <glyph glyph-name="uni069A.medi" unicode="&#x69a;" horiz-adv-x="883" 
d="M444 413c-37 0 -65 29 -65 65c0 37 28 66 65 66s65 -29 65 -66c0 -36 -28 -65 -65 -65zM895 135l8 -71l-20 -64c-70 0 -121 26 -148 64c-32 -45 -84 -64 -143 -64c-55 0 -108 18 -141 68c-34 -50 -82 -68 -136 -68c-52 0 -106 18 -136 67c-41 -53 -104 -67 -179 -67
l-20 63l32 72c67 0 111 14 111 76v127h111v-110c0 -80 38 -93 82 -93c45 0 75 29 75 96v107h111v-106c0 -70 28 -97 83 -97c47 0 74 24 74 76v158h113v-150c0 -68 37 -84 123 -84zM448 -86c37 0 65 -29 65 -66c0 -36 -28 -65 -65 -65s-65 29 -65 65c0 37 28 66 65 66z" />
    <glyph glyph-name="uni069A.fina" unicode="&#x69a;" horiz-adv-x="1307" 
d="M868 413c-37 0 -65 29 -65 65c0 37 28 66 65 66s65 -29 65 -66c0 -36 -28 -65 -65 -65zM1318 135l9 -71l-20 -64c-70 0 -122 26 -148 64c-33 -46 -85 -64 -144 -64c-55 0 -108 18 -140 68c-35 -50 -85 -68 -146 -68h-1c-36 0 -66 9 -91 30c-9 -230 -134 -289 -325 -289
c-189 0 -272 98 -272 257c0 87 31 161 54 204l86 -26c-12 -33 -27 -88 -27 -156c0 -86 47 -144 171 -144c145 0 203 48 203 171c0 80 -23 153 -65 240l124 49c10 -33 24 -73 36 -106c30 -82 64 -95 118 -95c44 0 74 29 74 96v107h111v-106c0 -70 28 -97 83 -97
c48 0 75 24 75 76v165h112v-157c0 -68 37 -84 123 -84zM896 -86c37 0 65 -29 65 -66c0 -36 -28 -65 -65 -65s-65 29 -65 65c0 37 28 66 65 66z" />
    <glyph glyph-name="uni069B.init" unicode="&#x69b;" horiz-adv-x="825" 
d="M732 425c32 -84 42 -161 42 -216c0 -152 -79 -209 -175 -209c-55 0 -107 18 -140 68c-34 -50 -83 -68 -136 -68c-52 0 -107 18 -137 67c-41 -53 -105 -67 -186 -67l-20 63l31 72c75 0 120 14 120 76v127h111v-110c0 -80 37 -93 81 -93c45 0 75 29 75 96v107h111v-106
c0 -70 29 -97 83 -97c47 0 68 25 68 78c0 40 -10 100 -40 176zM431 -146c0 -33 -27 -58 -57 -58c-33 0 -59 25 -59 58c0 31 26 57 59 57c30 0 57 -26 57 -57zM548 -89c33 0 59 -26 59 -57c0 -33 -26 -58 -59 -58c-30 0 -57 25 -57 58c0 31 27 57 57 57zM461 -220
c31 0 57 -26 57 -58s-26 -57 -57 -57s-57 25 -57 57s26 58 57 58z" />
    <glyph glyph-name="uni069B.medi" unicode="&#x69b;" horiz-adv-x="883" 
d="M895 135l8 -71l-20 -64c-70 0 -121 26 -148 64c-32 -45 -84 -64 -143 -64c-55 0 -108 18 -141 68c-34 -50 -82 -68 -136 -68c-52 0 -106 18 -136 67c-41 -53 -104 -67 -179 -67l-20 63l32 72c67 0 111 14 111 76v127h111v-110c0 -80 38 -93 82 -93c45 0 75 29 75 96v107
h111v-106c0 -70 28 -97 83 -97c47 0 74 24 74 76v158h113v-150c0 -68 37 -84 123 -84zM418 -146c0 -33 -27 -58 -57 -58c-33 0 -59 25 -59 58c0 31 26 57 59 57c30 0 57 -26 57 -57zM535 -89c33 0 59 -26 59 -57c0 -33 -26 -58 -59 -58c-30 0 -57 25 -57 58
c0 31 27 57 57 57zM448 -220c31 0 57 -26 57 -58s-26 -57 -57 -57s-57 25 -57 57s26 58 57 58z" />
    <glyph glyph-name="uni069B.fina" unicode="&#x69b;" horiz-adv-x="1307" 
d="M1318 135l9 -71l-20 -64c-70 0 -122 26 -148 64c-33 -46 -85 -64 -144 -64c-55 0 -108 18 -140 68c-35 -50 -85 -68 -146 -68h-1c-36 0 -66 9 -91 30c-9 -230 -134 -289 -325 -289c-189 0 -272 98 -272 257c0 87 31 161 54 204l86 -26c-12 -33 -27 -88 -27 -156
c0 -86 47 -144 171 -144c145 0 203 48 203 171c0 80 -23 153 -65 240l124 49c10 -33 24 -73 36 -106c30 -82 64 -95 118 -95c44 0 74 29 74 96v107h111v-106c0 -70 28 -97 83 -97c48 0 75 24 75 76v165h112v-157c0 -68 37 -84 123 -84zM866 -146c0 -33 -27 -58 -57 -58
c-33 0 -59 25 -59 58c0 31 26 57 59 57c30 0 57 -26 57 -57zM983 -89c33 0 59 -26 59 -57c0 -33 -26 -58 -59 -58c-30 0 -57 25 -57 58c0 31 27 57 57 57zM896 -220c31 0 57 -26 57 -58s-26 -57 -57 -57s-57 25 -57 57s26 58 57 58z" />
    <glyph glyph-name="uniFEB6" unicode="&#x634;" horiz-adv-x="1307" arabic-form="final" 
d="M870 547c-31 0 -57 26 -57 58s26 58 57 58s57 -26 57 -58s-26 -58 -57 -58zM783 416c-33 0 -59 26 -59 57c0 33 26 59 59 59c30 0 57 -26 57 -59c0 -31 -27 -57 -57 -57zM900 473c0 33 27 59 57 59c33 0 59 -26 59 -59c0 -31 -26 -57 -59 -57c-30 0 -57 26 -57 57z
M1318 135l9 -71l-20 -64c-70 0 -122 26 -148 64c-33 -46 -85 -64 -144 -64c-55 0 -108 18 -140 68c-35 -50 -85 -68 -146 -68h-1c-36 0 -66 9 -91 30c-9 -230 -134 -289 -325 -289c-189 0 -272 98 -272 257c0 87 31 161 54 204l86 -26c-12 -33 -27 -88 -27 -156
c0 -86 47 -144 171 -144c145 0 203 48 203 171c0 80 -23 153 -65 240l124 49c10 -33 24 -73 36 -106c30 -82 64 -95 118 -95c44 0 74 29 74 96v107h111v-106c0 -70 28 -97 83 -97c48 0 75 24 75 76v165h112v-157c0 -68 37 -84 123 -84z" />
    <glyph glyph-name="uniFEB8" unicode="&#x634;" horiz-adv-x="883" arabic-form="medial" 
d="M446 547c-31 0 -57 26 -57 58s26 58 57 58s57 -26 57 -58s-26 -58 -57 -58zM359 416c-33 0 -59 26 -59 57c0 33 26 59 59 59c30 0 57 -26 57 -59c0 -31 -27 -57 -57 -57zM476 473c0 33 27 59 57 59c33 0 59 -26 59 -59c0 -31 -26 -57 -59 -57c-30 0 -57 26 -57 57z
M895 135l8 -71l-20 -64c-70 0 -121 26 -148 64c-32 -45 -84 -64 -143 -64c-55 0 -108 18 -141 68c-34 -50 -82 -68 -136 -68c-52 0 -106 18 -136 67c-41 -53 -104 -67 -179 -67l-20 63l32 72c67 0 111 14 111 76v127h111v-110c0 -80 38 -93 82 -93c45 0 75 29 75 96v107h111
v-106c0 -70 28 -97 83 -97c47 0 74 24 74 76v158h113v-150c0 -68 37 -84 123 -84z" />
    <glyph glyph-name="uniFEB7" unicode="&#x634;" horiz-adv-x="825" arabic-form="initial" 
d="M440 547c-31 0 -57 26 -57 58s26 58 57 58s57 -26 57 -58s-26 -58 -57 -58zM353 416c-33 0 -59 26 -59 57c0 33 26 59 59 59c30 0 57 -26 57 -59c0 -31 -27 -57 -57 -57zM470 473c0 33 27 59 57 59c33 0 59 -26 59 -59c0 -31 -26 -57 -59 -57c-30 0 -57 26 -57 57z
M732 425c32 -84 42 -161 42 -216c0 -152 -79 -209 -175 -209c-55 0 -107 18 -140 68c-34 -50 -83 -68 -136 -68c-52 0 -107 18 -137 67c-41 -53 -105 -67 -186 -67l-20 63l31 72c75 0 120 14 120 76v127h111v-110c0 -80 37 -93 81 -93c45 0 75 29 75 96v107h111v-106
c0 -70 29 -97 83 -97c47 0 68 25 68 78c0 40 -10 100 -40 176z" />
    <glyph glyph-name="uni06FA.init" unicode="&#x6fa;" horiz-adv-x="825" 
d="M440 547c-31 0 -57 26 -57 58s26 58 57 58s57 -26 57 -58s-26 -58 -57 -58zM353 416c-33 0 -59 26 -59 57c0 33 26 59 59 59c30 0 57 -26 57 -59c0 -31 -27 -57 -57 -57zM470 473c0 33 27 59 57 59c33 0 59 -26 59 -59c0 -31 -26 -57 -59 -57c-30 0 -57 26 -57 57z
M732 425c32 -84 42 -161 42 -216c0 -152 -79 -209 -175 -209c-55 0 -107 18 -140 68c-34 -50 -83 -68 -136 -68c-52 0 -107 18 -137 67c-41 -53 -105 -67 -186 -67l-20 63l31 72c75 0 120 14 120 76v127h111v-110c0 -80 37 -93 81 -93c45 0 75 29 75 96v107h111v-106
c0 -70 29 -97 83 -97c47 0 68 25 68 78c0 40 -10 100 -40 176zM461 -86c37 0 65 -29 65 -66c0 -36 -28 -65 -65 -65s-65 29 -65 65c0 37 28 66 65 66z" />
    <glyph glyph-name="uni06FA.medi" unicode="&#x6fa;" horiz-adv-x="883" 
d="M446 547c-31 0 -57 26 -57 58s26 58 57 58s57 -26 57 -58s-26 -58 -57 -58zM359 416c-33 0 -59 26 -59 57c0 33 26 59 59 59c30 0 57 -26 57 -59c0 -31 -27 -57 -57 -57zM476 473c0 33 27 59 57 59c33 0 59 -26 59 -59c0 -31 -26 -57 -59 -57c-30 0 -57 26 -57 57z
M895 135l8 -71l-20 -64c-70 0 -121 26 -148 64c-32 -45 -84 -64 -143 -64c-55 0 -108 18 -141 68c-34 -50 -82 -68 -136 -68c-52 0 -106 18 -136 67c-41 -53 -104 -67 -179 -67l-20 63l32 72c67 0 111 14 111 76v127h111v-110c0 -80 38 -93 82 -93c45 0 75 29 75 96v107h111
v-106c0 -70 28 -97 83 -97c47 0 74 24 74 76v158h113v-150c0 -68 37 -84 123 -84zM448 -86c37 0 65 -29 65 -66c0 -36 -28 -65 -65 -65s-65 29 -65 65c0 37 28 66 65 66z" />
    <glyph glyph-name="uni06FA.fina" unicode="&#x6fa;" horiz-adv-x="1307" 
d="M870 547c-31 0 -57 26 -57 58s26 58 57 58s57 -26 57 -58s-26 -58 -57 -58zM783 416c-33 0 -59 26 -59 57c0 33 26 59 59 59c30 0 57 -26 57 -59c0 -31 -27 -57 -57 -57zM900 473c0 33 27 59 57 59c33 0 59 -26 59 -59c0 -31 -26 -57 -59 -57c-30 0 -57 26 -57 57z
M1318 135l9 -71l-20 -64c-70 0 -122 26 -148 64c-33 -46 -85 -64 -144 -64c-55 0 -108 18 -140 68c-35 -50 -85 -68 -146 -68h-1c-36 0 -66 9 -91 30c-9 -230 -134 -289 -325 -289c-189 0 -272 98 -272 257c0 87 31 161 54 204l86 -26c-12 -33 -27 -88 -27 -156
c0 -86 47 -144 171 -144c145 0 203 48 203 171c0 80 -23 153 -65 240l124 49c10 -33 24 -73 36 -106c30 -82 64 -95 118 -95c44 0 74 29 74 96v107h111v-106c0 -70 28 -97 83 -97c48 0 75 24 75 76v165h112v-157c0 -68 37 -84 123 -84zM896 -86c37 0 65 -29 65 -66
c0 -36 -28 -65 -65 -65s-65 29 -65 65c0 37 28 66 65 66z" />
    <glyph glyph-name="uni069C.init" unicode="&#x69c;" horiz-adv-x="825" 
d="M440 547c-31 0 -57 26 -57 58s26 58 57 58s57 -26 57 -58s-26 -58 -57 -58zM353 416c-33 0 -59 26 -59 57c0 33 26 59 59 59c30 0 57 -26 57 -59c0 -31 -27 -57 -57 -57zM470 473c0 33 27 59 57 59c33 0 59 -26 59 -59c0 -31 -26 -57 -59 -57c-30 0 -57 26 -57 57z
M732 425c32 -84 42 -161 42 -216c0 -152 -79 -209 -175 -209c-55 0 -107 18 -140 68c-34 -50 -83 -68 -136 -68c-52 0 -107 18 -137 67c-41 -53 -105 -67 -186 -67l-20 63l31 72c75 0 120 14 120 76v127h111v-110c0 -80 37 -93 81 -93c45 0 75 29 75 96v107h111v-106
c0 -70 29 -97 83 -97c47 0 68 25 68 78c0 40 -10 100 -40 176zM431 -146c0 -33 -27 -58 -57 -58c-33 0 -59 25 -59 58c0 31 26 57 59 57c30 0 57 -26 57 -57zM548 -89c33 0 59 -26 59 -57c0 -33 -26 -58 -59 -58c-30 0 -57 25 -57 58c0 31 27 57 57 57zM461 -220
c31 0 57 -26 57 -58s-26 -57 -57 -57s-57 25 -57 57s26 58 57 58z" />
    <glyph glyph-name="uni069C.medi" unicode="&#x69c;" horiz-adv-x="883" 
d="M446 547c-31 0 -57 26 -57 58s26 58 57 58s57 -26 57 -58s-26 -58 -57 -58zM359 416c-33 0 -59 26 -59 57c0 33 26 59 59 59c30 0 57 -26 57 -59c0 -31 -27 -57 -57 -57zM476 473c0 33 27 59 57 59c33 0 59 -26 59 -59c0 -31 -26 -57 -59 -57c-30 0 -57 26 -57 57z
M895 135l8 -71l-20 -64c-70 0 -121 26 -148 64c-32 -45 -84 -64 -143 -64c-55 0 -108 18 -141 68c-34 -50 -82 -68 -136 -68c-52 0 -106 18 -136 67c-41 -53 -104 -67 -179 -67l-20 63l32 72c67 0 111 14 111 76v127h111v-110c0 -80 38 -93 82 -93c45 0 75 29 75 96v107h111
v-106c0 -70 28 -97 83 -97c47 0 74 24 74 76v158h113v-150c0 -68 37 -84 123 -84zM418 -146c0 -33 -27 -58 -57 -58c-33 0 -59 25 -59 58c0 31 26 57 59 57c30 0 57 -26 57 -57zM535 -89c33 0 59 -26 59 -57c0 -33 -26 -58 -59 -58c-30 0 -57 25 -57 58c0 31 27 57 57 57z
M448 -220c31 0 57 -26 57 -58s-26 -57 -57 -57s-57 25 -57 57s26 58 57 58z" />
    <glyph glyph-name="uni069C.fina" unicode="&#x69c;" horiz-adv-x="1307" 
d="M870 547c-31 0 -57 26 -57 58s26 58 57 58s57 -26 57 -58s-26 -58 -57 -58zM783 416c-33 0 -59 26 -59 57c0 33 26 59 59 59c30 0 57 -26 57 -59c0 -31 -27 -57 -57 -57zM900 473c0 33 27 59 57 59c33 0 59 -26 59 -59c0 -31 -26 -57 -59 -57c-30 0 -57 26 -57 57z
M1318 135l9 -71l-20 -64c-70 0 -122 26 -148 64c-33 -46 -85 -64 -144 -64c-55 0 -108 18 -140 68c-35 -50 -85 -68 -146 -68h-1c-36 0 -66 9 -91 30c-9 -230 -134 -289 -325 -289c-189 0 -272 98 -272 257c0 87 31 161 54 204l86 -26c-12 -33 -27 -88 -27 -156
c0 -86 47 -144 171 -144c145 0 203 48 203 171c0 80 -23 153 -65 240l124 49c10 -33 24 -73 36 -106c30 -82 64 -95 118 -95c44 0 74 29 74 96v107h111v-106c0 -70 28 -97 83 -97c48 0 75 24 75 76v165h112v-157c0 -68 37 -84 123 -84zM866 -146c0 -33 -27 -58 -57 -58
c-33 0 -59 25 -59 58c0 31 26 57 59 57c30 0 57 -26 57 -57zM983 -89c33 0 59 -26 59 -57c0 -33 -26 -58 -59 -58c-30 0 -57 25 -57 58c0 31 27 57 57 57zM896 -220c31 0 57 -26 57 -58s-26 -57 -57 -57s-57 25 -57 57s26 58 57 58z" />
    <glyph glyph-name="uniFEBA" unicode="&#x635;" horiz-adv-x="1356" arabic-form="final" 
d="M1367 135l9 -75l-20 -60c-55 0 -102 27 -133 66c-60 -56 -172 -66 -349 -66h-145c-37 0 -67 9 -92 30c-9 -230 -134 -289 -325 -289c-189 0 -272 98 -272 257c0 87 31 161 54 204l86 -26c-12 -33 -27 -88 -27 -156c0 -86 47 -144 171 -144c145 0 203 48 203 171
c0 80 -23 153 -65 240l124 49c10 -33 24 -73 36 -106c21 -58 44 -81 75 -90c82 220 225 331 370 331c110 0 211 -73 211 -240c0 -23 -1 -44 -5 -62c28 -27 58 -34 94 -34zM888 135c224 0 290 17 290 104c0 92 -60 102 -111 102c-83 0 -177 -39 -270 -206h91z" />
    <glyph glyph-name="uniFEBC" unicode="&#x635;" horiz-adv-x="952" arabic-form="medial" 
d="M963 135l9 -75l-20 -60c-55 0 -102 27 -133 66c-60 -56 -172 -66 -349 -66h-145c-75 0 -127 15 -162 67c-34 -52 -83 -67 -163 -67l-20 62l32 73c94 0 95 23 95 93v169h112v-168c0 -61 10 -86 73 -92c82 222 225 334 371 334c110 0 211 -73 211 -240c0 -23 -1 -44 -5 -62
c28 -27 58 -34 94 -34zM484 135c224 0 290 17 290 104c0 92 -60 102 -111 102c-83 0 -177 -39 -270 -206h91z" />
    <glyph glyph-name="uniFEBB" unicode="&#x635;" horiz-adv-x="924" arabic-form="initial" 
d="M663 471c110 0 211 -73 211 -240c0 -204 -117 -231 -404 -231h-145c-75 0 -127 15 -162 67c-34 -52 -83 -67 -163 -67l-20 62l32 73c94 0 95 23 95 93v169h112v-168c0 -61 10 -86 73 -92c82 222 225 334 371 334zM484 135c224 0 290 17 290 104c0 92 -60 102 -111 102
c-83 0 -177 -39 -270 -206h91z" />
    <glyph glyph-name="uni069D.init" unicode="&#x69d;" horiz-adv-x="924" 
d="M663 471c110 0 211 -73 211 -240c0 -204 -117 -231 -404 -231h-145c-75 0 -127 15 -162 67c-34 -52 -83 -67 -163 -67l-20 62l32 73c94 0 95 23 95 93v169h112v-168c0 -61 10 -86 73 -92c82 222 225 334 371 334zM484 135c224 0 290 17 290 104c0 92 -60 102 -111 102
c-83 0 -177 -39 -270 -206h91zM80 -83c33 0 61 -26 61 -60s-28 -60 -61 -60c-32 0 -60 26 -60 60s28 60 60 60zM243 -83c33 0 60 -26 60 -60s-27 -60 -60 -60s-60 26 -60 60s27 60 60 60z" />
    <glyph glyph-name="uni069D.medi" unicode="&#x69d;" horiz-adv-x="952" 
d="M963 135l9 -75l-20 -60c-55 0 -102 27 -133 66c-60 -56 -172 -66 -349 -66h-145c-75 0 -127 15 -162 67c-34 -52 -83 -67 -163 -67l-20 62l32 73c94 0 95 23 95 93v169h112v-168c0 -61 10 -86 73 -92c82 222 225 334 371 334c110 0 211 -73 211 -240c0 -23 -1 -44 -5 -62
c28 -27 58 -34 94 -34zM484 135c224 0 290 17 290 104c0 92 -60 102 -111 102c-83 0 -177 -39 -270 -206h91zM81 -83c33 0 61 -26 61 -60s-28 -60 -61 -60c-32 0 -60 26 -60 60s28 60 60 60zM244 -83c33 0 60 -26 60 -60s-27 -60 -60 -60s-60 26 -60 60s27 60 60 60z" />
    <glyph glyph-name="uni069D.fina" unicode="&#x69d;" horiz-adv-x="1356" 
d="M1367 135l9 -75l-20 -60c-55 0 -102 27 -133 66c-60 -56 -172 -66 -349 -66h-145c-37 0 -67 9 -92 30c-9 -230 -134 -289 -325 -289c-189 0 -272 98 -272 257c0 87 31 161 54 204l86 -26c-12 -33 -27 -88 -27 -156c0 -86 47 -144 171 -144c145 0 203 48 203 171
c0 80 -23 153 -65 240l124 49c10 -33 24 -73 36 -106c21 -58 44 -81 75 -90c82 220 225 331 370 331c110 0 211 -73 211 -240c0 -23 -1 -44 -5 -62c28 -27 58 -34 94 -34zM888 135c224 0 290 17 290 104c0 92 -60 102 -111 102c-83 0 -177 -39 -270 -206h91zM240 -330
c33 0 61 -26 61 -60s-28 -60 -61 -60c-32 0 -60 26 -60 60s28 60 60 60zM403 -330c33 0 60 -26 60 -60s-27 -60 -60 -60s-60 26 -60 60s27 60 60 60z" />
    <glyph glyph-name="uni069E.init" unicode="&#x69e;" horiz-adv-x="924" 
d="M629 663c-31 0 -57 26 -57 58s26 58 57 58s57 -26 57 -58s-26 -58 -57 -58zM542 532c-33 0 -59 26 -59 57c0 33 26 59 59 59c31 0 57 -26 57 -59c0 -31 -26 -57 -57 -57zM659 589c0 33 27 59 58 59c32 0 59 -26 59 -59c0 -31 -27 -57 -59 -57c-31 0 -58 26 -58 57z
M663 471c110 0 211 -73 211 -240c0 -204 -117 -231 -404 -231h-145c-75 0 -127 15 -162 67c-34 -52 -83 -67 -163 -67l-20 62l32 73c94 0 95 23 95 93v169h112v-168c0 -61 10 -86 73 -92c82 222 225 334 371 334zM484 135c224 0 290 17 290 104c0 92 -60 102 -111 102
c-83 0 -177 -39 -270 -206h91z" />
    <glyph glyph-name="uni069E.medi" unicode="&#x69e;" horiz-adv-x="952" 
d="M629 663c-31 0 -57 26 -57 58s26 58 57 58s57 -26 57 -58s-26 -58 -57 -58zM542 532c-33 0 -59 26 -59 57c0 33 26 59 59 59c31 0 57 -26 57 -59c0 -31 -26 -57 -57 -57zM659 589c0 33 27 59 58 59c32 0 59 -26 59 -59c0 -31 -27 -57 -59 -57c-31 0 -58 26 -58 57z
M963 135l9 -75l-20 -60c-55 0 -102 27 -133 66c-60 -56 -172 -66 -349 -66h-145c-75 0 -127 15 -162 67c-34 -52 -83 -67 -163 -67l-20 62l32 73c94 0 95 23 95 93v169h112v-168c0 -61 10 -86 73 -92c82 222 225 334 371 334c110 0 211 -73 211 -240c0 -23 -1 -44 -5 -62
c28 -27 58 -34 94 -34zM484 135c224 0 290 17 290 104c0 92 -60 102 -111 102c-83 0 -177 -39 -270 -206h91z" />
    <glyph glyph-name="uni069E.fina" unicode="&#x69e;" horiz-adv-x="1356" 
d="M1033 663c-31 0 -57 26 -57 58s26 58 57 58s57 -26 57 -58s-26 -58 -57 -58zM946 532c-33 0 -59 26 -59 57c0 33 26 59 59 59c30 0 57 -26 57 -59c0 -31 -27 -57 -57 -57zM1063 589c0 33 27 59 57 59c33 0 59 -26 59 -59c0 -31 -26 -57 -59 -57c-30 0 -57 26 -57 57z
M1367 135l9 -75l-20 -60c-55 0 -102 27 -133 66c-60 -56 -172 -66 -349 -66h-145c-37 0 -67 9 -92 30c-9 -230 -134 -289 -325 -289c-189 0 -272 98 -272 257c0 87 31 161 54 204l86 -26c-12 -33 -27 -88 -27 -156c0 -86 47 -144 171 -144c145 0 203 48 203 171
c0 80 -23 153 -65 240l124 49c10 -33 24 -73 36 -106c21 -58 44 -81 75 -90c82 220 225 331 370 331c110 0 211 -73 211 -240c0 -23 -1 -44 -5 -62c28 -27 58 -34 94 -34zM888 135c224 0 290 17 290 104c0 92 -60 102 -111 102c-83 0 -177 -39 -270 -206h91z" />
    <glyph glyph-name="uniFEBE" unicode="&#x636;" horiz-adv-x="1356" arabic-form="final" 
d="M1032 529c-37 0 -65 29 -65 65c0 37 28 66 65 66s65 -29 65 -66c0 -36 -28 -65 -65 -65zM1367 135l9 -75l-20 -60c-55 0 -102 27 -133 66c-60 -56 -172 -66 -349 -66h-145c-37 0 -67 9 -92 30c-9 -230 -134 -289 -325 -289c-189 0 -272 98 -272 257c0 87 31 161 54 204
l86 -26c-12 -33 -27 -88 -27 -156c0 -86 47 -144 171 -144c145 0 203 48 203 171c0 80 -23 153 -65 240l124 49c10 -33 24 -73 36 -106c21 -58 44 -81 75 -90c82 220 225 331 370 331c110 0 211 -73 211 -240c0 -23 -1 -44 -5 -62c28 -27 58 -34 94 -34zM888 135
c224 0 290 17 290 104c0 92 -60 102 -111 102c-83 0 -177 -39 -270 -206h91z" />
    <glyph glyph-name="uniFEC0" unicode="&#x636;" horiz-adv-x="952" arabic-form="medial" 
d="M628 529c-37 0 -66 29 -66 66c0 36 29 65 66 65c36 0 65 -29 65 -65c0 -37 -29 -66 -65 -66zM963 135l9 -75l-20 -60c-55 0 -102 27 -133 66c-60 -56 -172 -66 -349 -66h-145c-75 0 -127 15 -162 67c-34 -52 -83 -67 -163 -67l-20 62l32 73c94 0 95 23 95 93v169h112
v-168c0 -61 10 -86 73 -92c82 222 225 334 371 334c110 0 211 -73 211 -240c0 -23 -1 -44 -5 -62c28 -27 58 -34 94 -34zM484 135c224 0 290 17 290 104c0 92 -60 102 -111 102c-83 0 -177 -39 -270 -206h91z" />
    <glyph glyph-name="uniFEBF" unicode="&#x636;" horiz-adv-x="924" arabic-form="initial" 
d="M628 529c-37 0 -66 29 -66 66c0 36 29 65 66 65c36 0 65 -29 65 -65c0 -37 -29 -66 -65 -66zM663 471c110 0 211 -73 211 -240c0 -204 -117 -231 -404 -231h-145c-75 0 -127 15 -162 67c-34 -52 -83 -67 -163 -67l-20 62l32 73c94 0 95 23 95 93v169h112v-168
c0 -61 10 -86 73 -92c82 222 225 334 371 334zM484 135c224 0 290 17 290 104c0 92 -60 102 -111 102c-83 0 -177 -39 -270 -206h91z" />
    <glyph glyph-name="uni06FB.init" unicode="&#x6fb;" horiz-adv-x="924" 
d="M628 529c-37 0 -66 29 -66 66c0 36 29 65 66 65c36 0 65 -29 65 -65c0 -37 -29 -66 -65 -66zM663 471c110 0 211 -73 211 -240c0 -204 -117 -231 -404 -231h-145c-75 0 -127 15 -162 67c-34 -52 -83 -67 -163 -67l-20 62l32 73c94 0 95 23 95 93v169h112v-168
c0 -61 10 -86 73 -92c82 222 225 334 371 334zM484 135c224 0 290 17 290 104c0 92 -60 102 -111 102c-83 0 -177 -39 -270 -206h91zM496 -86c37 0 65 -29 65 -66c0 -36 -28 -65 -65 -65s-65 29 -65 65c0 37 28 66 65 66z" />
    <glyph glyph-name="uni06FB.medi" unicode="&#x6fb;" horiz-adv-x="952" 
d="M628 529c-37 0 -66 29 -66 66c0 36 29 65 66 65c36 0 65 -29 65 -65c0 -37 -29 -66 -65 -66zM963 135l9 -75l-20 -60c-55 0 -102 27 -133 66c-60 -56 -172 -66 -349 -66h-145c-75 0 -127 15 -162 67c-34 -52 -83 -67 -163 -67l-20 62l32 73c94 0 95 23 95 93v169h112
v-168c0 -61 10 -86 73 -92c82 222 225 334 371 334c110 0 211 -73 211 -240c0 -23 -1 -44 -5 -62c28 -27 58 -34 94 -34zM484 135c224 0 290 17 290 104c0 92 -60 102 -111 102c-83 0 -177 -39 -270 -206h91zM496 -86c37 0 65 -29 65 -66c0 -36 -28 -65 -65 -65
s-65 29 -65 65c0 37 28 66 65 66z" />
    <glyph glyph-name="uni06FB.fina" unicode="&#x6fb;" horiz-adv-x="1356" 
d="M1032 529c-37 0 -65 29 -65 65c0 37 28 66 65 66s65 -29 65 -66c0 -36 -28 -65 -65 -65zM1367 135l9 -75l-20 -60c-55 0 -102 27 -133 66c-60 -56 -172 -66 -349 -66h-145c-37 0 -67 9 -92 30c-9 -230 -134 -289 -325 -289c-189 0 -272 98 -272 257c0 87 31 161 54 204
l86 -26c-12 -33 -27 -88 -27 -156c0 -86 47 -144 171 -144c145 0 203 48 203 171c0 80 -23 153 -65 240l124 49c10 -33 24 -73 36 -106c21 -58 44 -81 75 -90c82 220 225 331 370 331c110 0 211 -73 211 -240c0 -23 -1 -44 -5 -62c28 -27 58 -34 94 -34zM888 135
c224 0 290 17 290 104c0 92 -60 102 -111 102c-83 0 -177 -39 -270 -206h91zM900 -86c37 0 65 -29 65 -66c0 -36 -28 -65 -65 -65s-65 29 -65 65c0 37 28 66 65 66z" />
    <glyph glyph-name="uniFEC2" unicode="&#x637;" horiz-adv-x="852" arabic-form="final" 
d="M863 135l9 -75l-20 -60c-60 0 -110 32 -141 76c-57 -64 -173 -76 -360 -76h-326l26 135h102c9 18 17 36 26 52v575l112 13v-429c78 83 166 125 254 125c110 0 211 -73 211 -240c0 -16 -1 -31 -2 -45c33 -41 65 -51 109 -51zM366 135c224 0 289 17 289 104
c0 92 -59 102 -110 102c-83 0 -177 -39 -274 -206h95z" />
    <glyph glyph-name="uniFEC4" unicode="&#x637;" horiz-adv-x="825" arabic-form="medial" 
d="M837 135l8 -75l-20 -60c-60 0 -110 32 -140 77c-57 -65 -172 -77 -360 -77h-326v2l-19 59l31 74h116c8 18 17 36 26 53v574l112 13v-428c78 82 166 124 254 124c109 0 210 -73 210 -240c0 -16 -1 -30 -2 -44c33 -42 66 -52 110 -52zM339 135c225 0 290 17 290 104
c0 92 -60 102 -110 102c-83 0 -178 -39 -274 -206h94z" />
    <glyph glyph-name="uniFEC3" unicode="&#x637;" horiz-adv-x="780" arabic-form="initial" 
d="M519 471c109 0 210 -73 210 -240c0 -204 -117 -231 -404 -231h-326v2l-19 59l31 74h116c8 18 17 36 26 53v574l112 13v-428c78 82 166 124 254 124zM339 135c225 0 290 17 290 104c0 92 -60 102 -110 102c-83 0 -178 -39 -274 -206h94z" />
    <glyph glyph-name="uni069F.init" unicode="&#x69f;" horiz-adv-x="780" 
d="M490 663c-31 0 -57 26 -57 58s26 58 57 58s57 -26 57 -58s-26 -58 -57 -58zM519 471c109 0 210 -73 210 -240c0 -204 -117 -231 -404 -231h-326v2l-19 59l31 74h116c8 18 17 36 26 53v574l112 13v-428c78 82 166 124 254 124zM403 532c-33 0 -59 26 -59 57
c0 33 26 59 59 59c30 0 57 -26 57 -59c0 -31 -27 -57 -57 -57zM520 589c0 33 27 59 57 59c33 0 59 -26 59 -59c0 -31 -26 -57 -59 -57c-30 0 -57 26 -57 57zM339 135c225 0 290 17 290 104c0 92 -60 102 -110 102c-83 0 -178 -39 -274 -206h94z" />
    <glyph glyph-name="uni069F.medi" unicode="&#x69f;" horiz-adv-x="825" 
d="M489 663c-31 0 -57 26 -57 58s26 58 57 58s57 -26 57 -58s-26 -58 -57 -58zM837 135l8 -75l-20 -60c-60 0 -110 32 -140 77c-57 -65 -172 -77 -360 -77h-326v2l-19 59l31 74h116c8 18 17 36 26 53v574l112 13v-428c78 82 166 124 254 124c109 0 210 -73 210 -240
c0 -16 -1 -30 -2 -44c33 -42 66 -52 110 -52zM402 532c-33 0 -59 26 -59 57c0 33 26 59 59 59c30 0 57 -26 57 -59c0 -31 -27 -57 -57 -57zM519 589c0 33 27 59 57 59c33 0 59 -26 59 -59c0 -31 -26 -57 -59 -57c-30 0 -57 26 -57 57zM339 135c225 0 290 17 290 104
c0 92 -60 102 -110 102c-83 0 -178 -39 -274 -206h94z" />
    <glyph glyph-name="uni069F.fina" unicode="&#x69f;" horiz-adv-x="852" 
d="M516 663c-31 0 -57 26 -57 58s26 58 57 58s57 -26 57 -58s-26 -58 -57 -58zM863 135l9 -75l-20 -60c-60 0 -110 32 -141 76c-57 -64 -173 -76 -360 -76h-326l26 135h102c9 18 17 36 26 52v575l112 13v-429c78 83 166 125 254 125c110 0 211 -73 211 -240
c0 -16 -1 -31 -2 -45c33 -41 65 -51 109 -51zM429 532c-33 0 -59 26 -59 57c0 33 26 59 59 59c30 0 57 -26 57 -59c0 -31 -27 -57 -57 -57zM546 589c0 33 27 59 57 59c33 0 59 -26 59 -59c0 -31 -26 -57 -59 -57c-30 0 -57 26 -57 57zM366 135c224 0 289 17 289 104
c0 92 -59 102 -110 102c-83 0 -177 -39 -274 -206h95z" />
    <glyph glyph-name="uniFEC6" unicode="&#x638;" horiz-adv-x="852" arabic-form="final" 
d="M863 135l9 -75l-20 -60c-60 0 -110 32 -141 76c-57 -64 -173 -76 -360 -76h-326l26 135h102c9 18 17 36 26 52v575l112 13v-429c78 83 166 125 254 125c110 0 211 -73 211 -240c0 -16 -1 -31 -2 -45c33 -41 65 -51 109 -51zM515 529c-37 0 -65 29 -65 65
c0 37 28 66 65 66s65 -29 65 -66c0 -36 -28 -65 -65 -65zM366 135c224 0 289 17 289 104c0 92 -59 102 -110 102c-83 0 -177 -39 -274 -206h95z" />
    <glyph glyph-name="uniFEC8" unicode="&#x638;" horiz-adv-x="825" arabic-form="medial" 
d="M837 135l8 -75l-20 -60c-60 0 -110 32 -140 77c-57 -65 -172 -77 -360 -77h-326v2l-19 59l31 74h116c8 18 17 36 26 53v574l112 13v-428c78 82 166 124 254 124c109 0 210 -73 210 -240c0 -16 -1 -30 -2 -44c33 -42 66 -52 110 -52zM488 529c-37 0 -65 29 -65 65
c0 37 28 66 65 66s65 -29 65 -66c0 -36 -28 -65 -65 -65zM339 135c225 0 290 17 290 104c0 92 -60 102 -110 102c-83 0 -178 -39 -274 -206h94z" />
    <glyph glyph-name="uniFEC7" unicode="&#x638;" horiz-adv-x="780" arabic-form="initial" 
d="M519 471c109 0 210 -73 210 -240c0 -204 -117 -231 -404 -231h-326v2l-19 59l31 74h116c8 18 17 36 26 53v574l112 13v-428c78 82 166 124 254 124zM488 529c-37 0 -65 29 -65 65c0 37 28 66 65 66s65 -29 65 -66c0 -36 -28 -65 -65 -65zM339 135c225 0 290 17 290 104
c0 92 -60 102 -110 102c-83 0 -178 -39 -274 -206h94z" />
    <glyph glyph-name="uniFECA" unicode="&#x639;" horiz-adv-x="582" arabic-form="final" 
d="M343 -232c88 0 157 17 210 45l48 -118c-59 -38 -148 -64 -266 -64c-223 0 -305 134 -305 257c0 115 48 211 173 273c-38 39 -82 84 -164 140l16 126c56 20 138 40 229 40c157 0 225 -57 225 -151c0 -71 -35 -124 -108 -169c30 -9 70 -12 144 -12h48l9 -72l-20 -63h-65
c-83 0 -157 23 -236 87c-109 -54 -150 -109 -150 -178c0 -80 64 -141 212 -141zM158 328c45 -30 92 -69 155 -123c68 30 97 56 97 91c0 32 -32 49 -122 49c-46 0 -95 -8 -130 -17z" />
    <glyph glyph-name="uniFECC" unicode="&#x639;" horiz-adv-x="609" arabic-form="medial" 
d="M620 135l9 -73l-20 -62h-46c-90 0 -163 19 -232 70c-82 -42 -181 -70 -284 -70h-47l-20 63l31 72h19c77 0 146 10 204 26c-38 41 -81 85 -163 139l16 126c55 21 138 41 226 41c155 0 224 -57 224 -151c0 -57 -35 -117 -93 -169c35 -10 78 -12 139 -12h37zM189 328
c46 -31 93 -71 157 -125c59 30 92 65 92 92c0 32 -33 50 -120 50c-46 0 -94 -8 -129 -17z" />
    <glyph glyph-name="uniFECB" unicode="&#x639;" horiz-adv-x="566" arabic-form="initial" 
d="M539 188l14 -135c-188 -48 -295 -53 -406 -53h-147l-20 61l31 74h110h25c-53 49 -79 106 -79 158c0 95 80 192 237 192c41 0 104 -7 166 -40l-53 -123c-41 21 -83 30 -113 30c-84 0 -118 -41 -118 -84c0 -30 11 -78 89 -129c76 6 142 20 264 49z" />
    <glyph glyph-name="uni06A0.init" unicode="&#x6a0;" horiz-adv-x="566" 
d="M304 687c-31 0 -57 26 -57 58s26 58 57 58s57 -26 57 -58s-26 -58 -57 -58zM217 556c-33 0 -59 26 -59 57c0 33 26 59 59 59c30 0 57 -26 57 -59c0 -31 -27 -57 -57 -57zM334 613c0 33 27 59 57 59c33 0 59 -26 59 -59c0 -31 -26 -57 -59 -57c-30 0 -57 26 -57 57z
M539 188l14 -135c-188 -48 -295 -53 -406 -53h-147l-20 61l31 74h110h25c-53 49 -79 106 -79 158c0 95 80 192 237 192c41 0 104 -7 166 -40l-53 -123c-41 21 -83 30 -113 30c-84 0 -118 -41 -118 -84c0 -30 11 -78 89 -129c76 6 142 20 264 49z" />
    <glyph glyph-name="uni06A0.medi" unicode="&#x6a0;" horiz-adv-x="609" 
d="M312 675c-31 0 -57 26 -57 58s26 58 57 58s57 -26 57 -58s-26 -58 -57 -58zM225 544c-33 0 -59 26 -59 57c0 33 26 59 59 59c30 0 57 -26 57 -59c0 -31 -27 -57 -57 -57zM342 601c0 33 27 59 57 59c33 0 59 -26 59 -59c0 -31 -26 -57 -59 -57c-30 0 -57 26 -57 57z
M620 135l9 -73l-20 -62h-46c-90 0 -163 19 -232 70c-82 -42 -181 -70 -284 -70h-47l-20 63l31 72h19c77 0 146 10 204 26c-38 41 -81 85 -163 139l16 126c55 21 138 41 226 41c155 0 224 -57 224 -151c0 -57 -35 -117 -93 -169c35 -10 78 -12 139 -12h37zM189 328
c46 -31 93 -71 157 -125c59 30 92 65 92 92c0 32 -33 50 -120 50c-46 0 -94 -8 -129 -17z" />
    <glyph glyph-name="uni06A0.fina" unicode="&#x6a0;" horiz-adv-x="582" 
d="M297 675c-31 0 -57 26 -57 58s26 58 57 58s57 -26 57 -58s-26 -58 -57 -58zM210 544c-33 0 -59 26 -59 57c0 33 26 59 59 59c30 0 57 -26 57 -59c0 -31 -27 -57 -57 -57zM327 601c0 33 27 59 57 59c33 0 59 -26 59 -59c0 -31 -26 -57 -59 -57c-30 0 -57 26 -57 57z
M343 -232c88 0 157 17 210 45l48 -118c-59 -38 -148 -64 -266 -64c-223 0 -305 134 -305 257c0 115 48 211 173 273c-38 39 -82 84 -164 140l16 126c56 20 138 40 229 40c157 0 225 -57 225 -151c0 -71 -35 -124 -108 -169c30 -9 70 -12 144 -12h48l9 -72l-20 -63h-65
c-83 0 -157 23 -236 87c-109 -54 -150 -109 -150 -178c0 -80 64 -141 212 -141zM158 328c45 -30 92 -69 155 -123c68 30 97 56 97 91c0 32 -32 49 -122 49c-46 0 -95 -8 -130 -17z" />
    <glyph glyph-name="uniFECE" unicode="&#x63a;" horiz-adv-x="582" arabic-form="final" 
d="M295 541c-37 0 -65 29 -65 65c0 37 28 66 65 66s65 -29 65 -66c0 -36 -28 -65 -65 -65zM343 -232c88 0 157 17 210 45l48 -118c-59 -38 -148 -64 -266 -64c-223 0 -305 134 -305 257c0 115 48 211 173 273c-38 39 -82 84 -164 140l16 126c56 20 138 40 229 40
c157 0 225 -57 225 -151c0 -71 -35 -124 -108 -169c30 -9 70 -12 144 -12h48l9 -72l-20 -63h-65c-83 0 -157 23 -236 87c-109 -54 -150 -109 -150 -178c0 -80 64 -141 212 -141zM158 328c45 -30 92 -69 155 -123c68 30 97 56 97 91c0 32 -32 49 -122 49
c-46 0 -95 -8 -130 -17z" />
    <glyph glyph-name="uniFED0" unicode="&#x63a;" horiz-adv-x="609" arabic-form="medial" 
d="M311 541c-37 0 -65 29 -65 65c0 37 28 66 65 66s65 -29 65 -66c0 -36 -28 -65 -65 -65zM620 135l9 -73l-20 -62h-46c-90 0 -163 19 -232 70c-82 -42 -181 -70 -284 -70h-47l-20 63l31 72h19c77 0 146 10 204 26c-38 41 -81 85 -163 139l16 126c55 21 138 41 226 41
c155 0 224 -57 224 -151c0 -57 -35 -117 -93 -169c35 -10 78 -12 139 -12h37zM189 328c46 -31 93 -71 157 -125c59 30 92 65 92 92c0 32 -33 50 -120 50c-46 0 -94 -8 -129 -17z" />
    <glyph glyph-name="uniFECF" unicode="&#x63a;" horiz-adv-x="566" arabic-form="initial" 
d="M303 553c-37 0 -65 29 -65 65c0 37 28 66 65 66s65 -29 65 -66c0 -36 -28 -65 -65 -65zM539 188l14 -135c-188 -48 -295 -53 -406 -53h-147l-20 61l31 74h110h25c-53 49 -79 106 -79 158c0 95 80 192 237 192c41 0 104 -7 166 -40l-53 -123c-41 21 -83 30 -113 30
c-84 0 -118 -41 -118 -84c0 -30 11 -78 89 -129c76 6 142 20 264 49z" />
    <glyph glyph-name="uni06FC.init" unicode="&#x6fc;" horiz-adv-x="566" 
d="M303 553c-37 0 -65 29 -65 65c0 37 28 66 65 66s65 -29 65 -66c0 -36 -28 -65 -65 -65zM539 188l14 -135c-188 -48 -295 -53 -406 -53h-147l-20 61l31 74h110h25c-53 49 -79 106 -79 158c0 95 80 192 237 192c41 0 104 -7 166 -40l-53 -123c-41 21 -83 30 -113 30
c-84 0 -118 -41 -118 -84c0 -30 11 -78 89 -129c76 6 142 20 264 49zM260 -86c37 0 65 -29 65 -66c0 -36 -28 -65 -65 -65s-65 29 -65 65c0 37 28 66 65 66z" />
    <glyph glyph-name="uni06FC.medi" unicode="&#x6fc;" horiz-adv-x="609" 
d="M311 541c-37 0 -65 29 -65 65c0 37 28 66 65 66s65 -29 65 -66c0 -36 -28 -65 -65 -65zM620 135l9 -73l-20 -62h-46c-90 0 -163 19 -232 70c-82 -42 -181 -70 -284 -70h-47l-20 63l31 72h19c77 0 146 10 204 26c-38 41 -81 85 -163 139l16 126c55 21 138 41 226 41
c155 0 224 -57 224 -151c0 -57 -35 -117 -93 -169c35 -10 78 -12 139 -12h37zM189 328c46 -31 93 -71 157 -125c59 30 92 65 92 92c0 32 -33 50 -120 50c-46 0 -94 -8 -129 -17zM332 -86c37 0 65 -29 65 -66c0 -36 -28 -65 -65 -65s-65 29 -65 65c0 37 28 66 65 66z" />
    <glyph glyph-name="uni06FC.fina" unicode="&#x6fc;" horiz-adv-x="582" 
d="M295 541c-37 0 -65 29 -65 65c0 37 28 66 65 66s65 -29 65 -66c0 -36 -28 -65 -65 -65zM343 -232c88 0 157 17 210 45l48 -118c-59 -38 -148 -64 -266 -64c-223 0 -305 134 -305 257c0 115 48 211 173 273c-38 39 -82 84 -164 140l16 126c56 20 138 40 229 40
c157 0 225 -57 225 -151c0 -71 -35 -124 -108 -169c30 -9 70 -12 144 -12h48l9 -72l-20 -63h-65c-83 0 -157 23 -236 87c-109 -54 -150 -109 -150 -178c0 -80 64 -141 212 -141zM158 328c45 -30 92 -69 155 -123c68 30 97 56 97 91c0 32 -32 49 -122 49
c-46 0 -95 -8 -130 -17zM252 -80c0 37 28 66 65 66s65 -29 65 -66c0 -36 -28 -65 -65 -65s-65 29 -65 65z" />
    <glyph glyph-name="uniFED2" unicode="&#x641;" horiz-adv-x="975" arabic-form="final" 
d="M711 571c-37 0 -65 29 -65 65c0 37 28 66 65 66s65 -29 65 -66c0 -36 -28 -65 -65 -65zM985 135l10 -73l-21 -62h-53c-69 0 -144 19 -209 51c-74 -34 -171 -59 -296 -66l-1 -2h-43h-36l-1 2c-235 10 -295 71 -295 212c0 52 15 112 39 162l86 -27
c-10 -39 -17 -74 -17 -106c0 -75 43 -105 240 -108c83 2 152 6 208 15c-45 47 -74 103 -74 165c0 114 87 206 190 206c116 0 194 -90 194 -205c0 -52 -21 -109 -70 -161c22 -2 44 -3 66 -3h83zM623 283c0 -57 36 -95 92 -118c61 27 88 67 88 119s-39 92 -89 92
c-52 0 -91 -41 -91 -93z" />
    <glyph glyph-name="uniFED4" unicode="&#x641;" horiz-adv-x="531" arabic-form="medial" 
d="M267 574c-37 0 -65 29 -65 65c0 37 28 66 65 66s65 -29 65 -66c0 -36 -28 -65 -65 -65zM541 135l10 -73l-20 -62h-73c-60 0 -128 18 -189 49c-60 -30 -131 -49 -210 -49h-59l-20 62l31 73h62c27 0 52 1 76 3c-43 47 -71 103 -71 164c0 114 88 205 190 205
c116 0 195 -89 195 -204c0 -54 -27 -112 -73 -163c30 -4 62 -5 97 -5h54zM179 284c0 -56 34 -95 94 -118c54 23 87 61 87 120c0 52 -40 92 -90 92c-52 0 -91 -42 -91 -94z" />
    <glyph glyph-name="uniFED3" unicode="&#x641;" horiz-adv-x="476" arabic-form="initial" 
d="M220 664c-37 0 -65 29 -65 65c0 37 28 66 65 66s65 -29 65 -66c0 -36 -28 -65 -65 -65zM221 596c108 0 205 -96 205 -301c0 -242 -119 -295 -426 -295l-20 63l31 72c245 0 301 27 312 92c-23 -17 -59 -28 -110 -28c-108 0 -185 70 -185 183c0 123 88 214 193 214z
M127 394c0 -54 37 -87 117 -87c29 0 58 6 80 13c-10 113 -50 155 -106 155c-53 0 -91 -33 -91 -81z" />
    <glyph glyph-name="uniFB6B" unicode="&#x6a4;" horiz-adv-x="975" arabic-form="final" 
d="M712 705c-31 0 -57 26 -57 58s26 58 57 58s57 -26 57 -58s-26 -58 -57 -58zM625 574c-33 0 -59 26 -59 57c0 33 26 59 59 59c30 0 57 -26 57 -59c0 -31 -27 -57 -57 -57zM742 631c0 33 27 59 57 59c33 0 59 -26 59 -59c0 -31 -26 -57 -59 -57c-30 0 -57 26 -57 57z
M985 135l10 -73l-21 -62h-53c-69 0 -144 19 -209 51c-74 -34 -171 -59 -296 -66l-1 -2h-43h-36l-1 2c-235 10 -295 71 -295 212c0 52 15 112 39 162l86 -27c-10 -39 -17 -74 -17 -106c0 -75 43 -105 240 -108c83 2 152 6 208 15c-45 47 -74 103 -74 165
c0 114 87 206 190 206c116 0 194 -90 194 -205c0 -52 -21 -109 -70 -161c22 -2 44 -3 66 -3h83zM623 283c0 -57 36 -95 92 -118c61 27 88 67 88 119s-39 92 -89 92c-52 0 -91 -41 -91 -93z" />
    <glyph glyph-name="uniFB6D" unicode="&#x6a4;" horiz-adv-x="531" arabic-form="medial" 
d="M268 708c-31 0 -57 26 -57 58s26 58 57 58s57 -26 57 -58s-26 -58 -57 -58zM181 577c-33 0 -59 26 -59 57c0 33 26 59 59 59c30 0 57 -26 57 -59c0 -31 -27 -57 -57 -57zM298 634c0 33 27 59 57 59c33 0 59 -26 59 -59c0 -31 -26 -57 -59 -57c-30 0 -57 26 -57 57z
M541 135l10 -73l-20 -62h-73c-60 0 -128 18 -189 49c-60 -30 -131 -49 -210 -49h-59l-20 62l31 73h62c27 0 52 1 76 3c-43 47 -71 103 -71 164c0 114 88 205 190 205c116 0 195 -89 195 -204c0 -54 -27 -112 -73 -163c30 -4 62 -5 97 -5h54zM179 284c0 -56 34 -95 94 -118
c54 23 87 61 87 120c0 52 -40 92 -90 92c-52 0 -91 -42 -91 -94z" />
    <glyph glyph-name="uniFB6C" unicode="&#x6a4;" horiz-adv-x="476" arabic-form="initial" 
d="M221 798c-31 0 -57 26 -57 58s26 58 57 58s57 -26 57 -58s-26 -58 -57 -58zM134 667c-33 0 -59 26 -59 57c0 33 26 59 59 59c30 0 57 -26 57 -59c0 -31 -27 -57 -57 -57zM251 724c0 33 27 59 57 59c33 0 59 -26 59 -59c0 -31 -26 -57 -59 -57c-30 0 -57 26 -57 57z
M221 596c108 0 205 -96 205 -301c0 -242 -119 -295 -426 -295l-20 63l31 72c245 0 301 27 312 92c-23 -17 -59 -28 -110 -28c-108 0 -185 70 -185 183c0 123 88 214 193 214zM127 394c0 -54 37 -87 117 -87c29 0 58 6 80 13c-10 113 -50 155 -106 155c-53 0 -91 -33 -91 -81
z" />
    <glyph glyph-name="uni06A1.init" unicode="&#x6a1;" horiz-adv-x="476" 
d="M221 596c108 0 205 -96 205 -301c0 -242 -119 -295 -426 -295l-20 63l31 72c245 0 301 27 312 92c-23 -17 -59 -28 -110 -28c-108 0 -185 70 -185 183c0 123 88 214 193 214zM127 394c0 -54 37 -87 117 -87c29 0 58 6 80 13c-10 113 -50 155 -106 155
c-53 0 -91 -33 -91 -81z" />
    <glyph glyph-name="uni06A1.medi" unicode="&#x6a1;" horiz-adv-x="531" 
d="M541 135l10 -73l-20 -62h-73c-60 0 -128 18 -189 49c-60 -30 -131 -49 -210 -49h-59l-20 62l31 73h62c27 0 52 1 76 3c-43 47 -71 103 -71 164c0 114 88 205 190 205c116 0 195 -89 195 -204c0 -54 -27 -112 -73 -163c30 -4 62 -5 97 -5h54zM179 284
c0 -56 34 -95 94 -118c54 23 87 61 87 120c0 52 -40 92 -90 92c-52 0 -91 -42 -91 -94z" />
    <glyph glyph-name="uni06A1.fina" unicode="&#x6a1;" horiz-adv-x="975" 
d="M985 135l10 -73l-21 -62h-53c-69 0 -144 19 -209 51c-74 -34 -171 -59 -296 -66l-1 -2h-43h-36l-1 2c-235 10 -295 71 -295 212c0 52 15 112 39 162l86 -27c-10 -39 -17 -74 -17 -106c0 -75 43 -105 240 -108c83 2 152 6 208 15c-45 47 -74 103 -74 165
c0 114 87 206 190 206c116 0 194 -90 194 -205c0 -52 -21 -109 -70 -161c22 -2 44 -3 66 -3h83zM623 283c0 -57 36 -95 92 -118c61 27 88 67 88 119s-39 92 -89 92c-52 0 -91 -41 -91 -93z" />
    <glyph glyph-name="uni06A2.init" unicode="&#x6a2;" horiz-adv-x="476" 
d="M221 596c108 0 205 -96 205 -301c0 -242 -119 -295 -426 -295l-20 63l31 72c245 0 301 27 312 92c-23 -17 -59 -28 -110 -28c-108 0 -185 70 -185 183c0 123 88 214 193 214zM127 394c0 -54 37 -87 117 -87c29 0 58 6 80 13c-10 113 -50 155 -106 155
c-53 0 -91 -33 -91 -81zM210 -86c37 0 65 -29 65 -66c0 -36 -28 -65 -65 -65s-65 29 -65 65c0 37 28 66 65 66z" />
    <glyph glyph-name="uni06A2.medi" unicode="&#x6a2;" horiz-adv-x="531" 
d="M541 135l10 -73l-20 -62h-73c-60 0 -128 18 -189 49c-60 -30 -131 -49 -210 -49h-59l-20 62l31 73h62c27 0 52 1 76 3c-43 47 -71 103 -71 164c0 114 88 205 190 205c116 0 195 -89 195 -204c0 -54 -27 -112 -73 -163c30 -4 62 -5 97 -5h54zM179 284
c0 -56 34 -95 94 -118c54 23 87 61 87 120c0 52 -40 92 -90 92c-52 0 -91 -42 -91 -94zM270 -86c37 0 65 -29 65 -66c0 -36 -28 -65 -65 -65s-65 29 -65 65c0 37 28 66 65 66z" />
    <glyph glyph-name="uni06A2.fina" unicode="&#x6a2;" horiz-adv-x="975" 
d="M985 135l10 -73l-21 -62h-53c-69 0 -144 19 -209 51c-74 -34 -171 -59 -296 -66l-1 -2h-43h-36l-1 2c-235 10 -295 71 -295 212c0 52 15 112 39 162l86 -27c-10 -39 -17 -74 -17 -106c0 -75 43 -105 240 -108c83 2 152 6 208 15c-45 47 -74 103 -74 165
c0 114 87 206 190 206c116 0 194 -90 194 -205c0 -52 -21 -109 -70 -161c22 -2 44 -3 66 -3h83zM623 283c0 -57 36 -95 92 -118c61 27 88 67 88 119s-39 92 -89 92c-52 0 -91 -41 -91 -93zM715 -86c37 0 65 -29 65 -66c0 -36 -28 -65 -65 -65s-65 29 -65 65
c0 37 28 66 65 66z" />
    <glyph glyph-name="uni06A3.init" unicode="&#x6a3;" horiz-adv-x="476" 
d="M220 664c-37 0 -65 29 -65 65c0 37 28 66 65 66s65 -29 65 -66c0 -36 -28 -65 -65 -65zM221 596c108 0 205 -96 205 -301c0 -242 -119 -295 -426 -295l-20 63l31 72c245 0 301 27 312 92c-23 -17 -59 -28 -110 -28c-108 0 -185 70 -185 183c0 123 88 214 193 214z
M127 394c0 -54 37 -87 117 -87c29 0 58 6 80 13c-10 113 -50 155 -106 155c-53 0 -91 -33 -91 -81zM204 -86c37 0 65 -29 65 -66c0 -36 -28 -65 -65 -65s-65 29 -65 65c0 37 28 66 65 66z" />
    <glyph glyph-name="uni06A3.medi" unicode="&#x6a3;" horiz-adv-x="531" 
d="M267 574c-37 0 -65 29 -65 65c0 37 28 66 65 66s65 -29 65 -66c0 -36 -28 -65 -65 -65zM541 135l10 -73l-20 -62h-73c-60 0 -128 18 -189 49c-60 -30 -131 -49 -210 -49h-59l-20 62l31 73h62c27 0 52 1 76 3c-43 47 -71 103 -71 164c0 114 88 205 190 205
c116 0 195 -89 195 -204c0 -54 -27 -112 -73 -163c30 -4 62 -5 97 -5h54zM179 284c0 -56 34 -95 94 -118c54 23 87 61 87 120c0 52 -40 92 -90 92c-52 0 -91 -42 -91 -94zM266 -86c37 0 65 -29 65 -66c0 -36 -28 -65 -65 -65s-65 29 -65 65c0 37 28 66 65 66z" />
    <glyph glyph-name="uni06A3.fina" unicode="&#x6a3;" horiz-adv-x="975" 
d="M711 571c-37 0 -65 29 -65 65c0 37 28 66 65 66s65 -29 65 -66c0 -36 -28 -65 -65 -65zM985 135l10 -73l-21 -62h-53c-69 0 -144 19 -209 51c-74 -34 -171 -59 -296 -66l-1 -2h-43h-36l-1 2c-235 10 -295 71 -295 212c0 52 15 112 39 162l86 -27
c-10 -39 -17 -74 -17 -106c0 -75 43 -105 240 -108c83 2 152 6 208 15c-45 47 -74 103 -74 165c0 114 87 206 190 206c116 0 194 -90 194 -205c0 -52 -21 -109 -70 -161c22 -2 44 -3 66 -3h83zM623 283c0 -57 36 -95 92 -118c61 27 88 67 88 119s-39 92 -89 92
c-52 0 -91 -41 -91 -93zM711 -86c37 0 65 -29 65 -66c0 -36 -28 -65 -65 -65s-65 29 -65 65c0 37 28 66 65 66z" />
    <glyph glyph-name="uni06A5.init" unicode="&#x6a5;" horiz-adv-x="476" 
d="M221 596c108 0 205 -96 205 -301c0 -242 -119 -295 -426 -295l-20 63l31 72c245 0 301 27 312 92c-23 -17 -59 -28 -110 -28c-108 0 -185 70 -185 183c0 123 88 214 193 214zM127 394c0 -54 37 -87 117 -87c29 0 58 6 80 13c-10 113 -50 155 -106 155
c-53 0 -91 -33 -91 -81zM180 -146c0 -33 -27 -58 -57 -58c-33 0 -59 25 -59 58c0 31 26 57 59 57c30 0 57 -26 57 -57zM297 -89c33 0 59 -26 59 -57c0 -33 -26 -58 -59 -58c-30 0 -57 25 -57 58c0 31 27 57 57 57zM210 -220c31 0 57 -26 57 -58s-26 -57 -57 -57
s-57 25 -57 57s26 58 57 58z" />
    <glyph glyph-name="uni06A5.medi" unicode="&#x6a5;" horiz-adv-x="531" 
d="M541 135l10 -73l-20 -62h-73c-60 0 -128 18 -189 49c-60 -30 -131 -49 -210 -49h-59l-20 62l31 73h62c27 0 52 1 76 3c-43 47 -71 103 -71 164c0 114 88 205 190 205c116 0 195 -89 195 -204c0 -54 -27 -112 -73 -163c30 -4 62 -5 97 -5h54zM179 284
c0 -56 34 -95 94 -118c54 23 87 61 87 120c0 52 -40 92 -90 92c-52 0 -91 -42 -91 -94zM240 -146c0 -33 -27 -58 -57 -58c-33 0 -59 25 -59 58c0 31 26 57 59 57c30 0 57 -26 57 -57zM357 -89c33 0 59 -26 59 -57c0 -33 -26 -58 -59 -58c-30 0 -57 25 -57 58
c0 31 27 57 57 57zM270 -220c31 0 57 -26 57 -58s-26 -57 -57 -57s-57 25 -57 57s26 58 57 58z" />
    <glyph glyph-name="uni06A5.fina" unicode="&#x6a5;" horiz-adv-x="975" 
d="M985 135l10 -73l-21 -62h-53c-69 0 -144 19 -209 51c-74 -34 -171 -59 -296 -66l-1 -2h-43h-36l-1 2c-235 10 -295 71 -295 212c0 52 15 112 39 162l86 -27c-10 -39 -17 -74 -17 -106c0 -75 43 -105 240 -108c83 2 152 6 208 15c-45 47 -74 103 -74 165
c0 114 87 206 190 206c116 0 194 -90 194 -205c0 -52 -21 -109 -70 -161c22 -2 44 -3 66 -3h83zM623 283c0 -57 36 -95 92 -118c61 27 88 67 88 119s-39 92 -89 92c-52 0 -91 -41 -91 -93zM685 -146c0 -33 -27 -58 -57 -58c-33 0 -59 25 -59 58c0 31 26 57 59 57
c30 0 57 -26 57 -57zM802 -89c33 0 59 -26 59 -57c0 -33 -26 -58 -59 -58c-30 0 -57 25 -57 58c0 31 27 57 57 57zM715 -220c31 0 57 -26 57 -58s-26 -57 -57 -57s-57 25 -57 57s26 58 57 58z" />
    <glyph glyph-name="uniFB6F" unicode="&#x6a6;" horiz-adv-x="975" arabic-form="final" 
d="M639 700c-31 0 -56 25 -56 54c0 33 25 56 56 56c30 0 55 -23 55 -56c0 -29 -25 -54 -55 -54zM786 700c-30 0 -55 25 -55 54c0 33 25 56 55 56c31 0 56 -23 56 -56c0 -29 -25 -54 -56 -54zM639 558c-31 0 -56 24 -56 55s25 56 56 56c30 0 55 -25 55 -56s-25 -55 -55 -55z
M786 558c-30 0 -55 24 -55 55s25 56 55 56c31 0 56 -25 56 -56s-25 -55 -56 -55zM985 135l10 -73l-21 -62h-53c-69 0 -144 19 -209 51c-74 -34 -171 -59 -296 -66l-1 -2h-43h-36l-1 2c-235 10 -295 71 -295 212c0 52 15 112 39 162l86 -27c-10 -39 -17 -74 -17 -106
c0 -75 43 -105 240 -108c83 2 152 6 208 15c-45 47 -74 103 -74 165c0 114 87 206 190 206c116 0 194 -90 194 -205c0 -52 -21 -109 -70 -161c22 -2 44 -3 66 -3h83zM623 283c0 -57 36 -95 92 -118c61 27 88 67 88 119s-39 92 -89 92c-52 0 -91 -41 -91 -93z" />
    <glyph glyph-name="uniFB71" unicode="&#x6a6;" horiz-adv-x="531" arabic-form="medial" 
d="M196 703c-31 0 -56 25 -56 54c0 33 25 56 56 56c30 0 55 -23 55 -56c0 -29 -25 -54 -55 -54zM343 703c-30 0 -55 25 -55 54c0 33 25 56 55 56c31 0 56 -23 56 -56c0 -29 -25 -54 -56 -54zM196 561c-31 0 -56 24 -56 55s25 56 56 56c30 0 55 -25 55 -56s-25 -55 -55 -55z
M343 561c-30 0 -55 24 -55 55s25 56 55 56c31 0 56 -25 56 -56s-25 -55 -56 -55zM541 135l10 -73l-20 -62h-73c-60 0 -128 18 -189 49c-60 -30 -131 -49 -210 -49h-59l-20 62l31 73h62c27 0 52 1 76 3c-43 47 -71 103 -71 164c0 114 88 205 190 205c116 0 195 -89 195 -204
c0 -54 -27 -112 -73 -163c30 -4 62 -5 97 -5h54zM179 284c0 -56 34 -95 94 -118c54 23 87 61 87 120c0 52 -40 92 -90 92c-52 0 -91 -42 -91 -94z" />
    <glyph glyph-name="uniFB70" unicode="&#x6a6;" horiz-adv-x="476" arabic-form="initial" 
d="M148 793c-31 0 -56 25 -56 54c0 33 25 56 56 56c30 0 55 -23 55 -56c0 -29 -25 -54 -55 -54zM295 793c-30 0 -55 25 -55 54c0 33 25 56 55 56c31 0 56 -23 56 -56c0 -29 -25 -54 -56 -54zM148 651c-31 0 -56 24 -56 55s25 56 56 56c30 0 55 -25 55 -56s-25 -55 -55 -55z
M295 651c-30 0 -55 24 -55 55s25 56 55 56c31 0 56 -25 56 -56s-25 -55 -56 -55zM221 596c108 0 205 -96 205 -301c0 -242 -119 -295 -426 -295l-20 63l31 72c245 0 301 27 312 92c-23 -17 -59 -28 -110 -28c-108 0 -185 70 -185 183c0 123 88 214 193 214zM127 394
c0 -54 37 -87 117 -87c29 0 58 6 80 13c-10 113 -50 155 -106 155c-53 0 -91 -33 -91 -81z" />
    <glyph glyph-name="uni066F.init" unicode="&#x66f;" horiz-adv-x="476" 
d="M221 596c108 0 205 -96 205 -301c0 -242 -119 -295 -426 -295l-20 63l31 72c245 0 301 27 312 92c-23 -17 -59 -28 -110 -28c-108 0 -185 70 -185 183c0 123 88 214 193 214zM127 394c0 -54 37 -87 117 -87c29 0 58 6 80 13c-10 113 -50 155 -106 155
c-53 0 -91 -33 -91 -81z" />
    <glyph glyph-name="uni066F.medi" unicode="&#x66f;" horiz-adv-x="531" 
d="M541 135l10 -73l-20 -62h-73c-60 0 -128 18 -189 49c-60 -30 -131 -49 -210 -49h-59l-20 62l31 73h62c27 0 52 1 76 3c-43 47 -71 103 -71 164c0 114 88 205 190 205c116 0 195 -89 195 -204c0 -54 -27 -112 -73 -163c30 -4 62 -5 97 -5h54zM179 284
c0 -56 34 -95 94 -118c54 23 87 61 87 120c0 52 -40 92 -90 92c-52 0 -91 -42 -91 -94z" />
    <glyph glyph-name="uni066F.fina" unicode="&#x66f;" horiz-adv-x="811" 
d="M831 61l-20 -61h-95c-26 -175 -130 -262 -342 -262c-236 0 -334 90 -334 260c0 87 29 158 52 201l87 -25c-12 -32 -26 -86 -26 -154c0 -94 55 -147 233 -147c153 0 210 59 229 127h-54c-164 0 -235 75 -235 187c0 124 88 215 193 215c102 0 193 -85 203 -267h100z
M542 124c27 0 53 1 80 5c-11 111 -52 152 -106 152c-53 0 -91 -33 -91 -82c0 -53 37 -75 117 -75z" />
    <glyph glyph-name="uniFED6" unicode="&#x642;" horiz-adv-x="811" arabic-form="final" 
d="M437 482c-32 0 -60 27 -60 61s28 60 60 60c33 0 61 -26 61 -60s-28 -61 -61 -61zM600 482c-33 0 -60 27 -60 61s27 60 60 60s60 -26 60 -60s-27 -61 -60 -61zM831 61l-20 -61h-95c-26 -175 -130 -262 -342 -262c-236 0 -334 90 -334 260c0 87 29 158 52 201l87 -25
c-12 -32 -26 -86 -26 -154c0 -94 55 -147 233 -147c153 0 210 59 229 127h-54c-164 0 -235 75 -235 187c0 124 88 215 193 215c102 0 193 -85 203 -267h100zM542 124c27 0 53 1 80 5c-11 111 -52 152 -106 152c-53 0 -91 -33 -91 -82c0 -53 37 -75 117 -75z" />
    <glyph glyph-name="uniFED8" unicode="&#x642;" horiz-adv-x="531" arabic-form="medial" 
d="M187 587c-32 0 -60 27 -60 61s28 60 60 60c33 0 61 -26 61 -60s-28 -61 -61 -61zM350 587c-33 0 -60 27 -60 61s27 60 60 60s60 -26 60 -60s-27 -61 -60 -61zM541 135l10 -73l-20 -62h-73c-60 0 -128 18 -189 49c-60 -30 -131 -49 -210 -49h-59l-20 62l31 73h62
c27 0 52 1 76 3c-43 47 -71 103 -71 164c0 114 88 205 190 205c116 0 195 -89 195 -204c0 -54 -27 -112 -73 -163c30 -4 62 -5 97 -5h54zM179 284c0 -56 34 -95 94 -118c54 23 87 61 87 120c0 52 -40 92 -90 92c-52 0 -91 -42 -91 -94z" />
    <glyph glyph-name="uniFED7" unicode="&#x642;" horiz-adv-x="476" arabic-form="initial" 
d="M139 677c-32 0 -60 27 -60 61s28 60 60 60c33 0 61 -26 61 -60s-28 -61 -61 -61zM302 677c-33 0 -60 27 -60 61s27 60 60 60s60 -26 60 -60s-27 -61 -60 -61zM221 596c108 0 205 -96 205 -301c0 -242 -119 -295 -426 -295l-20 63l31 72c245 0 301 27 312 92
c-23 -17 -59 -28 -110 -28c-108 0 -185 70 -185 183c0 123 88 214 193 214zM127 394c0 -54 37 -87 117 -87c29 0 58 6 80 13c-10 113 -50 155 -106 155c-53 0 -91 -33 -91 -81z" />
    <glyph glyph-name="uni06A7.init" unicode="&#x6a7;" horiz-adv-x="476" 
d="M220 664c-37 0 -65 29 -65 65c0 37 28 66 65 66s65 -29 65 -66c0 -36 -28 -65 -65 -65zM221 596c108 0 205 -96 205 -301c0 -242 -119 -295 -426 -295l-20 63l31 72c245 0 301 27 312 92c-23 -17 -59 -28 -110 -28c-108 0 -185 70 -185 183c0 123 88 214 193 214z
M127 394c0 -54 37 -87 117 -87c29 0 58 6 80 13c-10 113 -50 155 -106 155c-53 0 -91 -33 -91 -81z" />
    <glyph glyph-name="uni06A7.medi" unicode="&#x6a7;" horiz-adv-x="531" 
d="M267 574c-37 0 -65 29 -65 65c0 37 28 66 65 66s65 -29 65 -66c0 -36 -28 -65 -65 -65zM541 135l10 -73l-20 -62h-73c-60 0 -128 18 -189 49c-60 -30 -131 -49 -210 -49h-59l-20 62l31 73h62c27 0 52 1 76 3c-43 47 -71 103 -71 164c0 114 88 205 190 205
c116 0 195 -89 195 -204c0 -54 -27 -112 -73 -163c30 -4 62 -5 97 -5h54zM179 284c0 -56 34 -95 94 -118c54 23 87 61 87 120c0 52 -40 92 -90 92c-52 0 -91 -42 -91 -94z" />
    <glyph glyph-name="uni06A7.fina" unicode="&#x6a7;" horiz-adv-x="811" 
d="M517 469c-37 0 -65 29 -65 65c0 37 28 66 65 66s65 -29 65 -66c0 -36 -28 -65 -65 -65zM831 61l-20 -61h-95c-26 -175 -130 -262 -342 -262c-236 0 -334 90 -334 260c0 87 29 158 52 201l87 -25c-12 -32 -26 -86 -26 -154c0 -94 55 -147 233 -147c153 0 210 59 229 127
h-54c-164 0 -235 75 -235 187c0 124 88 215 193 215c102 0 193 -85 203 -267h100zM542 124c27 0 53 1 80 5c-11 111 -52 152 -106 152c-53 0 -91 -33 -91 -82c0 -53 37 -75 117 -75z" />
    <glyph glyph-name="uni06A8.init" unicode="&#x6a8;" horiz-adv-x="476" 
d="M221 798c-31 0 -57 26 -57 58s26 58 57 58s57 -26 57 -58s-26 -58 -57 -58zM134 667c-33 0 -59 26 -59 57c0 33 26 59 59 59c30 0 57 -26 57 -59c0 -31 -27 -57 -57 -57zM251 724c0 33 27 59 57 59c33 0 59 -26 59 -59c0 -31 -26 -57 -59 -57c-30 0 -57 26 -57 57z
M221 596c108 0 205 -96 205 -301c0 -242 -119 -295 -426 -295l-20 63l31 72c245 0 301 27 312 92c-23 -17 -59 -28 -110 -28c-108 0 -185 70 -185 183c0 123 88 214 193 214zM127 394c0 -54 37 -87 117 -87c29 0 58 6 80 13c-10 113 -50 155 -106 155c-53 0 -91 -33 -91 -81
z" />
    <glyph glyph-name="uni06A8.medi" unicode="&#x6a8;" horiz-adv-x="531" 
d="M268 708c-31 0 -57 26 -57 58s26 58 57 58s57 -26 57 -58s-26 -58 -57 -58zM181 577c-33 0 -59 26 -59 57c0 33 26 59 59 59c30 0 57 -26 57 -59c0 -31 -27 -57 -57 -57zM298 634c0 33 27 59 57 59c33 0 59 -26 59 -59c0 -31 -26 -57 -59 -57c-30 0 -57 26 -57 57z
M541 135l10 -73l-20 -62h-73c-60 0 -128 18 -189 49c-60 -30 -131 -49 -210 -49h-59l-20 62l31 73h62c27 0 52 1 76 3c-43 47 -71 103 -71 164c0 114 88 205 190 205c116 0 195 -89 195 -204c0 -54 -27 -112 -73 -163c30 -4 62 -5 97 -5h54zM179 284c0 -56 34 -95 94 -118
c54 23 87 61 87 120c0 52 -40 92 -90 92c-52 0 -91 -42 -91 -94z" />
    <glyph glyph-name="uni06A8.fina" unicode="&#x6a8;" horiz-adv-x="811" 
d="M519 603c-31 0 -57 26 -57 58s26 58 57 58s57 -26 57 -58s-26 -58 -57 -58zM432 472c-33 0 -59 26 -59 57c0 33 26 59 59 59c30 0 57 -26 57 -59c0 -31 -27 -57 -57 -57zM549 529c0 33 27 59 57 59c33 0 59 -26 59 -59c0 -31 -26 -57 -59 -57c-30 0 -57 26 -57 57z
M831 61l-20 -61h-95c-26 -175 -130 -262 -342 -262c-236 0 -334 90 -334 260c0 87 29 158 52 201l87 -25c-12 -32 -26 -86 -26 -154c0 -94 55 -147 233 -147c153 0 210 59 229 127h-54c-164 0 -235 75 -235 187c0 124 88 215 193 215c102 0 193 -85 203 -267h100zM542 124
c27 0 53 1 80 5c-11 111 -52 152 -106 152c-53 0 -91 -33 -91 -82c0 -53 37 -75 117 -75z" />
    <glyph glyph-name="uniFEDA" unicode="&#x643;" horiz-adv-x="861" arabic-form="final" 
d="M873 135l8 -70l-20 -65c-73 0 -127 14 -169 70c-75 -48 -161 -76 -276 -84l-1 -3h-45h-34l-1 2c-235 10 -295 71 -295 212c0 52 15 112 39 162l86 -27c-10 -39 -17 -74 -17 -106c0 -74 41 -103 230 -108c111 4 191 27 259 63v582l113 15v-528c0 -81 21 -115 123 -115z
M288 336c111 0 138 10 138 24s-13 25 -109 44l15 75l171 100l-5 -84l-97 -50c72 -20 98 -44 98 -87c0 -86 -123 -95 -199 -95z" />
    <glyph glyph-name="uniFEDC" unicode="&#x643;" horiz-adv-x="540" arabic-form="medial" 
d="M551 135l9 -70l-20 -65c-121 0 -194 38 -278 160c-7 -89 -93 -160 -262 -160l-20 62l31 73c129 0 165 27 165 72c0 32 -22 73 -74 136l-70 85l26 115l404 226l-6 -126l-314 -172l159 -199c88 -110 127 -137 250 -137z" />
    <glyph glyph-name="uniFEDB" unicode="&#x643;" horiz-adv-x="461" arabic-form="initial" 
d="M428 769l-7 -130l-281 -155c198 -99 230 -172 230 -266c0 -127 -103 -218 -370 -218l-20 62l31 73c211 0 257 36 257 96c0 44 -25 85 -271 193l26 119z" />
    <glyph glyph-name="uniFB8F" unicode="&#x6a9;" horiz-adv-x="995" arabic-form="final" 
d="M1006 135l9 -70l-20 -65c-120 0 -194 38 -278 160c-6 -81 -78 -160 -301 -175l-1 -2h-44h-35l-1 2c-235 10 -295 71 -295 212c0 52 15 112 39 162l86 -27c-10 -39 -17 -74 -17 -106c0 -75 42 -104 236 -108c209 5 247 46 247 89c0 32 -22 73 -74 136l-69 85l25 115
l405 226l-7 -130l-311 -172l175 -218c79 -99 112 -114 231 -114z" />
    <glyph glyph-name="uniFB91" unicode="&#x6a9;" horiz-adv-x="540" arabic-form="medial" 
d="M551 135l9 -70l-20 -65c-121 0 -194 38 -278 160c-7 -89 -93 -160 -262 -160l-20 62l31 73c129 0 165 27 165 72c0 32 -22 73 -74 136l-70 85l26 115l404 226l-6 -126l-314 -172l159 -199c88 -110 127 -137 250 -137z" />
    <glyph glyph-name="uniFB90" unicode="&#x6a9;" horiz-adv-x="461" arabic-form="initial" 
d="M428 769l-7 -130l-281 -155c198 -99 230 -172 230 -266c0 -127 -103 -218 -370 -218l-20 62l31 73c211 0 257 36 257 96c0 44 -25 85 -271 193l26 119z" />
    <glyph glyph-name="uni063B.init" unicode="&#x63b;" horiz-adv-x="461" 
d="M46 779c0 -34 -28 -61 -61 -61c-32 0 -60 27 -60 61s28 60 60 60c33 0 61 -26 61 -60zM148 718c-33 0 -60 27 -60 61s27 60 60 60s60 -26 60 -60s-27 -61 -60 -61zM428 769l-7 -130l-281 -155c198 -99 230 -172 230 -266c0 -127 -103 -218 -370 -218l-20 62l31 73
c211 0 257 36 257 96c0 44 -25 85 -271 193l26 119z" />
    <glyph glyph-name="uni063B.medi" unicode="&#x63b;" horiz-adv-x="540" 
d="M77 779c0 -34 -28 -61 -61 -61c-32 0 -60 27 -60 61s28 60 60 60c33 0 61 -26 61 -60zM179 718c-33 0 -60 27 -60 61s27 60 60 60s60 -26 60 -60s-27 -61 -60 -61zM551 135l9 -70l-20 -65c-121 0 -194 38 -278 160c-7 -89 -93 -160 -262 -160l-20 62l31 73
c129 0 165 27 165 72c0 32 -22 73 -74 136l-70 85l26 115l404 226l-6 -126l-314 -172l159 -199c88 -110 127 -137 250 -137z" />
    <glyph glyph-name="uni063B.fina" unicode="&#x63b;" horiz-adv-x="995" 
d="M467 718c-32 0 -60 27 -60 61s28 60 60 60c33 0 61 -26 61 -60s-28 -61 -61 -61zM630 718c-33 0 -60 27 -60 61s27 60 60 60s60 -26 60 -60s-27 -61 -60 -61zM1006 135l9 -70l-20 -65c-120 0 -194 38 -278 160c-6 -81 -78 -160 -301 -175l-1 -2h-44h-35l-1 2
c-235 10 -295 71 -295 212c0 52 15 112 39 162l86 -27c-10 -39 -17 -74 -17 -106c0 -75 42 -104 236 -108c209 5 247 46 247 89c0 32 -22 73 -74 136l-69 85l25 115l405 226l-7 -130l-311 -172l175 -218c79 -99 112 -114 231 -114z" />
    <glyph glyph-name="uni063C.init" unicode="&#x63c;" horiz-adv-x="461" 
d="M428 769l-7 -130l-281 -155c198 -99 230 -172 230 -266c0 -127 -103 -218 -370 -218l-20 62l31 73c211 0 257 36 257 96c0 44 -25 85 -271 193l26 119zM92 -146c0 -33 -27 -58 -57 -58c-33 0 -59 25 -59 58c0 31 26 57 59 57c30 0 57 -26 57 -57zM209 -89
c33 0 59 -26 59 -57c0 -33 -26 -58 -59 -58c-30 0 -57 25 -57 58c0 31 27 57 57 57zM122 -220c31 0 57 -26 57 -58s-26 -57 -57 -57s-57 25 -57 57s26 58 57 58z" />
    <glyph glyph-name="uni063C.medi" unicode="&#x63c;" horiz-adv-x="540" 
d="M551 135l9 -70l-20 -65c-121 0 -194 38 -278 160c-7 -89 -93 -160 -262 -160l-20 62l31 73c129 0 165 27 165 72c0 32 -22 73 -74 136l-70 85l26 115l404 226l-6 -126l-314 -172l159 -199c88 -110 127 -137 250 -137zM258 -146c0 -33 -27 -58 -57 -58
c-33 0 -59 25 -59 58c0 31 26 57 59 57c30 0 57 -26 57 -57zM375 -89c33 0 59 -26 59 -57c0 -33 -26 -58 -59 -58c-30 0 -57 25 -57 58c0 31 27 57 57 57zM288 -220c31 0 57 -26 57 -58s-26 -57 -57 -57s-57 25 -57 57s26 58 57 58z" />
    <glyph glyph-name="uni063C.fina" unicode="&#x63c;" horiz-adv-x="995" 
d="M1006 135l9 -70l-20 -65c-120 0 -194 38 -278 160c-6 -81 -78 -160 -301 -175l-1 -2h-44h-35l-1 2c-235 10 -295 71 -295 212c0 52 15 112 39 162l86 -27c-10 -39 -17 -74 -17 -106c0 -75 42 -104 236 -108c209 5 247 46 247 89c0 32 -22 73 -74 136l-69 85l25 115
l405 226l-7 -130l-311 -172l175 -218c79 -99 112 -114 231 -114zM348 -146c0 -33 -27 -58 -57 -58c-33 0 -59 25 -59 58c0 31 26 57 59 57c30 0 57 -26 57 -57zM465 -89c33 0 59 -26 59 -57c0 -33 -26 -58 -59 -58c-30 0 -57 25 -57 58c0 31 27 57 57 57zM378 -220
c31 0 57 -26 57 -58s-26 -57 -57 -57s-57 25 -57 57s26 58 57 58z" />
    <glyph glyph-name="uniFB93" unicode="&#x6af;" horiz-adv-x="995" arabic-form="final" 
d="M918 899l-5 -88l-396 -220l23 94zM1006 135l9 -70l-20 -65c-120 0 -194 38 -278 160c-6 -81 -78 -160 -301 -175l-1 -2h-44h-35l-1 2c-235 10 -295 71 -295 212c0 52 15 112 39 162l86 -27c-10 -39 -17 -74 -17 -106c0 -75 42 -104 236 -108c209 5 247 46 247 89
c0 32 -22 73 -74 136l-69 85l25 115l405 226l-7 -130l-311 -172l175 -218c79 -99 112 -114 231 -114z" />
    <glyph glyph-name="uniFB95" unicode="&#x6af;" horiz-adv-x="540" arabic-form="medial" 
d="M458 899l-5 -88l-395 -220l22 94zM551 135l9 -70l-20 -65c-121 0 -194 38 -278 160c-7 -89 -93 -160 -262 -160l-20 62l31 73c129 0 165 27 165 72c0 32 -22 73 -74 136l-70 85l26 115l404 226l-6 -126l-314 -172l159 -199c88 -110 127 -137 250 -137z" />
    <glyph glyph-name="uniFB94" unicode="&#x6af;" horiz-adv-x="463" arabic-form="initial" 
d="M428 899l-6 -88l-395 -220l23 94zM-3 424l26 119l405 226l-7 -130l-281 -155c198 -99 230 -172 230 -266c0 -127 -103 -218 -370 -218l-20 62l31 73c211 0 257 36 257 96c0 44 -25 85 -271 193z" />
    <glyph glyph-name="uni06B0.init" unicode="&#x6b0;" horiz-adv-x="463" 
d="M428 899l-6 -88l-395 -220l23 94zM-3 424l26 119l405 226l-7 -130l-47 -26c25 -16 41 -43 41 -76c0 -53 -40 -91 -94 -91c-50 0 -91 36 -94 86l-87 -48c198 -99 230 -172 230 -266c0 -127 -103 -218 -370 -218l-20 62l31 73c211 0 257 36 257 96c0 44 -25 85 -271 193z
M321 503c24 0 37 16 37 34c0 20 -15 34 -37 34s-36 -14 -36 -34c0 -18 13 -34 36 -34z" />
    <glyph glyph-name="uni06B0.medi" unicode="&#x6b0;" horiz-adv-x="540" 
d="M458 899l-5 -88l-395 -220l22 94zM551 135l9 -70l-20 -65c-121 0 -194 38 -278 160c-7 -89 -93 -160 -262 -160l-20 62l31 73c129 0 165 27 165 72c0 32 -22 73 -74 136l-70 85l26 115l404 226l-6 -126l-49 -27c22 -16 36 -42 36 -73c0 -53 -40 -92 -94 -92
c-49 0 -89 34 -94 82l-113 -62l159 -199c88 -110 127 -137 250 -137zM349 509c24 0 37 16 37 34c0 20 -15 34 -37 34s-36 -14 -36 -34c0 -18 13 -34 36 -34z" />
    <glyph glyph-name="uni06B0.fina" unicode="&#x6b0;" horiz-adv-x="995" 
d="M918 899l-5 -88l-396 -220l23 94zM1006 135l9 -70l-20 -65c-120 0 -194 38 -278 160c-6 -81 -78 -160 -301 -175l-1 -2h-44h-35l-1 2c-235 10 -295 71 -295 212c0 52 15 112 39 162l86 -27c-10 -39 -17 -74 -17 -106c0 -75 42 -104 236 -108c209 5 247 46 247 89
c0 32 -22 73 -74 136l-69 85l25 115l405 226l-7 -130l-51 -28c21 -16 35 -42 35 -73c0 -53 -40 -92 -93 -92c-49 0 -88 34 -93 81l-109 -60l175 -218c79 -99 112 -114 231 -114zM802 503c23 0 36 17 36 35c0 20 -14 34 -36 34s-37 -14 -37 -34c0 -18 14 -35 37 -35z" />
    <glyph glyph-name="uni06B4.init" unicode="&#x6b4;" horiz-adv-x="463" 
d="M27 914c-31 0 -57 26 -57 58s26 58 57 58s57 -26 57 -58s-26 -58 -57 -58zM-60 899c30 0 57 -26 57 -59c0 -31 -27 -57 -57 -57c-33 0 -59 26 -59 57c0 33 26 59 59 59zM27 591l23 94l378 214l-6 -88zM57 840c0 33 27 59 57 59c33 0 59 -26 59 -59c0 -31 -26 -57 -59 -57
c-30 0 -57 26 -57 57zM-3 424l26 119l405 226l-7 -130l-281 -155c198 -99 230 -172 230 -266c0 -127 -103 -218 -370 -218l-20 62l31 73c211 0 257 36 257 96c0 44 -25 85 -271 193z" />
    <glyph glyph-name="uni06B4.medi" unicode="&#x6b4;" horiz-adv-x="540" 
d="M51 913c-31 0 -57 26 -57 58s26 58 57 58s57 -26 57 -58s-26 -58 -57 -58zM58 591l22 94l378 214l-5 -88zM21 839c0 -31 -27 -57 -57 -57c-33 0 -59 26 -59 57c0 33 26 59 59 59c30 0 57 -26 57 -59zM81 839c0 33 27 59 57 59c33 0 59 -26 59 -59c0 -31 -26 -57 -59 -57
c-30 0 -57 26 -57 57zM551 135l9 -70l-20 -65c-121 0 -194 38 -278 160c-7 -89 -93 -160 -262 -160l-20 62l31 73c129 0 165 27 165 72c0 32 -22 73 -74 136l-70 85l26 115l404 226l-6 -126l-314 -172l159 -199c88 -110 127 -137 250 -137z" />
    <glyph glyph-name="uni06B4.fina" unicode="&#x6b4;" horiz-adv-x="995" 
d="M512 914c-31 0 -57 26 -57 58s26 58 57 58s57 -26 57 -58s-26 -58 -57 -58zM425 783c-33 0 -59 26 -59 57c0 33 26 59 59 59c30 0 57 -26 57 -59c0 -31 -27 -57 -57 -57zM517 591l23 94l378 214l-5 -88zM542 840c0 33 27 59 57 59c33 0 59 -26 59 -59
c0 -31 -26 -57 -59 -57c-30 0 -57 26 -57 57zM1006 135l9 -70l-20 -65c-120 0 -194 38 -278 160c-6 -81 -78 -160 -301 -175l-1 -2h-44h-35l-1 2c-235 10 -295 71 -295 212c0 52 15 112 39 162l86 -27c-10 -39 -17 -74 -17 -106c0 -75 42 -104 236 -108c209 5 247 46 247 89
c0 32 -22 73 -74 136l-69 85l25 115l405 226l-7 -130l-311 -172l175 -218c79 -99 112 -114 231 -114z" />
    <glyph glyph-name="uni06AA.init" unicode="&#x6aa;" horiz-adv-x="1174" 
d="M842 399c169 0 282 -45 282 -195c0 -53 -41 -103 -102 -131c-96 -43 -316 -73 -700 -73h-322l-20 70l24 65c98 0 196 -6 374 -6c523 0 641 53 641 82c0 35 -41 63 -177 63c-188 -1 -354 -25 -527 -25c-97 0 -189 8 -231 20l13 110c55 139 190 252 373 286l-22 -130
c-106 -24 -196 -78 -250 -155c45 -4 92 -6 132 -6c184 0 350 25 512 25z" />
    <glyph glyph-name="uni06AA.medi" unicode="&#x6aa;" horiz-adv-x="1235" 
d="M1246 135l9 -71l-20 -64c-91 0 -151 44 -166 102c-14 -11 -30 -21 -47 -29c-96 -43 -316 -73 -700 -73h-322l-20 70l24 65c98 0 196 -6 374 -6c523 0 641 53 641 82c0 35 -41 63 -177 63c-188 -1 -354 -25 -527 -25c-97 0 -189 8 -231 20l13 110c55 139 190 252 373 286
l-22 -130c-106 -24 -196 -78 -250 -155c45 -4 92 -6 132 -6c184 0 350 25 512 25c169 0 282 -45 282 -195v-3c6 -53 44 -66 122 -66z" />
    <glyph glyph-name="uni06AA.fina" unicode="&#x6aa;" horiz-adv-x="1307" 
d="M1318 135l9 -71l-20 -64c-91 0 -151 44 -166 102c-14 -11 -30 -21 -47 -29c-96 -43 -321 -73 -700 -73h-321l-40 135c113 -3 225 -7 393 -7c548 0 665 54 665 83c0 35 -41 63 -177 63c-187 -1 -354 -25 -526 -25c-98 0 -190 8 -232 20l13 110c56 139 190 252 374 286
l-23 -130c-106 -24 -196 -78 -249 -155c44 -4 91 -6 131 -6c184 0 350 25 512 25c169 0 282 -45 282 -195v-3c6 -53 44 -66 122 -66z" />
    <glyph glyph-name="uni06AB.init" unicode="&#x6ab;" horiz-adv-x="461" 
d="M428 769l-7 -130l-44 -24c20 -17 33 -41 33 -71c0 -53 -40 -92 -94 -92c-47 0 -86 32 -93 78l-83 -46c198 -99 230 -172 230 -266c0 -127 -103 -218 -370 -218l-20 62l31 73c211 0 257 36 257 96c0 44 -25 85 -271 193l26 119zM316 578h-6l-24 -13c-4 -6 -6 -13 -6 -21
c0 -18 13 -34 36 -34c24 0 37 16 37 34c0 20 -15 34 -37 34z" />
    <glyph glyph-name="uni06AB.medi" unicode="&#x6ab;" horiz-adv-x="540" 
d="M551 135l9 -70l-20 -65c-121 0 -194 38 -278 160c-7 -89 -93 -160 -262 -160l-20 62l31 73c129 0 165 27 165 72c0 32 -22 73 -74 136l-70 85l26 115l404 226l-6 -126l-51 -28c20 -16 33 -41 33 -71c0 -53 -40 -92 -94 -92c-48 0 -87 33 -93 79l-109 -60l159 -199
c88 -110 127 -137 250 -137zM344 578c-3 0 -5 0 -8 -1l-22 -12c-4 -5 -7 -13 -7 -21c0 -18 14 -34 37 -34c24 0 37 16 37 34c0 20 -15 34 -37 34z" />
    <glyph glyph-name="uni06AB.fina" unicode="&#x6ab;" horiz-adv-x="995" 
d="M1006 135l9 -70l-20 -65c-120 0 -194 38 -278 160c-6 -81 -78 -160 -301 -175l-1 -2h-44h-35l-1 2c-235 10 -295 71 -295 212c0 52 15 112 39 162l86 -27c-10 -39 -17 -74 -17 -106c0 -75 42 -104 236 -108c209 5 247 46 247 89c0 32 -22 73 -74 136l-69 85l25 115
l405 226l-7 -130l-50 -28c18 -16 29 -39 29 -67c0 -53 -40 -92 -94 -92c-45 0 -83 30 -92 73l-104 -58l175 -218c79 -99 112 -114 231 -114zM833 544c0 19 -13 32 -33 34l-38 -21c-1 -4 -2 -8 -2 -13c0 -18 13 -34 36 -34c24 0 37 16 37 34z" />
    <glyph glyph-name="uni06AC.init" unicode="&#x6ac;" horiz-adv-x="461" 
d="M65 705c-37 0 -65 29 -65 65c0 37 28 66 65 66s65 -29 65 -66c0 -36 -28 -65 -65 -65zM428 769l-7 -130l-281 -155c198 -99 230 -172 230 -266c0 -127 -103 -218 -370 -218l-20 62l31 73c211 0 257 36 257 96c0 44 -25 85 -271 193l26 119z" />
    <glyph glyph-name="uni06AC.medi" unicode="&#x6ac;" horiz-adv-x="540" 
d="M96 705c-37 0 -65 29 -65 65c0 37 28 66 65 66s65 -29 65 -66c0 -36 -28 -65 -65 -65zM551 135l9 -70l-20 -65c-121 0 -194 38 -278 160c-7 -89 -93 -160 -262 -160l-20 62l31 73c129 0 165 27 165 72c0 32 -22 73 -74 136l-70 85l26 115l404 226l-6 -126l-314 -172
l159 -199c88 -110 127 -137 250 -137z" />
    <glyph glyph-name="uni06AC.fina" unicode="&#x6ac;" horiz-adv-x="861" 
d="M692 836c-37 0 -65 29 -65 65c0 37 28 66 65 66s65 -29 65 -66c0 -36 -28 -65 -65 -65zM873 135l8 -70l-20 -65c-73 0 -127 14 -169 70c-75 -48 -161 -76 -276 -84l-1 -3h-45h-34l-1 2c-235 10 -295 71 -295 212c0 52 15 112 39 162l86 -27c-10 -39 -17 -74 -17 -106
c0 -74 41 -103 230 -108c111 4 191 27 259 63v582l113 15v-528c0 -81 21 -115 123 -115zM288 336c111 0 138 10 138 24s-13 25 -109 44l15 75l171 100l-5 -84l-97 -50c72 -20 98 -44 98 -87c0 -86 -123 -95 -199 -95z" />
    <glyph glyph-name="uni06AE.init" unicode="&#x6ae;" horiz-adv-x="461" 
d="M428 769l-7 -130l-281 -155c198 -99 230 -172 230 -266c0 -127 -103 -218 -370 -218l-20 62l31 73c211 0 257 36 257 96c0 44 -25 85 -271 193l26 119zM92 -146c0 -33 -27 -58 -57 -58c-33 0 -59 25 -59 58c0 31 26 57 59 57c30 0 57 -26 57 -57zM209 -89
c33 0 59 -26 59 -57c0 -33 -26 -58 -59 -58c-30 0 -57 25 -57 58c0 31 27 57 57 57zM122 -220c31 0 57 -26 57 -58s-26 -57 -57 -57s-57 25 -57 57s26 58 57 58z" />
    <glyph glyph-name="uni06AE.medi" unicode="&#x6ae;" horiz-adv-x="540" 
d="M551 135l9 -70l-20 -65c-121 0 -194 38 -278 160c-7 -89 -93 -160 -262 -160l-20 62l31 73c129 0 165 27 165 72c0 32 -22 73 -74 136l-70 85l26 115l404 226l-6 -126l-314 -172l159 -199c88 -110 127 -137 250 -137zM258 -146c0 -33 -27 -58 -57 -58
c-33 0 -59 25 -59 58c0 31 26 57 59 57c30 0 57 -26 57 -57zM375 -89c33 0 59 -26 59 -57c0 -33 -26 -58 -59 -58c-30 0 -57 25 -57 58c0 31 27 57 57 57zM288 -220c31 0 57 -26 57 -58s-26 -57 -57 -57s-57 25 -57 57s26 58 57 58z" />
    <glyph glyph-name="uni06AE.fina" unicode="&#x6ae;" horiz-adv-x="861" 
d="M873 135l8 -70l-20 -65c-73 0 -127 14 -169 70c-75 -48 -161 -76 -276 -84l-1 -3h-45h-34l-1 2c-235 10 -295 71 -295 212c0 52 15 112 39 162l86 -27c-10 -39 -17 -74 -17 -106c0 -74 41 -103 230 -108c111 4 191 27 259 63v582l113 15v-528c0 -81 21 -115 123 -115z
M288 336c111 0 138 10 138 24s-13 25 -109 44l15 75l171 100l-5 -84l-97 -50c72 -20 98 -44 98 -87c0 -86 -123 -95 -199 -95zM358 -146c0 -33 -27 -58 -57 -58c-33 0 -59 25 -59 58c0 31 26 57 59 57c30 0 57 -26 57 -57zM475 -89c33 0 59 -26 59 -57
c0 -33 -26 -58 -59 -58c-30 0 -57 25 -57 58c0 31 27 57 57 57zM388 -220c31 0 57 -26 57 -58s-26 -57 -57 -57s-57 25 -57 57s26 58 57 58z" />
    <glyph glyph-name="uni06B2.init" unicode="&#x6b2;" horiz-adv-x="463" 
d="M428 899l-6 -88l-395 -220l23 94zM-3 424l26 119l405 226l-7 -130l-281 -155c198 -99 230 -172 230 -266c0 -127 -103 -218 -370 -218l-20 62l31 73c211 0 257 36 257 96c0 44 -25 85 -271 193zM40 -83c33 0 61 -26 61 -60s-28 -60 -61 -60c-32 0 -60 26 -60 60
s28 60 60 60zM203 -83c33 0 60 -26 60 -60s-27 -60 -60 -60s-60 26 -60 60s27 60 60 60z" />
    <glyph glyph-name="uni06B2.medi" unicode="&#x6b2;" horiz-adv-x="540" 
d="M458 899l-5 -88l-395 -220l22 94zM551 135l9 -70l-20 -65c-121 0 -194 38 -278 160c-7 -89 -93 -160 -262 -160l-20 62l31 73c129 0 165 27 165 72c0 32 -22 73 -74 136l-70 85l26 115l404 226l-6 -126l-314 -172l159 -199c88 -110 127 -137 250 -137zM207 -83
c33 0 61 -26 61 -60s-28 -60 -61 -60c-32 0 -60 26 -60 60s28 60 60 60zM370 -83c33 0 60 -26 60 -60s-27 -60 -60 -60s-60 26 -60 60s27 60 60 60z" />
    <glyph glyph-name="uni06B2.fina" unicode="&#x6b2;" horiz-adv-x="995" 
d="M918 899l-5 -88l-396 -220l23 94zM1006 135l9 -70l-20 -65c-120 0 -194 38 -278 160c-6 -81 -78 -160 -301 -175l-1 -2h-44h-35l-1 2c-235 10 -295 71 -295 212c0 52 15 112 39 162l86 -27c-10 -39 -17 -74 -17 -106c0 -75 42 -104 236 -108c209 5 247 46 247 89
c0 32 -22 73 -74 136l-69 85l25 115l405 226l-7 -130l-311 -172l175 -218c79 -99 112 -114 231 -114zM296 -83c33 0 60 -26 60 -60s-27 -60 -60 -60s-60 26 -60 60s27 60 60 60zM459 -83c33 0 60 -26 60 -60s-27 -60 -60 -60s-61 26 -61 60s28 60 61 60z" />
    <glyph glyph-name="uniFBD4" unicode="&#x6ad;" horiz-adv-x="861" arabic-form="final" 
d="M693 970c-31 0 -57 26 -57 58s26 58 57 58s57 -26 57 -58s-26 -58 -57 -58zM606 839c-33 0 -59 26 -59 57c0 33 26 59 59 59c30 0 57 -26 57 -59c0 -31 -27 -57 -57 -57zM723 896c0 33 27 59 57 59c33 0 59 -26 59 -59c0 -31 -26 -57 -59 -57c-30 0 -57 26 -57 57z
M873 135l8 -70l-20 -65c-73 0 -127 14 -169 70c-75 -48 -161 -76 -276 -84l-1 -3h-45h-34l-1 2c-235 10 -295 71 -295 212c0 52 15 112 39 162l86 -27c-10 -39 -17 -74 -17 -106c0 -74 41 -103 230 -108c111 4 191 27 259 63v582l113 15v-528c0 -81 21 -115 123 -115z
M288 336c111 0 138 10 138 24s-13 25 -109 44l15 75l171 100l-5 -84l-97 -50c72 -20 98 -44 98 -87c0 -86 -123 -95 -199 -95z" />
    <glyph glyph-name="uniFBD6" unicode="&#x6ad;" horiz-adv-x="540" arabic-form="medial" 
d="M98 839c-31 0 -57 26 -57 58s26 58 57 58s57 -26 57 -58s-26 -58 -57 -58zM68 765c0 -31 -27 -57 -57 -57c-33 0 -59 26 -59 57c0 33 26 59 59 59c30 0 57 -26 57 -59zM128 765c0 33 27 59 57 59c33 0 59 -26 59 -59c0 -31 -26 -57 -59 -57c-30 0 -57 26 -57 57zM551 135
l9 -70l-20 -65c-121 0 -194 38 -278 160c-7 -89 -93 -160 -262 -160l-20 62l31 73c129 0 165 27 165 72c0 32 -22 73 -74 136l-70 85l26 115l404 226l-6 -126l-314 -172l159 -199c88 -110 127 -137 250 -137z" />
    <glyph glyph-name="uniFBD5" unicode="&#x6ad;" horiz-adv-x="461" arabic-form="initial" 
d="M67 839c-31 0 -57 26 -57 58s26 58 57 58s57 -26 57 -58s-26 -58 -57 -58zM37 765c0 -31 -27 -57 -57 -57c-33 0 -59 26 -59 57c0 33 26 59 59 59c30 0 57 -26 57 -59zM97 765c0 33 27 59 57 59c33 0 59 -26 59 -59c0 -31 -26 -57 -59 -57c-30 0 -57 26 -57 57zM428 769
l-7 -130l-281 -155c198 -99 230 -172 230 -266c0 -127 -103 -218 -370 -218l-20 62l31 73c211 0 257 36 257 96c0 44 -25 85 -271 193l26 119z" />
    <glyph glyph-name="uniFB9B" unicode="&#x6b1;" horiz-adv-x="995" arabic-form="final" 
d="M430 793c-32 0 -60 27 -60 61s28 60 60 60c33 0 61 -26 61 -60s-28 -61 -61 -61zM593 793c-33 0 -60 27 -60 61s27 60 60 60s60 -26 60 -60s-27 -61 -60 -61zM918 899l-5 -88l-396 -220l23 94zM1006 135l9 -70l-20 -65c-120 0 -194 38 -278 160
c-6 -81 -78 -160 -301 -175l-1 -2h-44h-35l-1 2c-235 10 -295 71 -295 212c0 52 15 112 39 162l86 -27c-10 -39 -17 -74 -17 -106c0 -75 42 -104 236 -108c209 5 247 46 247 89c0 32 -22 73 -74 136l-69 85l25 115l405 226l-7 -130l-311 -172l175 -218
c79 -99 112 -114 231 -114z" />
    <glyph glyph-name="uniFB9D" unicode="&#x6b1;" horiz-adv-x="540" arabic-form="medial" 
d="M30 853c0 -34 -28 -61 -61 -61c-32 0 -60 27 -60 61s28 60 60 60c33 0 61 -26 61 -60zM132 792c-33 0 -60 27 -60 61s27 60 60 60s60 -26 60 -60s-27 -61 -60 -61zM458 899l-5 -88l-395 -220l22 94zM551 135l9 -70l-20 -65c-121 0 -194 38 -278 160
c-7 -89 -93 -160 -262 -160l-20 62l31 73c129 0 165 27 165 72c0 32 -22 73 -74 136l-70 85l26 115l404 226l-6 -126l-314 -172l159 -199c88 -110 127 -137 250 -137z" />
    <glyph glyph-name="uniFB9C" unicode="&#x6b1;" horiz-adv-x="463" arabic-form="initial" 
d="M6 854c0 -34 -28 -61 -61 -61c-32 0 -60 27 -60 61s28 60 60 60c33 0 61 -26 61 -60zM108 793c-33 0 -60 27 -60 61s27 60 60 60s60 -26 60 -60s-27 -61 -60 -61zM428 899l-6 -88l-395 -220l23 94zM-3 424l26 119l405 226l-7 -130l-281 -155c198 -99 230 -172 230 -266
c0 -127 -103 -218 -370 -218l-20 62l31 73c211 0 257 36 257 96c0 44 -25 85 -271 193z" />
    <glyph glyph-name="uniFB97" unicode="&#x6b3;" horiz-adv-x="995" arabic-form="final" 
d="M918 899l-5 -88l-396 -220l23 94zM1006 135l9 -70l-20 -65c-120 0 -194 38 -278 160c-6 -81 -78 -160 -301 -175l-1 -2h-44h-35l-1 2c-235 10 -295 71 -295 212c0 52 15 112 39 162l86 -27c-10 -39 -17 -74 -17 -106c0 -75 42 -104 236 -108c209 5 247 46 247 89
c0 32 -22 73 -74 136l-69 85l25 115l405 226l-7 -130l-311 -172l175 -218c79 -99 112 -114 231 -114zM438 -132c0 -34 -27 -61 -60 -61c-34 0 -60 27 -60 61c0 33 26 60 60 60c33 0 60 -27 60 -60zM378 -228c33 0 61 -28 61 -61s-28 -60 -61 -60c-34 0 -60 27 -60 60
s26 61 60 61z" />
    <glyph glyph-name="uniFB99" unicode="&#x6b3;" horiz-adv-x="540" arabic-form="medial" 
d="M458 899l-5 -88l-395 -220l22 94zM551 135l9 -70l-20 -65c-121 0 -194 38 -278 160c-7 -89 -93 -160 -262 -160l-20 62l31 73c129 0 165 27 165 72c0 32 -22 73 -74 136l-70 85l26 115l404 226l-6 -126l-314 -172l159 -199c88 -110 127 -137 250 -137zM289 -193
c-33 0 -60 27 -60 61c0 33 27 60 60 60c34 0 60 -27 60 -60c0 -34 -26 -61 -60 -61zM290 -228c33 0 60 -28 60 -61s-27 -60 -60 -60c-34 0 -60 27 -60 60s26 61 60 61z" />
    <glyph glyph-name="uniFB98" unicode="&#x6b3;" horiz-adv-x="463" arabic-form="initial" 
d="M428 899l-6 -88l-395 -220l23 94zM-3 424l26 119l405 226l-7 -130l-281 -155c198 -99 230 -172 230 -266c0 -127 -103 -218 -370 -218l-20 62l31 73c211 0 257 36 257 96c0 44 -25 85 -271 193zM122 -193c-33 0 -60 27 -60 61c0 33 27 60 60 60c34 0 60 -27 60 -60
c0 -34 -26 -61 -60 -61zM123 -228c33 0 60 -28 60 -61s-27 -60 -60 -60c-34 0 -60 27 -60 60s26 61 60 61z" />
    <glyph glyph-name="uniFEDE" unicode="&#x644;" horiz-adv-x="714" arabic-form="final" 
d="M734 64l-20 -64c-34 0 -63 10 -85 27c-24 -174 -129 -246 -317 -246c-189 0 -272 98 -272 257c0 87 31 161 54 204l86 -25c-12 -33 -27 -89 -27 -157c0 -85 47 -144 171 -144c144 0 198 50 198 191v655l112 14v-559c0 -69 30 -82 92 -82z" />
    <glyph glyph-name="uniFEE0" unicode="&#x644;" horiz-adv-x="264" arabic-form="medial" 
d="M276 135l8 -73l-20 -62c-45 0 -96 12 -131 59c-34 -47 -79 -59 -133 -59l-20 62l31 73c62 0 66 21 66 82v545l112 15v-559c0 -63 22 -83 87 -83z" />
    <glyph glyph-name="uniFEDF" unicode="&#x644;" horiz-adv-x="259" arabic-form="initial" 
d="M0 0l-20 62l31 73c53 0 77 19 77 95v532l113 14v-547c0 -163 -50 -229 -201 -229z" />
    <glyph glyph-name="uni06B5.init" unicode="&#x6b5;" horiz-adv-x="259" 
d="M97 982l48 -81l48 81l64 -27l-81 -142h-64l-79 142zM0 0l-20 62l31 73c53 0 77 19 77 95v532l113 14v-547c0 -163 -50 -229 -201 -229z" />
    <glyph glyph-name="uni06B5.medi" unicode="&#x6b5;" horiz-adv-x="264" 
d="M164 810h-64l-79 142l64 27l48 -81l48 81l64 -27zM276 135l8 -73l-20 -62c-45 0 -96 12 -131 59c-34 -47 -79 -59 -133 -59l-20 62l31 73c62 0 66 21 66 82v545l112 15v-559c0 -63 22 -83 87 -83z" />
    <glyph glyph-name="uni06B5.fina" unicode="&#x6b5;" horiz-adv-x="714" 
d="M608 810h-64l-79 142l64 27l48 -81l48 81l64 -27zM734 64l-20 -64c-34 0 -63 10 -85 27c-24 -174 -129 -246 -317 -246c-189 0 -272 98 -272 257c0 87 31 161 54 204l86 -25c-12 -33 -27 -89 -27 -157c0 -85 47 -144 171 -144c144 0 198 50 198 191v655l112 14v-559
c0 -69 30 -82 92 -82z" />
    <glyph glyph-name="uni06B6.init" unicode="&#x6b6;" horiz-adv-x="259" 
d="M143 839c-37 0 -65 29 -65 65c0 37 28 66 65 66s65 -29 65 -66c0 -36 -28 -65 -65 -65zM0 0l-20 62l31 73c53 0 77 19 77 95v532l113 14v-547c0 -163 -50 -229 -201 -229z" />
    <glyph glyph-name="uni06B6.medi" unicode="&#x6b6;" horiz-adv-x="264" 
d="M131 836c-37 0 -65 29 -65 65c0 37 28 66 65 66s65 -29 65 -66c0 -36 -28 -65 -65 -65zM276 135l8 -73l-20 -62c-45 0 -96 12 -131 59c-34 -47 -79 -59 -133 -59l-20 62l31 73c62 0 66 21 66 82v545l112 15v-559c0 -63 22 -83 87 -83z" />
    <glyph glyph-name="uni06B6.fina" unicode="&#x6b6;" horiz-adv-x="714" 
d="M576 836c-37 0 -65 29 -65 65c0 37 28 66 65 66s65 -29 65 -66c0 -36 -28 -65 -65 -65zM734 64l-20 -64c-34 0 -63 10 -85 27c-24 -174 -129 -246 -317 -246c-189 0 -272 98 -272 257c0 87 31 161 54 204l86 -25c-12 -33 -27 -89 -27 -157c0 -85 47 -144 171 -144
c144 0 198 50 198 191v655l112 14v-559c0 -69 30 -82 92 -82z" />
    <glyph glyph-name="uni06B7.init" unicode="&#x6b7;" horiz-adv-x="259" 
d="M145 973c-31 0 -57 26 -57 58s26 58 57 58s57 -26 57 -58s-26 -58 -57 -58zM58 842c-33 0 -59 26 -59 57c0 33 26 59 59 59c30 0 57 -26 57 -59c0 -31 -27 -57 -57 -57zM232 842c-30 0 -57 26 -57 57c0 33 27 59 57 59c33 0 59 -26 59 -59c0 -31 -26 -57 -59 -57zM0 0
l-20 62l31 73c53 0 77 19 77 95v532l113 14v-547c0 -163 -50 -229 -201 -229z" />
    <glyph glyph-name="uni06B7.medi" unicode="&#x6b7;" horiz-adv-x="264" 
d="M133 970c-31 0 -57 26 -57 58s26 58 57 58s57 -26 57 -58s-26 -58 -57 -58zM46 839c-33 0 -59 26 -59 57c0 33 26 59 59 59c30 0 57 -26 57 -59c0 -31 -27 -57 -57 -57zM163 896c0 33 27 59 57 59c33 0 59 -26 59 -59c0 -31 -26 -57 -59 -57c-30 0 -57 26 -57 57z
M276 135l8 -73l-20 -62c-45 0 -96 12 -131 59c-34 -47 -79 -59 -133 -59l-20 62l31 73c62 0 66 21 66 82v545l112 15v-559c0 -63 22 -83 87 -83z" />
    <glyph glyph-name="uni06B7.fina" unicode="&#x6b7;" horiz-adv-x="714" 
d="M577 970c-31 0 -57 26 -57 58s26 58 57 58s57 -26 57 -58s-26 -58 -57 -58zM490 839c-33 0 -59 26 -59 57c0 33 26 59 59 59c30 0 57 -26 57 -59c0 -31 -27 -57 -57 -57zM607 896c0 33 27 59 57 59c33 0 59 -26 59 -59c0 -31 -26 -57 -59 -57c-30 0 -57 26 -57 57z
M734 64l-20 -64c-34 0 -63 10 -85 27c-24 -174 -129 -246 -317 -246c-189 0 -272 98 -272 257c0 87 31 161 54 204l86 -25c-12 -33 -27 -89 -27 -157c0 -85 47 -144 171 -144c144 0 198 50 198 191v655l112 14v-559c0 -69 30 -82 92 -82z" />
    <glyph glyph-name="uni06B8.init" unicode="&#x6b8;" horiz-adv-x="259" 
d="M0 0l-20 62l31 73c53 0 77 19 77 95v532l113 14v-547c0 -163 -50 -229 -201 -229zM56 -89c30 0 57 -26 57 -57c0 -33 -27 -58 -57 -58c-33 0 -59 25 -59 58c0 31 26 57 59 57zM230 -89c33 0 59 -26 59 -57c0 -33 -26 -58 -59 -58c-30 0 -57 25 -57 58c0 31 27 57 57 57z
M143 -220c31 0 57 -26 57 -58s-26 -57 -57 -57s-57 25 -57 57s26 58 57 58z" />
    <glyph glyph-name="uni06B8.medi" unicode="&#x6b8;" horiz-adv-x="264" 
d="M133 59c-34 -47 -79 -59 -133 -59l-20 62l31 73c62 0 66 21 66 82v545l112 15v-559c0 -63 22 -83 87 -83l8 -73l-20 -62c-45 0 -96 12 -131 59zM102 -146c0 -33 -27 -58 -57 -58c-33 0 -59 25 -59 58c0 31 26 57 59 57c30 0 57 -26 57 -57zM219 -89c33 0 59 -26 59 -57
c0 -33 -26 -58 -59 -58c-30 0 -57 25 -57 58c0 31 27 57 57 57zM132 -220c31 0 57 -26 57 -58s-26 -57 -57 -57s-57 25 -57 57s26 58 57 58z" />
    <glyph glyph-name="uni06B8.fina" unicode="&#x6b8;" horiz-adv-x="714" 
d="M734 64l-20 -64c-34 0 -63 10 -85 27c-24 -174 -129 -246 -317 -246c-189 0 -272 98 -272 257c0 87 31 161 54 204l86 -25c-12 -33 -27 -89 -27 -157c0 -85 47 -144 171 -144c144 0 198 50 198 191v655l112 14v-559c0 -69 30 -82 92 -82zM282 -362c0 -33 -27 -58 -57 -58
c-33 0 -59 25 -59 58c0 31 26 57 59 57c30 0 57 -26 57 -57zM399 -305c33 0 59 -26 59 -57c0 -33 -26 -58 -59 -58c-30 0 -57 25 -57 58c0 31 27 57 57 57zM312 -436c31 0 57 -26 57 -58s-26 -57 -57 -57s-57 25 -57 57s26 58 57 58z" />
    <glyph glyph-name="uniFEE2" unicode="&#x645;" horiz-adv-x="725" arabic-form="final" 
d="M736 135l9 -71l-20 -64c-56 0 -99 22 -124 57c-25 -47 -64 -74 -116 -74c-128 0 -230 116 -278 116c-47 0 -50 -57 -50 -101c0 -79 25 -222 47 -330l-129 -19c-19 115 -35 220 -35 337c0 137 34 259 141 259c13 0 27 -3 41 -9c72 150 137 214 237 214
c93 0 172 -88 175 -232c0 -68 32 -83 102 -83zM463 115c44 0 71 37 71 100c0 70 -40 103 -90 103s-87 -41 -135 -135c48 -33 99 -68 154 -68z" />
    <glyph glyph-name="uniFEE4" unicode="&#x645;" horiz-adv-x="628" arabic-form="medial" 
d="M639 135l9 -71l-20 -64c-56 0 -98 22 -123 56c-25 -47 -65 -73 -116 -73c-77 0 -153 39 -229 96c-42 -63 -91 -79 -140 -79h-20l-20 61l31 74h15c36 0 59 14 99 98c75 157 136 217 235 217s174 -92 177 -232c0 -68 32 -83 102 -83zM369 115c42 0 68 41 68 99
c0 69 -38 104 -89 104c-50 0 -86 -28 -138 -138c72 -48 122 -65 159 -65z" />
    <glyph glyph-name="uniFEE3" unicode="&#x645;" horiz-adv-x="587" arabic-form="initial" 
d="M360 450c101 0 177 -95 177 -240c0 -141 -55 -227 -148 -227c-77 0 -153 39 -229 96c-42 -63 -91 -79 -140 -79h-20l-20 61l31 74h15c36 0 59 14 99 98c75 157 136 217 235 217zM369 115c42 0 68 41 68 99c0 69 -38 104 -89 104c-50 0 -86 -28 -138 -138
c72 -48 122 -65 159 -65z" />
    <glyph glyph-name="uniFEE6" unicode="&#x646;" horiz-adv-x="729" arabic-form="final" 
d="M322 333c-37 0 -65 29 -65 65c0 37 28 66 65 66s65 -29 65 -66c0 -36 -28 -65 -65 -65zM749 62l-20 -62c-37 0 -67 9 -92 30c-9 -230 -134 -289 -325 -289c-189 0 -272 98 -272 257c0 87 31 161 54 204l86 -26c-12 -33 -27 -88 -27 -156c0 -86 47 -144 171 -144
c145 0 203 48 203 171c0 80 -23 153 -65 240l124 49c10 -33 24 -73 36 -106c30 -82 64 -95 118 -95z" />
    <glyph glyph-name="uniFEE8" unicode="&#x646;" horiz-adv-x="335" arabic-form="medial" 
d="M167 413c-37 0 -65 29 -65 65c0 37 28 66 65 66s65 -29 65 -66c0 -36 -28 -65 -65 -65zM346 135l9 -73l-20 -62c-80 0 -132 15 -167 68c-35 -53 -84 -68 -168 -68l-20 62l32 73c99 0 100 23 100 95v108h112v-107c0 -74 14 -96 122 -96z" />
    <glyph glyph-name="uniFEE7" unicode="&#x646;" horiz-adv-x="312" arabic-form="initial" 
d="M125 483c-37 0 -65 29 -65 65c0 37 28 66 65 66s65 -29 65 -66c0 -36 -28 -65 -65 -65zM11 135c116 0 137 15 137 68c0 37 -15 93 -47 179l118 38c29 -84 43 -172 43 -232c0 -153 -66 -188 -262 -188l-20 62z" />
    <glyph glyph-name="uni06B9.init" unicode="&#x6b9;" horiz-adv-x="312" 
d="M125 483c-37 0 -65 29 -65 65c0 37 28 66 65 66s65 -29 65 -66c0 -36 -28 -65 -65 -65zM11 135c116 0 137 15 137 68c0 37 -15 93 -47 179l118 38c29 -84 43 -172 43 -232c0 -153 -66 -188 -262 -188l-20 62zM147 -217c-37 0 -65 29 -65 65c0 37 28 66 65 66
s65 -29 65 -66c0 -36 -28 -65 -65 -65z" />
    <glyph glyph-name="uni06B9.medi" unicode="&#x6b9;" horiz-adv-x="335" 
d="M167 413c-37 0 -65 29 -65 65c0 37 28 66 65 66s65 -29 65 -66c0 -36 -28 -65 -65 -65zM346 135l9 -73l-20 -62c-80 0 -132 15 -167 68c-35 -53 -84 -68 -168 -68l-20 62l32 73c99 0 100 23 100 95v108h112v-107c0 -74 14 -96 122 -96zM167 -86c37 0 65 -29 65 -66
c0 -36 -28 -65 -65 -65s-65 29 -65 65c0 37 28 66 65 66z" />
    <glyph glyph-name="uni06B9.fina" unicode="&#x6b9;" horiz-adv-x="729" 
d="M322 333c-37 0 -65 29 -65 65c0 37 28 66 65 66s65 -29 65 -66c0 -36 -28 -65 -65 -65zM749 62l-20 -62c-37 0 -67 9 -92 30c-9 -230 -134 -289 -325 -289c-189 0 -272 98 -272 257c0 87 31 161 54 204l86 -26c-12 -33 -27 -88 -27 -156c0 -86 47 -144 171 -144
c145 0 203 48 203 171c0 80 -23 153 -65 240l124 49c10 -33 24 -73 36 -106c30 -82 64 -95 118 -95zM322 -333c37 0 65 -29 65 -66c0 -36 -28 -65 -65 -65s-65 29 -65 65c0 37 28 66 65 66z" />
    <glyph glyph-name="uniFB9F" unicode="&#x6ba;" horiz-adv-x="729" arabic-form="final" 
d="M749 62l-20 -62c-37 0 -67 9 -92 30c-9 -230 -134 -289 -325 -289c-189 0 -272 98 -272 257c0 87 31 161 54 204l86 -26c-12 -33 -27 -88 -27 -156c0 -86 47 -144 171 -144c145 0 203 48 203 171c0 80 -23 153 -65 240l124 49c10 -33 24 -73 36 -106
c30 -82 64 -95 118 -95z" />
    <glyph glyph-name="uniFBA1" unicode="&#x6bb;" horiz-adv-x="729" arabic-form="final" 
d="M449 424c0 -34 -23 -88 -101 -88h-155l7 62h33v152h61v-70c26 27 49 36 75 36c53 0 80 -41 80 -92zM278 398h60c40 0 53 9 53 29c0 15 -8 26 -29 26c-31 0 -61 -26 -84 -55zM749 62l-20 -62c-37 0 -67 9 -92 30c-9 -230 -134 -289 -325 -289c-189 0 -272 98 -272 257
c0 87 31 161 54 204l86 -26c-12 -33 -27 -88 -27 -156c0 -86 47 -144 171 -144c145 0 203 48 203 171c0 80 -23 153 -65 240l124 49c10 -33 24 -73 36 -106c30 -82 64 -95 118 -95z" />
    <glyph glyph-name="uniFBA3" unicode="&#x6bb;" horiz-adv-x="335" arabic-form="medial" 
d="M294 504c0 -34 -23 -88 -101 -88h-155l7 62h33v152h61v-70c26 27 49 36 75 36c53 0 80 -41 80 -92zM123 478h60c40 0 53 9 53 29c0 15 -8 26 -29 26c-31 0 -61 -26 -84 -55zM346 135l9 -73l-20 -62c-80 0 -132 15 -167 68c-35 -53 -84 -68 -168 -68l-20 62l32 73
c99 0 100 23 100 95v108h112v-107c0 -74 14 -96 122 -96z" />
    <glyph glyph-name="uniFBA2" unicode="&#x6bb;" horiz-adv-x="312" arabic-form="initial" 
d="M253 574c0 -34 -23 -88 -101 -88h-155l7 62h33v152h61v-70c26 27 49 36 75 36c53 0 80 -41 80 -92zM82 548h60c40 0 53 9 53 29c0 15 -8 26 -29 26c-31 0 -61 -26 -84 -55zM219 420c29 -84 43 -172 43 -232c0 -153 -66 -188 -262 -188l-20 62l31 73c116 0 137 15 137 68
c0 37 -15 93 -47 179z" />
    <glyph glyph-name="uni06BC.init" unicode="&#x6bc;" horiz-adv-x="312" 
d="M125 483c-37 0 -65 29 -65 65c0 37 28 66 65 66s65 -29 65 -66c0 -36 -28 -65 -65 -65zM262 188c0 -76 -16 -122 -56 -150c14 -16 23 -38 23 -63c0 -53 -40 -91 -93 -91s-94 38 -94 91c0 9 1 18 3 26c-14 -1 -29 -1 -45 -1l-20 62l31 73c116 0 137 15 137 68
c0 37 -15 93 -47 179l118 38c29 -84 43 -172 43 -232zM136 10h-1c-5 -1 -9 -2 -14 -3c-14 -5 -22 -16 -22 -32c0 -18 14 -34 37 -34s37 16 37 34c0 21 -15 35 -37 35z" />
    <glyph glyph-name="uni06BC.medi" unicode="&#x6bc;" horiz-adv-x="335" 
d="M167 413c-37 0 -65 29 -65 65c0 37 28 66 65 66s65 -29 65 -66c0 -36 -28 -65 -65 -65zM335 0c-80 0 -132 15 -167 68c-2 -4 -5 -8 -8 -11c27 -16 45 -44 45 -79c0 -53 -40 -91 -94 -91c-52 0 -94 38 -94 91c0 8 1 15 3 22h-20l-20 62l32 73c99 0 100 23 100 95v108h112
v-107c0 -74 14 -96 122 -96l9 -73zM111 -56c24 0 37 16 37 34c0 21 -15 35 -37 35s-37 -14 -37 -35c0 -18 14 -34 37 -34z" />
    <glyph glyph-name="uni06BC.fina" unicode="&#x6bc;" horiz-adv-x="729" 
d="M322 333c-37 0 -65 29 -65 65c0 37 28 66 65 66s65 -29 65 -66c0 -36 -28 -65 -65 -65zM749 62l-20 -62c-37 0 -67 9 -92 30c-8 -194 -98 -266 -240 -284c4 -10 6 -22 6 -34c0 -53 -40 -91 -94 -91c-52 0 -94 38 -94 91c0 14 3 26 8 38c-126 27 -183 117 -183 248
c0 87 31 161 54 204l86 -26c-12 -33 -27 -88 -27 -156c0 -86 47 -144 171 -144c145 0 203 48 203 171c0 80 -23 153 -65 240l124 49c10 -33 24 -73 36 -106c30 -82 64 -95 118 -95zM346 -288c0 13 -6 23 -17 29h-17h-22c-11 -5 -17 -16 -17 -29c0 -18 13 -34 36 -34
c24 0 37 16 37 34z" />
    <glyph glyph-name="uni06BD.init" unicode="&#x6bd;" horiz-adv-x="312" 
d="M127 617c-31 0 -57 26 -57 58s26 58 57 58s57 -26 57 -58s-26 -58 -57 -58zM40 486c-33 0 -59 26 -59 57c0 33 26 59 59 59c30 0 57 -26 57 -59c0 -31 -27 -57 -57 -57zM214 486c-30 0 -57 26 -57 57c0 33 27 59 57 59c33 0 59 -26 59 -59c0 -31 -26 -57 -59 -57zM11 135
c116 0 137 15 137 68c0 37 -15 93 -47 179l118 38c29 -84 43 -172 43 -232c0 -153 -66 -188 -262 -188l-20 62z" />
    <glyph glyph-name="uni06BD.medi" unicode="&#x6bd;" horiz-adv-x="335" 
d="M168 547c-31 0 -57 26 -57 58s26 58 57 58s57 -26 57 -58s-26 -58 -57 -58zM81 416c-33 0 -59 26 -59 57c0 33 26 59 59 59c30 0 57 -26 57 -59c0 -31 -27 -57 -57 -57zM198 473c0 33 27 59 57 59c33 0 59 -26 59 -59c0 -31 -26 -57 -59 -57c-30 0 -57 26 -57 57z
M346 135l9 -73l-20 -62c-80 0 -132 15 -167 68c-35 -53 -84 -68 -168 -68l-20 62l32 73c99 0 100 23 100 95v108h112v-107c0 -74 14 -96 122 -96z" />
    <glyph glyph-name="uni06BD.fina" unicode="&#x6bd;" horiz-adv-x="729" 
d="M323 467c-31 0 -57 26 -57 58s26 58 57 58s57 -26 57 -58s-26 -58 -57 -58zM236 336c-33 0 -59 26 -59 57c0 33 26 59 59 59c30 0 57 -26 57 -59c0 -31 -27 -57 -57 -57zM353 393c0 33 27 59 57 59c33 0 59 -26 59 -59c0 -31 -26 -57 -59 -57c-30 0 -57 26 -57 57z
M749 62l-20 -62c-37 0 -67 9 -92 30c-9 -230 -134 -289 -325 -289c-189 0 -272 98 -272 257c0 87 31 161 54 204l86 -26c-12 -33 -27 -88 -27 -156c0 -86 47 -144 171 -144c145 0 203 48 203 171c0 80 -23 153 -65 240l124 49c10 -33 24 -73 36 -106c30 -82 64 -95 118 -95z
" />
    <glyph glyph-name="uniFEEA" unicode="&#x647;" horiz-adv-x="520" arabic-form="final" 
d="M531 135l9 -74l-20 -61h-32c-67 0 -123 24 -151 91c-34 -41 -89 -65 -148 -65c-103 0 -167 65 -167 158c0 114 113 226 300 241v86l113 14v-301c0 -70 22 -89 66 -89h30zM130 204c0 -35 24 -58 79 -58c47 0 86 19 113 43v120c-128 -5 -192 -54 -192 -105z" />
    <glyph glyph-name="uniFEEC" unicode="&#x647;" horiz-adv-x="505" arabic-form="medial" 
d="M525 62l-20 -62h-100c54 -35 73 -82 73 -131c0 -97 -71 -148 -155 -148c-126 0 -238 112 -254 279h-69l-20 61l31 74h59c18 191 132 335 255 335c97 0 154 -65 154 -164c0 -62 -31 -130 -90 -171h128zM310 339c-60 0 -129 -69 -149 -204h28c106 0 185 62 185 138
c0 41 -21 66 -64 66zM301 -150c43 0 65 25 65 57c0 55 -50 93 -137 93h-69c17 -102 79 -150 141 -150z" />
    <glyph glyph-name="uniFEEB" unicode="&#x647;" horiz-adv-x="649" arabic-form="initial" 
d="M157 577c377 -227 441 -287 441 -404c0 -97 -79 -190 -174 -190c-77 0 -144 18 -199 47c-50 -19 -108 -30 -176 -30h-49l-20 60l31 75h73h22c-28 43 -43 91 -43 139c0 69 32 128 82 159c-18 10 -36 21 -56 32zM147 275c0 -46 31 -88 80 -118c57 22 91 60 91 115
s-40 93 -88 93c-44 0 -83 -35 -83 -90zM424 108c51 0 76 23 76 56c0 29 -18 57 -98 112c-1 -61 -20 -116 -57 -161c25 -5 52 -7 79 -7z" />
    <glyph glyph-name="uniFBA5" unicode="&#x6c0;" horiz-adv-x="520" arabic-form="final" 
d="M267 566l-8 66l62 10c-25 23 -36 47 -36 66c0 48 34 90 107 90c25 0 56 -9 85 -26l-40 -62c-21 13 -34 15 -45 15c-23 0 -32 -14 -32 -27s9 -27 28 -44l92 15l11 -67zM531 135l9 -74l-20 -61h-32c-67 0 -123 24 -151 91c-34 -41 -89 -65 -148 -65
c-103 0 -167 65 -167 158c0 114 113 226 300 241v86l113 14v-301c0 -70 22 -89 66 -89h30zM130 204c0 -35 24 -58 79 -58c47 0 86 19 113 43v120c-128 -5 -192 -54 -192 -105z" />
    <glyph glyph-name="uniFBA7" unicode="&#x6c1;" horiz-adv-x="603" arabic-form="final" 
d="M141 -56l-119 24c57 278 148 364 260 364c182 0 129 -197 332 -197l9 -75l-20 -60c-263 0 -248 197 -326 197c-65 0 -96 -81 -136 -253z" />
    <glyph glyph-name="uniFBA9" unicode="&#x6c1;" horiz-adv-x="605" arabic-form="medial" 
d="M616 135l9 -73l-20 -62h-35c-98 0 -155 -43 -155 -141c0 -39 7 -85 21 -142l-101 -34c-101 116 -151 244 -155 373c-36 -39 -82 -56 -146 -56h-34l-20 62l31 73h36c89 0 126 57 173 202l8 24l109 -30c-24 -81 -47 -174 -47 -241c0 -70 7 -114 35 -186
c1 147 83 231 259 231h32z" />
    <glyph glyph-name="uniFBA8" unicode="&#x6c1;" horiz-adv-x="312" arabic-form="initial" 
d="M11 135c116 0 137 15 137 68c0 37 -15 93 -47 179l118 38c29 -84 43 -172 43 -232c0 -153 -66 -188 -262 -188l-20 62zM140 -270c-42 0 -72 25 -72 72c0 26 9 51 23 80l36 79h45l-15 -100c32 -8 49 -28 49 -66c0 -37 -27 -65 -66 -65z" />
    <glyph glyph-name="uni06C2.fina" unicode="&#x6c2;" horiz-adv-x="603" 
d="M170 373l-8 66l62 10c-25 23 -36 47 -36 66c0 48 34 90 107 90c25 0 56 -9 85 -26l-40 -62c-21 13 -34 15 -45 15c-23 0 -32 -14 -32 -27s9 -27 28 -44l92 15l11 -67zM614 135l9 -75l-20 -60c-263 0 -248 197 -326 197c-65 0 -96 -81 -136 -253l-119 24
c57 278 148 364 260 364c182 0 129 -197 332 -197z" />
    <glyph glyph-name="uniFBAB" unicode="&#x6be;" horiz-adv-x="596" arabic-form="final" 
d="M616 62l-20 -62h-100c53 -35 72 -82 72 -131c0 -97 -70 -148 -155 -148c-126 0 -237 112 -253 280c-67 3 -116 19 -144 37l53 119c22 -11 50 -19 92 -21c18 190 131 334 254 334c98 0 155 -65 155 -164c0 -62 -32 -130 -91 -171h128zM401 339c-60 0 -129 -69 -149 -204
h28c105 0 185 62 185 138c0 41 -22 66 -64 66zM392 -150c42 0 64 25 64 57c0 55 -50 93 -137 93h-68c17 -102 78 -150 141 -150z" />
    <glyph glyph-name="uniFBAD" unicode="&#x6be;" horiz-adv-x="505" arabic-form="medial" 
d="M525 62l-20 -62h-100c54 -35 73 -82 73 -131c0 -97 -71 -148 -155 -148c-126 0 -238 112 -254 279h-69l-20 61l31 74h59c18 191 132 335 255 335c97 0 154 -65 154 -164c0 -62 -31 -130 -90 -171h128zM310 339c-60 0 -129 -69 -149 -204h28c106 0 185 62 185 138
c0 41 -21 66 -64 66zM301 -150c43 0 65 25 65 57c0 55 -50 93 -137 93h-69c17 -102 79 -150 141 -150z" />
    <glyph glyph-name="uniFBAC" unicode="&#x6be;" horiz-adv-x="649" arabic-form="initial" 
d="M157 577c377 -227 441 -287 441 -404c0 -97 -79 -190 -174 -190c-77 0 -144 18 -199 47c-50 -19 -108 -30 -176 -30h-49l-20 60l31 75h73h22c-28 43 -43 91 -43 139c0 69 32 128 82 159c-18 10 -36 21 -56 32zM147 275c0 -46 31 -88 80 -118c57 22 91 60 91 115
s-40 93 -88 93c-44 0 -83 -35 -83 -90zM424 108c51 0 76 23 76 56c0 29 -18 57 -98 112c-1 -61 -20 -116 -57 -161c25 -5 52 -7 79 -7z" />
    <glyph glyph-name="uni06FF.init" unicode="&#x6ff;" horiz-adv-x="649" 
d="M388 649l-48 -80l-64 26l79 142h64l81 -142l-64 -26zM157 577c377 -227 441 -287 441 -404c0 -97 -79 -190 -174 -190c-77 0 -144 18 -199 47c-50 -19 -108 -30 -176 -30h-49l-20 60l31 75h73h22c-28 43 -43 91 -43 139c0 69 32 128 82 159c-18 10 -36 21 -56 32z
M147 275c0 -46 31 -88 80 -118c57 22 91 60 91 115s-40 93 -88 93c-44 0 -83 -35 -83 -90zM424 108c51 0 76 23 76 56c0 29 -18 57 -98 112c-1 -61 -20 -116 -57 -161c25 -5 52 -7 79 -7z" />
    <glyph glyph-name="uni06FF.medi" unicode="&#x6ff;" horiz-adv-x="505" 
d="M325 618l-48 -80l-64 26l79 142h64l81 -142l-64 -26zM525 62l-20 -62h-100c54 -35 73 -82 73 -131c0 -97 -71 -148 -155 -148c-126 0 -238 112 -254 279h-69l-20 61l31 74h59c18 191 132 335 255 335c97 0 154 -65 154 -164c0 -62 -31 -130 -90 -171h128zM310 339
c-60 0 -129 -69 -149 -204h28c106 0 185 62 185 138c0 41 -21 66 -64 66zM301 -150c43 0 65 25 65 57c0 55 -50 93 -137 93h-69c17 -102 79 -150 141 -150z" />
    <glyph glyph-name="uni06FF.fina" unicode="&#x6ff;" horiz-adv-x="596" 
d="M416 618l-48 -80l-64 26l79 142h64l81 -142l-64 -26zM616 62l-20 -62h-100c53 -35 72 -82 72 -131c0 -97 -70 -148 -155 -148c-126 0 -237 112 -253 280c-67 3 -116 19 -144 37l53 119c22 -11 50 -19 92 -21c18 190 131 334 254 334c98 0 155 -65 155 -164
c0 -62 -32 -130 -91 -171h128zM401 339c-60 0 -129 -69 -149 -204h28c105 0 185 62 185 138c0 41 -22 66 -64 66zM392 -150c42 0 64 25 64 57c0 55 -50 93 -137 93h-68c17 -102 78 -150 141 -150z" />
    <glyph glyph-name="uniFE94" unicode="&#x629;" horiz-adv-x="520" arabic-form="final" 
d="M296 605c-32 0 -60 27 -60 61s28 60 60 60c33 0 61 -26 61 -60s-28 -61 -61 -61zM459 605c-33 0 -60 27 -60 61s27 60 60 60s60 -26 60 -60s-27 -61 -60 -61zM531 135l9 -74l-20 -61h-32c-67 0 -123 24 -151 91c-34 -41 -89 -65 -148 -65c-103 0 -167 65 -167 158
c0 114 113 226 300 241v86l113 14v-301c0 -70 22 -89 66 -89h30zM130 204c0 -35 24 -58 79 -58c47 0 86 19 113 43v120c-128 -5 -192 -54 -192 -105z" />
    <glyph glyph-name="uni06C3.fina" unicode="&#x6c3;" horiz-adv-x="603" 
d="M199 412c-32 0 -60 27 -60 61s28 60 60 60c33 0 61 -26 61 -60s-28 -61 -61 -61zM362 412c-33 0 -60 27 -60 61s27 60 60 60s60 -26 60 -60s-27 -61 -60 -61zM141 -56l-119 24c57 278 148 364 260 364c182 0 129 -197 332 -197l9 -75l-20 -60c-263 0 -248 197 -326 197
c-65 0 -96 -81 -136 -253z" />
    <glyph glyph-name="uniFEEE" unicode="&#x648;" horiz-adv-x="547" arabic-form="final" 
d="M567 61l-20 -61h-92c-34 -150 -149 -225 -372 -278l-43 124c182 40 274 91 311 154h-61c-143 0 -220 77 -220 189c0 123 87 214 192 214c104 0 195 -87 203 -268h93zM286 124c27 0 57 1 83 4c-9 111 -51 154 -111 154c-53 0 -92 -34 -92 -82c0 -52 37 -76 120 -76z" />
    <glyph glyph-name="uni06C4.fina" unicode="&#x6c4;" horiz-adv-x="547" 
d="M567 61l-20 -61h-92c-34 -150 -149 -225 -372 -278l-43 124l27 6c-11 14 -18 32 -18 53c0 49 39 83 85 83s84 -34 84 -83v-5c69 29 111 62 133 100h-61c-143 0 -220 77 -220 189c0 123 87 214 192 214c104 0 195 -87 203 -268h93zM286 124c27 0 57 1 83 4
c-9 111 -51 154 -111 154c-53 0 -92 -34 -92 -82c0 -52 37 -76 120 -76zM134 -64c-20 0 -33 -13 -33 -31c0 -16 12 -31 33 -31s33 15 33 31c0 18 -13 31 -33 31z" />
    <glyph glyph-name="uni06CA.fina" unicode="&#x6ca;" horiz-adv-x="547" 
d="M182 484c-32 0 -60 27 -60 61s28 60 60 60c33 0 61 -26 61 -60s-28 -61 -61 -61zM345 484c-33 0 -60 27 -60 61s27 60 60 60s60 -26 60 -60s-27 -61 -60 -61zM567 61l-20 -61h-92c-34 -150 -149 -225 -372 -278l-43 124c182 40 274 91 311 154h-61
c-143 0 -220 77 -220 189c0 123 87 214 192 214c104 0 195 -87 203 -268h93zM286 124c27 0 57 1 83 4c-9 111 -51 154 -111 154c-53 0 -92 -34 -92 -82c0 -52 37 -76 120 -76z" />
    <glyph glyph-name="uni06CF.fina" unicode="&#x6cf;" horiz-adv-x="547" 
d="M262 471c-37 0 -65 29 -65 65c0 37 28 66 65 66s65 -29 65 -66c0 -36 -28 -65 -65 -65zM567 61l-20 -61h-92c-34 -150 -149 -225 -372 -278l-43 124c182 40 274 91 311 154h-61c-143 0 -220 77 -220 189c0 123 87 214 192 214c104 0 195 -87 203 -268h93zM286 124
c27 0 57 1 83 4c-9 111 -51 154 -111 154c-53 0 -92 -34 -92 -82c0 -52 37 -76 120 -76z" />
    <glyph glyph-name="uniFE86" unicode="&#x624;" horiz-adv-x="547" arabic-form="final" 
d="M153 445l-8 66l62 10c-25 23 -36 47 -36 66c0 48 34 90 107 90c25 0 56 -9 85 -26l-40 -62c-21 13 -34 15 -45 15c-23 0 -32 -14 -32 -27s9 -27 28 -44l92 15l11 -67zM567 61l-20 -61h-92c-34 -150 -149 -225 -372 -278l-43 124c182 40 274 91 311 154h-61
c-143 0 -220 77 -220 189c0 123 87 214 192 214c104 0 195 -87 203 -268h93zM286 124c27 0 57 1 83 4c-9 111 -51 154 -111 154c-53 0 -92 -34 -92 -82c0 -52 37 -76 120 -76z" />
    <glyph glyph-name="uniFBE1" unicode="&#x6c5;" horiz-adv-x="547" arabic-form="final" 
d="M567 61l-20 -61h-92c-34 -150 -149 -225 -372 -278l-43 124c71 16 128 33 174 52l-143 3l-36 58l268 -11c21 16 37 33 48 52h-61c-143 0 -220 77 -220 189c0 123 87 214 192 214c104 0 195 -87 203 -268h93zM286 124c27 0 57 1 83 4c-9 111 -51 154 -111 154
c-53 0 -92 -34 -92 -82c0 -52 37 -76 120 -76z" />
    <glyph glyph-name="uniFBDA" unicode="&#x6c6;" horiz-adv-x="547" arabic-form="final" 
d="M295 445h-64l-79 142l64 27l48 -81l48 81l64 -27zM567 61l-20 -61h-92c-34 -150 -149 -225 -372 -278l-43 124c182 40 274 91 311 154h-61c-143 0 -220 77 -220 189c0 123 87 214 192 214c104 0 195 -87 203 -268h93zM286 124c27 0 57 1 83 4c-9 111 -51 154 -111 154
c-53 0 -92 -34 -92 -82c0 -52 37 -76 120 -76z" />
    <glyph glyph-name="uniFBD8" unicode="&#x6c7;" horiz-adv-x="547" arabic-form="final" 
d="M199 434l-30 60c30 9 55 20 75 32c-41 20 -57 49 -57 77c0 55 45 86 90 86c57 0 84 -40 84 -85c0 -55 -35 -126 -162 -170zM276 622c-13 0 -24 -8 -24 -26c0 -13 9 -26 32 -37c10 12 15 25 15 36c0 16 -9 27 -23 27zM567 61l-20 -61h-92c-34 -150 -149 -225 -372 -278
l-43 124c182 40 274 91 311 154h-61c-143 0 -220 77 -220 189c0 123 87 214 192 214c104 0 195 -87 203 -268h93zM286 124c27 0 57 1 83 4c-9 111 -51 154 -111 154c-53 0 -92 -34 -92 -82c0 -52 37 -76 120 -76z" />
    <glyph glyph-name="uniFBDC" unicode="&#x6c8;" horiz-adv-x="547" arabic-form="final" 
d="M300 642v-188h-73v179zM567 61l-20 -61h-92c-34 -150 -149 -225 -372 -278l-43 124c182 40 274 91 311 154h-61c-143 0 -220 77 -220 189c0 123 87 214 192 214c104 0 195 -87 203 -268h93zM286 124c27 0 57 1 83 4c-9 111 -51 154 -111 154c-53 0 -92 -34 -92 -82
c0 -52 37 -76 120 -76z" />
    <glyph glyph-name="uniFBE3" unicode="&#x6c9;" horiz-adv-x="547" arabic-form="final" 
d="M264 552l-48 -80l-64 26l79 142h64l81 -142l-64 -26zM567 61l-20 -61h-92c-34 -150 -149 -225 -372 -278l-43 124c182 40 274 91 311 154h-61c-143 0 -220 77 -220 189c0 123 87 214 192 214c104 0 195 -87 203 -268h93zM286 124c27 0 57 1 83 4c-9 111 -51 154 -111 154
c-53 0 -92 -34 -92 -82c0 -52 37 -76 120 -76z" />
    <glyph glyph-name="uniFBDF" unicode="&#x6cb;" horiz-adv-x="547" arabic-form="final" 
d="M264 605c-31 0 -57 26 -57 58s26 58 57 58s57 -26 57 -58s-26 -58 -57 -58zM177 474c-33 0 -59 26 -59 57c0 33 26 59 59 59c30 0 57 -26 57 -59c0 -31 -27 -57 -57 -57zM294 531c0 33 27 59 57 59c33 0 59 -26 59 -59c0 -31 -26 -57 -59 -57c-30 0 -57 26 -57 57z
M567 61l-20 -61h-92c-34 -150 -149 -225 -372 -278l-43 124c182 40 274 91 311 154h-61c-143 0 -220 77 -220 189c0 123 87 214 192 214c104 0 195 -87 203 -268h93zM286 124c27 0 57 1 83 4c-9 111 -51 154 -111 154c-53 0 -92 -34 -92 -82c0 -52 37 -76 120 -76z" />
    <glyph glyph-name="uniFEF0" unicode="&#x649;" horiz-adv-x="723" arabic-form="final" 
d="M743 62l-20 -62c-22 0 -45 5 -68 13c4 -11 7 -22 7 -33c0 -104 -111 -199 -350 -199c-189 0 -272 98 -272 257c0 87 31 161 54 204l86 -25c-12 -33 -27 -89 -27 -157c0 -85 47 -144 171 -144c149 0 236 45 236 81c0 34 -43 54 -156 83l54 117c108 -29 194 -62 276 -62z
" />
    <glyph glyph-name="uniFEF2" unicode="&#x64a;" horiz-adv-x="723" arabic-form="final" 
d="M743 62l-20 -62c-22 0 -45 5 -68 13c4 -11 7 -22 7 -33c0 -104 -111 -199 -350 -199c-189 0 -272 98 -272 257c0 87 31 161 54 204l86 -25c-12 -33 -27 -89 -27 -157c0 -85 47 -144 171 -144c149 0 236 45 236 81c0 34 -43 54 -156 83l54 117c108 -29 194 -62 276 -62z
M235 -294c33 0 61 -26 61 -60s-28 -60 -61 -60c-32 0 -60 26 -60 60s28 60 60 60zM398 -294c33 0 60 -26 60 -60s-27 -60 -60 -60s-60 26 -60 60s27 60 60 60z" />
    <glyph glyph-name="uniFEF4" unicode="&#x64a;" horiz-adv-x="335" arabic-form="medial" 
d="M346 135l9 -73l-20 -62c-80 0 -132 15 -167 68c-35 -53 -84 -68 -168 -68l-20 62l32 73c99 0 100 23 100 95v108h112v-107c0 -74 14 -96 122 -96zM85 -83c33 0 61 -26 61 -60s-28 -60 -61 -60c-32 0 -60 26 -60 60s28 60 60 60zM248 -83c33 0 60 -26 60 -60
s-27 -60 -60 -60s-60 26 -60 60s27 60 60 60z" />
    <glyph glyph-name="uniFEF3" unicode="&#x64a;" horiz-adv-x="312" arabic-form="initial" 
d="M11 135c116 0 137 15 137 68c0 37 -15 93 -47 179l118 38c29 -84 43 -172 43 -232c0 -153 -66 -188 -262 -188l-20 62zM65 -203c-32 0 -60 26 -60 60s28 60 60 60c33 0 61 -26 61 -60s-28 -60 -61 -60zM228 -203c-33 0 -60 26 -60 60s27 60 60 60s60 -26 60 -60
s-27 -60 -60 -60z" />
    <glyph glyph-name="uniFE8A" unicode="&#x626;" horiz-adv-x="723" arabic-form="final" 
d="M41 298l-8 66l62 10c-25 23 -36 47 -36 66c0 48 34 90 107 90c25 0 56 -9 85 -26l-40 -62c-21 13 -34 15 -45 15c-23 0 -32 -14 -32 -27s9 -27 28 -44l92 15l11 -67zM743 62l-20 -62c-22 0 -45 5 -68 13c4 -11 7 -22 7 -33c0 -104 -111 -199 -350 -199
c-189 0 -272 98 -272 257c0 87 31 161 54 204l86 -25c-12 -33 -27 -89 -27 -157c0 -85 47 -144 171 -144c149 0 236 45 236 81c0 34 -43 54 -156 83l54 117c108 -29 194 -62 276 -62z" />
    <glyph glyph-name="uniFE8C" unicode="&#x626;" horiz-adv-x="335" arabic-form="medial" 
d="M57 387l-8 66l62 10c-25 23 -36 47 -36 66c0 48 34 90 107 90c25 0 56 -9 85 -26l-40 -62c-21 13 -34 15 -45 15c-23 0 -32 -14 -32 -27s9 -27 28 -44l92 15l11 -67zM346 135l9 -73l-20 -62c-80 0 -132 15 -167 68c-35 -53 -84 -68 -168 -68l-20 62l32 73
c99 0 100 23 100 95v108h112v-107c0 -74 14 -96 122 -96z" />
    <glyph glyph-name="uniFE8B" unicode="&#x626;" horiz-adv-x="312" arabic-form="initial" 
d="M16 457l-8 66l62 10c-25 23 -36 47 -36 66c0 48 34 90 107 90c25 0 56 -9 85 -26l-40 -62c-21 13 -34 15 -45 15c-23 0 -32 -14 -32 -27s9 -27 28 -44l92 15l11 -67zM219 420c29 -84 43 -172 43 -232c0 -153 -66 -188 -262 -188l-20 62l31 73c116 0 137 15 137 68
c0 37 -15 93 -47 179z" />
    <glyph glyph-name="uni06CE.init" unicode="&#x6ce;" horiz-adv-x="312" 
d="M79 626l48 -81l48 81l64 -27l-81 -142h-64l-79 142zM11 135c116 0 137 15 137 68c0 37 -15 93 -47 179l118 38c29 -84 43 -172 43 -232c0 -153 -66 -188 -262 -188l-20 62zM65 -203c-32 0 -60 26 -60 60s28 60 60 60c33 0 61 -26 61 -60s-28 -60 -61 -60zM228 -203
c-33 0 -60 26 -60 60s27 60 60 60s60 -26 60 -60s-27 -60 -60 -60z" />
    <glyph glyph-name="uni06CE.medi" unicode="&#x6ce;" horiz-adv-x="335" 
d="M199 387h-64l-79 142l64 27l48 -81l48 81l64 -27zM346 135l9 -73l-20 -62c-80 0 -132 15 -167 68c-35 -53 -84 -68 -168 -68l-20 62l32 73c99 0 100 23 100 95v108h112v-107c0 -74 14 -96 122 -96zM85 -83c33 0 61 -26 61 -60s-28 -60 -61 -60c-32 0 -60 26 -60 60
s28 60 60 60zM248 -83c33 0 60 -26 60 -60s-27 -60 -60 -60s-60 26 -60 60s27 60 60 60z" />
    <glyph glyph-name="uni06CE.fina" unicode="&#x6ce;" horiz-adv-x="723" 
d="M183 298h-64l-79 142l64 27l48 -81l48 81l64 -27zM743 62l-20 -62c-22 0 -45 5 -68 13c4 -11 7 -22 7 -33c0 -104 -111 -199 -350 -199c-189 0 -272 98 -272 257c0 87 31 161 54 204l86 -25c-12 -33 -27 -89 -27 -157c0 -85 47 -144 171 -144c149 0 236 45 236 81
c0 34 -43 54 -156 83l54 117c108 -29 194 -62 276 -62z" />
    <glyph glyph-name="uniFBFD" unicode="&#x6cc;" horiz-adv-x="723" arabic-form="final" 
d="M743 62l-20 -62c-22 0 -45 5 -68 13c4 -11 7 -22 7 -33c0 -104 -111 -199 -350 -199c-189 0 -272 98 -272 257c0 87 31 161 54 204l86 -25c-12 -33 -27 -89 -27 -157c0 -85 47 -144 171 -144c149 0 236 45 236 81c0 34 -43 54 -156 83l54 117c108 -29 194 -62 276 -62z
" />
    <glyph glyph-name="uniFBFF" unicode="&#x6cc;" horiz-adv-x="335" arabic-form="medial" 
d="M346 135l9 -73l-20 -62c-80 0 -132 15 -167 68c-35 -53 -84 -68 -168 -68l-20 62l32 73c99 0 100 23 100 95v108h112v-107c0 -74 14 -96 122 -96zM85 -83c33 0 61 -26 61 -60s-28 -60 -61 -60c-32 0 -60 26 -60 60s28 60 60 60zM248 -83c33 0 60 -26 60 -60
s-27 -60 -60 -60s-60 26 -60 60s27 60 60 60z" />
    <glyph glyph-name="uniFBFE" unicode="&#x6cc;" horiz-adv-x="312" arabic-form="initial" 
d="M11 135c116 0 137 15 137 68c0 37 -15 93 -47 179l118 38c29 -84 43 -172 43 -232c0 -153 -66 -188 -262 -188l-20 62zM65 -203c-32 0 -60 26 -60 60s28 60 60 60c33 0 61 -26 61 -60s-28 -60 -61 -60zM228 -203c-33 0 -60 26 -60 60s27 60 60 60s60 -26 60 -60
s-27 -60 -60 -60z" />
    <glyph glyph-name="uni06CD.fina" unicode="&#x6cd;" horiz-adv-x="777" 
d="M797 62l-20 -62c-22 0 -44 5 -67 13c4 -11 7 -22 7 -33c0 -104 -111 -199 -350 -199c-189 0 -273 98 -273 257c0 30 4 58 9 84c-30 -9 -61 -15 -92 -18l-15 59c53 17 102 42 152 79l87 -25c-13 -33 -28 -89 -28 -157c0 -85 47 -144 171 -144c149 0 237 45 237 81
c0 34 -44 54 -157 83l54 117c109 -29 194 -62 276 -62z" />
    <glyph glyph-name="uni0620.init" unicode="&#x620;" horiz-adv-x="312" 
d="M212 42c17 -16 28 -39 28 -67c0 -53 -40 -91 -94 -91c-52 0 -94 38 -94 91c0 9 1 18 4 26c-18 -1 -36 -1 -56 -1l-20 62l31 73c116 0 137 15 137 68c0 37 -15 93 -47 179l118 38c29 -84 43 -172 43 -232c0 -72 -14 -117 -50 -146zM146 -59c24 0 37 16 37 34
c0 21 -15 35 -37 35s-36 -14 -36 -35c0 -18 13 -34 36 -34z" />
    <glyph glyph-name="uni0620.medi" unicode="&#x620;" horiz-adv-x="335" 
d="M355 62l-20 -62c-58 0 -102 8 -134 33c11 -15 17 -34 17 -55c0 -53 -40 -91 -93 -91s-94 38 -94 91c0 8 1 16 3 23c-11 -1 -22 -1 -34 -1l-20 62l32 73c99 0 100 23 100 95v108h112v-107c0 -74 14 -96 122 -96zM179 54c-4 4 -7 9 -11 14c-1 -2 -2 -4 -4 -6
c5 -2 10 -5 15 -8zM125 -56c23 0 37 16 37 34c0 21 -15 35 -37 35s-37 -14 -37 -35c0 -18 14 -34 37 -34z" />
    <glyph glyph-name="uni0620.fina" unicode="&#x620;" horiz-adv-x="723" 
d="M743 62l-20 -62c-22 0 -45 5 -68 13c4 -11 7 -22 7 -33c0 -91 -85 -175 -267 -195c6 -12 9 -26 9 -41c0 -53 -40 -91 -93 -91s-94 38 -94 91c0 17 4 32 11 45c-130 25 -188 116 -188 249c0 87 31 161 54 204l86 -25c-12 -33 -27 -89 -27 -157c0 -85 47 -144 171 -144
c149 0 236 45 236 81c0 34 -43 54 -156 83l54 117c108 -29 194 -62 276 -62zM311 -290c23 0 36 16 36 34c0 20 -14 34 -36 34s-37 -14 -37 -34c0 -18 14 -34 37 -34z" />
    <glyph glyph-name="uniFBE5" unicode="&#x6d0;" horiz-adv-x="723" arabic-form="final" 
d="M743 62l-20 -62c-22 0 -45 5 -68 13c4 -11 7 -22 7 -33c0 -104 -111 -199 -350 -199c-189 0 -272 98 -272 257c0 87 31 161 54 204l86 -25c-12 -33 -27 -89 -27 -157c0 -85 47 -144 171 -144c149 0 236 45 236 81c0 34 -43 54 -156 83l54 117c108 -29 194 -62 276 -62z
M317 -404c-33 0 -60 27 -60 61c0 33 27 60 60 60c34 0 60 -27 60 -60c0 -34 -26 -61 -60 -61zM318 -439c33 0 60 -28 60 -61s-27 -60 -60 -60c-34 0 -60 27 -60 60s26 61 60 61z" />
    <glyph glyph-name="uniFBE7" unicode="&#x6d0;" horiz-adv-x="335" arabic-form="medial" 
d="M346 135l9 -73l-20 -62c-80 0 -132 15 -167 68c-35 -53 -84 -68 -168 -68l-20 62l32 73c99 0 100 23 100 95v108h112v-107c0 -74 14 -96 122 -96zM167 -193c-33 0 -60 27 -60 61c0 33 27 60 60 60c34 0 60 -27 60 -60c0 -34 -26 -61 -60 -61zM168 -228
c33 0 60 -28 60 -61s-27 -60 -60 -60c-34 0 -60 27 -60 60s26 61 60 61z" />
    <glyph glyph-name="uniFBE6" unicode="&#x6d0;" horiz-adv-x="312" arabic-form="initial" 
d="M11 135c116 0 137 15 137 68c0 37 -15 93 -47 179l118 38c29 -84 43 -172 43 -232c0 -153 -66 -188 -262 -188l-20 62zM147 -193c-33 0 -60 27 -60 61c0 33 27 60 60 60c34 0 60 -27 60 -60c0 -34 -26 -61 -60 -61zM148 -349c-34 0 -60 27 -60 60s26 61 60 61
c33 0 60 -28 60 -61s-27 -60 -60 -60z" />
    <glyph glyph-name="uni06D1.init" unicode="&#x6d1;" horiz-adv-x="312" 
d="M11 135c116 0 137 15 137 68c0 37 -15 93 -47 179l118 38c29 -84 43 -172 43 -232c0 -153 -66 -188 -262 -188l-20 62zM60 -89c30 0 57 -26 57 -57c0 -33 -27 -58 -57 -58c-33 0 -59 25 -59 58c0 31 26 57 59 57zM234 -89c33 0 59 -26 59 -57c0 -33 -26 -58 -59 -58
c-30 0 -57 25 -57 58c0 31 27 57 57 57zM147 -220c31 0 57 -26 57 -58s-26 -57 -57 -57s-57 25 -57 57s26 58 57 58z" />
    <glyph glyph-name="uni06D1.medi" unicode="&#x6d1;" horiz-adv-x="335" 
d="M346 135l9 -73l-20 -62c-80 0 -132 15 -167 68c-35 -53 -84 -68 -168 -68l-20 62l32 73c99 0 100 23 100 95v108h112v-107c0 -74 14 -96 122 -96zM137 -146c0 -33 -27 -58 -57 -58c-33 0 -59 25 -59 58c0 31 26 57 59 57c30 0 57 -26 57 -57zM254 -89c33 0 59 -26 59 -57
c0 -33 -26 -58 -59 -58c-30 0 -57 25 -57 58c0 31 27 57 57 57zM167 -220c31 0 57 -26 57 -58s-26 -57 -57 -57s-57 25 -57 57s26 58 57 58z" />
    <glyph glyph-name="uni06D1.fina" unicode="&#x6d1;" horiz-adv-x="723" 
d="M743 62l-20 -62c-22 0 -45 5 -68 13c4 -11 7 -22 7 -33c0 -104 -111 -199 -350 -199c-189 0 -272 98 -272 257c0 87 31 161 54 204l86 -25c-12 -33 -27 -89 -27 -157c0 -85 47 -144 171 -144c149 0 236 45 236 81c0 34 -43 54 -156 83l54 117c108 -29 194 -62 276 -62z
M287 -357c0 -33 -27 -58 -57 -58c-33 0 -59 25 -59 58c0 31 26 57 59 57c30 0 57 -26 57 -57zM404 -300c33 0 59 -26 59 -57c0 -33 -26 -58 -59 -58c-30 0 -57 25 -57 58c0 31 27 57 57 57zM317 -431c31 0 57 -26 57 -58s-26 -57 -57 -57s-57 25 -57 57s26 58 57 58z" />
    <glyph glyph-name="uniFBAF" unicode="&#x6d2;" horiz-adv-x="787" arabic-form="final" 
d="M734 -292h-505c-148 0 -207 79 -207 155c0 131 115 273 360 273h416l9 -74l-20 -62h-428c-163 0 -236 -57 -236 -116c0 -25 13 -43 65 -43h588z" />
    <glyph glyph-name="uniFBB1" unicode="&#x6d3;" horiz-adv-x="787" arabic-form="final" 
d="M362 315l11 -67l-224 -36l-8 66l62 10c-25 23 -36 47 -36 66c0 48 34 90 107 90c25 0 56 -9 85 -26l-40 -62c-21 13 -34 15 -45 15c-23 0 -32 -14 -32 -27s9 -27 27 -45zM734 -292h-505c-148 0 -207 79 -207 155c0 131 115 273 360 273h416l9 -74l-20 -62h-428
c-163 0 -236 -57 -236 -116c0 -25 13 -43 65 -43h588z" />
    <glyph glyph-name="uni0676.fina" unicode="&#x676;" horiz-adv-x="547" 
d="M229 499l-9 66l63 10c-26 23 -37 47 -37 66c0 48 34 90 107 90c25 0 56 -9 85 -26l-40 -62c-21 13 -33 15 -45 15c-23 0 -32 -15 -32 -27c0 -13 9 -27 28 -45l93 16l10 -67zM567 61l-20 -61h-92c-34 -150 -149 -225 -372 -278l-43 124c182 40 274 91 311 154h-61
c-143 0 -220 77 -220 189c0 123 87 214 192 214c104 0 195 -87 203 -268h93zM286 124c27 0 57 1 83 4c-9 111 -51 154 -111 154c-53 0 -92 -34 -92 -82c0 -52 37 -76 120 -76z" />
    <glyph glyph-name="uni0677.fina" unicode="&#x677;" horiz-adv-x="547" 
d="M196 702l-30 60c30 9 55 20 75 32c-41 20 -57 49 -57 77c0 55 45 86 90 86c57 0 84 -40 84 -85c0 -55 -35 -126 -162 -170zM273 890c-13 0 -24 -8 -24 -26c0 -13 9 -26 32 -37c10 12 15 25 15 36c0 16 -9 27 -23 27zM377 481l-224 -36l-8 66l62 10c-25 23 -36 47 -36 66
c0 48 34 90 107 90c25 0 56 -9 85 -26l-40 -62c-21 13 -34 15 -45 15c-23 0 -32 -14 -32 -27s9 -27 27 -45l93 16zM567 61l-20 -61h-92c-34 -150 -149 -225 -372 -278l-43 124c182 40 274 91 311 154h-61c-143 0 -220 77 -220 189c0 123 87 214 192 214
c104 0 195 -87 203 -268h93zM286 124c27 0 57 1 83 4c-9 111 -51 154 -111 154c-53 0 -92 -34 -92 -82c0 -52 37 -76 120 -76z" />
    <glyph glyph-name="uni0678.init" unicode="&#x678;" horiz-adv-x="312" 
d="M255 642l11 -67l-224 -36l-8 66l62 10c-25 23 -36 47 -36 66c0 48 34 90 107 90c25 0 56 -9 85 -26l-40 -62c-21 13 -34 15 -45 15c-23 0 -32 -15 -32 -27c0 -13 9 -27 27 -45zM11 135c116 0 137 15 137 68c0 37 -15 93 -47 179l118 38c29 -84 43 -172 43 -232
c0 -153 -66 -188 -262 -188l-20 62z" />
    <glyph glyph-name="uni0678.medi" unicode="&#x678;" horiz-adv-x="335" 
d="M80 469l-8 66l62 10c-26 23 -37 47 -37 66c0 48 35 90 107 90c26 0 56 -9 86 -26l-41 -62c-20 13 -33 15 -45 15c-23 0 -31 -15 -31 -27c0 -13 8 -27 27 -45l93 16l11 -67zM346 135l9 -73l-20 -62c-80 0 -132 15 -167 68c-35 -53 -84 -68 -168 -68l-20 62l32 73
c99 0 100 23 100 95v108h112v-107c0 -74 14 -96 122 -96z" />
    <glyph glyph-name="uni0678.fina" unicode="&#x678;" horiz-adv-x="723" 
d="M421 264l-8 66l62 10c-25 23 -36 47 -36 66c0 48 34 90 106 90c26 0 57 -9 86 -26l-41 -62c-20 13 -33 15 -44 15c-24 0 -32 -14 -32 -27s8 -27 27 -45l93 16l11 -67zM743 62l-20 -62c-22 0 -45 5 -68 13c4 -11 7 -22 7 -33c0 -104 -111 -199 -350 -199
c-189 0 -272 98 -272 257c0 87 31 161 54 204l86 -25c-12 -33 -27 -89 -27 -157c0 -85 47 -144 171 -144c149 0 236 45 236 81c0 34 -43 54 -156 83l54 117c108 -29 194 -62 276 -62z" />
    <glyph glyph-name="uni06D5.fina" unicode="&#x6d5;" horiz-adv-x="520" 
d="M531 135l9 -74l-20 -61h-32c-67 0 -123 24 -151 91c-34 -41 -89 -65 -148 -65c-103 0 -167 65 -167 158c0 114 113 226 300 241v86l113 14v-301c0 -70 22 -89 66 -89h30zM130 204c0 -35 24 -58 79 -58c47 0 86 19 113 43v120c-128 -5 -192 -54 -192 -105z" />
    <glyph glyph-name="uniFE70" unicode="&#xfe70;" horiz-adv-x="600" arabic-form="isolated" 
d="M26 686l2 69l226 43l-2 -68zM26 585l2 69l226 43l-2 -69z" />
    <glyph glyph-name="uniFE72" unicode="&#xfe72;" horiz-adv-x="600" arabic-form="isolated" 
d="M241 835c56 0 82 -40 82 -85c0 -55 -42 -128 -140 -174l-55 25c0 25 -4 41 -18 41c-10 0 -18 -5 -32 -20l-34 40c20 25 44 44 70 44c35 0 56 -25 62 -63c14 7 27 16 38 25c-47 23 -63 52 -63 82c0 55 45 85 90 85zM240 768c-14 0 -25 -8 -25 -27c0 -13 8 -26 33 -38
c9 13 14 26 14 38c0 16 -9 27 -22 27z" />
    <glyph glyph-name="uniFE74" unicode="&#xfe74;" horiz-adv-x="600" arabic-form="isolated" 
d="M29 -166l2 69l226 43l-2 -69zM29 -264l3 69l226 43l-3 -68z" />
    <glyph glyph-name="uniFE76" unicode="&#xfe76;" horiz-adv-x="600" arabic-form="isolated" 
d="M26 578l3 70l226 43l-3 -69z" />
    <glyph glyph-name="uniFE78" unicode="&#xfe78;" horiz-adv-x="600" arabic-form="isolated" 
d="M112 824c57 0 84 -40 84 -85c0 -55 -35 -126 -162 -170l-30 60c30 9 55 20 75 32c-41 20 -57 49 -57 77c0 55 45 86 90 86zM111 757c-13 0 -24 -8 -24 -26c0 -13 9 -26 32 -37c10 12 15 25 15 36c0 16 -9 27 -23 27z" />
    <glyph glyph-name="uniFE7C" unicode="&#xfe7c;" horiz-adv-x="600" arabic-form="isolated" 
d="M255 790c12 -27 21 -65 21 -90c0 -51 -30 -82 -78 -82c-30 0 -47 13 -56 28c-11 -17 -28 -31 -60 -31s-73 23 -73 78c0 24 7 49 18 72l55 -14c-3 -11 -6 -25 -6 -41c0 -14 4 -26 17 -26c11 0 21 8 21 31v31h57v-33c0 -17 7 -25 19 -25c14 0 19 12 19 30
c0 15 -4 35 -11 53z" />
    <glyph glyph-name="uniFC61" unicode="&#xfc61;" arabic-form="isolated" 
d="M77 787l-30 60c30 9 55 20 76 32c-42 20 -57 49 -57 77c0 55 44 86 89 86c58 0 85 -40 85 -85c0 -55 -36 -126 -163 -170zM154 975c-13 0 -23 -8 -23 -26c0 -14 9 -26 32 -37c10 12 15 25 15 36c0 16 -9 27 -24 27zM255 790c12 -27 21 -65 21 -90c0 -51 -30 -82 -78 -82
c-30 0 -47 13 -56 28c-11 -17 -28 -31 -60 -31s-73 23 -73 78c0 24 7 49 18 72l55 -14c-3 -11 -6 -25 -6 -41c0 -14 4 -26 17 -26c11 0 21 8 21 31v31h57v-33c0 -17 7 -25 19 -25c14 0 19 12 19 30c0 15 -4 35 -11 53z" />
    <glyph glyph-name="uniFC63" unicode="&#xfc63;" arabic-form="isolated" 
d="M178 995v-188h-73v179zM255 790c12 -27 21 -65 21 -90c0 -51 -30 -82 -78 -82c-30 0 -47 13 -56 28c-11 -17 -28 -31 -60 -31s-73 23 -73 78c0 24 7 49 18 72l55 -14c-3 -11 -6 -25 -6 -41c0 -14 4 -26 17 -26c11 0 21 8 21 31v31h57v-33c0 -17 7 -25 19 -25
c14 0 19 12 19 30c0 15 -4 35 -11 53z" />
    <glyph glyph-name="uniFE7E" unicode="&#xfe7e;" horiz-adv-x="600" arabic-form="isolated" 
d="M199 673c0 -59 -46 -97 -99 -97s-99 38 -99 97s46 97 99 97s99 -38 99 -97zM139 673c0 22 -14 37 -39 37s-39 -15 -39 -37s14 -37 39 -37s39 15 39 37z" />
    <glyph glyph-name=".notdef" horiz-adv-x="666" 
d="M543 1050v-1400h-420v1400h420zM489 998h-311v-1296h311v1296zM324 451c86 0 111 -55 111 -115c0 -70 -28 -108 -95 -118v-45c0 -15 -13 -24 -25 -24c-13 0 -25 9 -25 24v84c72 4 91 24 91 77c0 39 -11 69 -61 69c-21 0 -35 -3 -52 -11c-5 -2 -9 -3 -13 -3
c-15 0 -24 10 -24 23c0 27 54 39 93 39zM315 120c20 0 35 -15 35 -35c0 -21 -15 -37 -35 -37s-35 16 -35 37c0 20 15 35 35 35z" />
    <glyph glyph-name="A" unicode="A" horiz-adv-x="586" 
d="M439 0l-39 155h-217l-39 -155h-153l213 692h179l212 -692h-156zM211 264h161l-81 319z" />
    <glyph glyph-name="Aacute" unicode="&#xc1;" horiz-adv-x="586" 
d="M429 837l-234 -85l-36 73l216 120zM439 0l-39 155h-217l-39 -155h-153l213 692h179l212 -692h-156zM211 264h161l-81 319z" />
    <glyph glyph-name="Aacute.loclHUN" horiz-adv-x="586" 
d="M431 894l-140 -154l-65 37l99 178zM439 0l-39 155h-217l-39 -155h-153l213 692h179l212 -692h-156zM211 264h161l-81 319z" />
    <glyph glyph-name="Abreve" unicode="&#x102;" horiz-adv-x="586" 
d="M293 752c-99 0 -159 71 -167 153l81 15c12 -39 39 -67 86 -67c46 0 74 28 87 67l81 -15c-8 -82 -69 -153 -168 -153zM439 0l-39 155h-217l-39 -155h-153l213 692h179l212 -692h-156zM211 264h161l-81 319z" />
    <glyph glyph-name="uni1EAE" unicode="&#x1eae;" horiz-adv-x="586" 
d="M448 1030l-153 -137l-54 49l128 165zM293 738c-99 0 -159 70 -167 152l81 15c13 -38 40 -67 86 -67s75 29 87 67l81 -15c-8 -82 -69 -152 -168 -152zM439 0l-39 155h-217l-39 -155h-153l213 692h179l212 -692h-156zM211 264h161l-81 319z" />
    <glyph glyph-name="uni1EB6" unicode="&#x1eb6;" horiz-adv-x="586" 
d="M293 752c-99 0 -159 71 -167 153l81 15c12 -39 39 -67 86 -67c46 0 74 28 87 67l81 -15c-8 -82 -69 -153 -168 -153zM595 0h-156l-39 155h-217l-39 -155h-153l213 692h179zM211 264h161l-81 319zM294 -64c50 0 86 -36 86 -82c0 -48 -36 -84 -86 -84c-52 0 -87 36 -87 84
c0 46 35 82 87 82z" />
    <glyph glyph-name="uni1EB0" unicode="&#x1eb0;" horiz-adv-x="586" 
d="M346 942l-54 -49l-153 137l79 77zM293 738c-99 0 -159 70 -167 152l81 15c13 -38 40 -67 86 -67s75 29 87 67l81 -15c-8 -82 -69 -152 -168 -152zM439 0l-39 155h-217l-39 -155h-153l213 692h179l212 -692h-156zM211 264h161l-81 319z" />
    <glyph glyph-name="uni1EB2" unicode="&#x1eb2;" horiz-adv-x="586" 
d="M281 1048c-24 0 -40 -5 -60 -13l-25 62c27 16 60 26 105 26c78 0 121 -41 121 -100c0 -52 -31 -81 -84 -91v-44h-88v89c48 3 71 11 71 39c0 22 -16 32 -40 32zM294 738c-99 0 -159 70 -167 152l81 15c12 -38 39 -67 86 -67c46 0 74 29 87 67l81 -15
c-8 -82 -69 -152 -168 -152zM439 0l-39 155h-217l-39 -155h-153l213 692h179l212 -692h-156zM211 264h161l-81 319z" />
    <glyph glyph-name="uni1EB4" unicode="&#x1eb4;" horiz-adv-x="586" 
d="M239 975c-24 0 -37 -14 -53 -42l-74 34c25 58 67 106 124 106c60 0 82 -44 116 -44c22 0 36 14 53 42l73 -35c-26 -61 -69 -104 -125 -104c-57 0 -81 43 -114 43zM293 838c46 0 74 29 87 67l81 -15c-8 -82 -69 -152 -168 -152s-159 70 -167 152l81 15
c13 -38 40 -67 86 -67zM439 0l-39 155h-217l-39 -155h-153l213 692h179l212 -692h-156zM211 264h161l-81 319z" />
    <glyph glyph-name="uni01CD" unicode="&#x1cd;" horiz-adv-x="586" 
d="M338 751h-88l-140 124l53 60l131 -83l132 83l52 -60zM439 0l-39 155h-217l-39 -155h-153l213 692h179l212 -692h-156zM211 264h161l-81 319z" />
    <glyph glyph-name="Acircumflex" unicode="&#xc2;" horiz-adv-x="586" 
d="M293 839l-131 -83l-53 60l140 124h88l140 -124l-52 -60zM439 0l-39 155h-217l-39 -155h-153l213 692h179l212 -692h-156zM211 264h161l-81 319z" />
    <glyph glyph-name="uni1EA4" unicode="&#x1ea4;" horiz-adv-x="586" 
d="M600 998l-152 -136l-55 49l129 164zM293 803l-131 -83l-53 60l140 124h88l140 -124l-52 -60zM204 692h179l212 -692h-156l-39 155h-217l-39 -155h-153zM211 264h161l-81 319z" />
    <glyph glyph-name="uni1EAC" unicode="&#x1eac;" horiz-adv-x="586" 
d="M293 839l-131 -83l-53 60l140 124h88l140 -124l-52 -60zM595 0h-156l-39 155h-217l-39 -155h-153l213 692h179zM211 264h161l-81 319zM294 -64c50 0 86 -36 86 -82c0 -48 -36 -84 -86 -84c-52 0 -87 36 -87 84c0 46 35 82 87 82z" />
    <glyph glyph-name="uni1EA6" unicode="&#x1ea6;" horiz-adv-x="586" 
d="M193 911l-55 -49l-152 136l78 77zM161 720l-53 60l140 124h88l140 -124l-52 -60l-132 83zM439 0l-39 155h-217l-39 -155h-153l213 692h179l212 -692h-156zM211 264h161l-81 319z" />
    <glyph glyph-name="uni1EA8" unicode="&#x1ea8;" horiz-adv-x="586" 
d="M445 1006c-23 0 -40 -5 -59 -13l-25 62c26 16 59 26 105 26c78 0 120 -42 120 -100c0 -52 -30 -82 -83 -91v-44h-88v88c48 4 71 12 71 40c0 21 -17 32 -41 32zM292 803l-131 -83l-53 60l140 124h88l140 -124l-52 -60zM439 0l-39 155h-217l-39 -155h-153l213 692h179
l212 -692h-156zM211 264h161l-81 319z" />
    <glyph glyph-name="uni1EAA" unicode="&#x1eaa;" horiz-adv-x="586" 
d="M235 975c-24 0 -37 -15 -53 -43l-74 34c25 58 67 106 125 106c59 0 81 -44 116 -44c21 0 35 14 52 42l73 -34c-26 -62 -69 -105 -125 -105s-80 44 -114 44zM291 803l-131 -83l-53 60l140 124h88l140 -124l-52 -60zM439 0l-39 155h-217l-39 -155h-153l213 692h179
l212 -692h-156zM211 264h161l-81 319z" />
    <glyph glyph-name="uni0200" unicode="&#x200;" horiz-adv-x="586" 
d="M260 788l-76 -35l-118 176l99 50zM421 790l-77 -32l-109 173l100 48zM439 0l-39 155h-217l-39 -155h-153l213 692h179l212 -692h-156zM211 264h161l-81 319z" />
    <glyph glyph-name="Adieresis" unicode="&#xc4;" horiz-adv-x="586" 
d="M179 770c-42 0 -75 33 -75 74s33 74 75 74c43 0 75 -33 75 -74s-32 -74 -75 -74zM405 770c-41 0 -74 33 -74 74s33 74 74 74c43 0 76 -33 76 -74s-33 -74 -76 -74zM439 0l-39 155h-217l-39 -155h-153l213 692h179l212 -692h-156zM211 264h161l-81 319z" />
    <glyph glyph-name="uni01DE" unicode="&#x1de;" horiz-adv-x="586" 
d="M445 1031v-100h-297v100h297zM181 746c-42 0 -76 32 -76 74c0 40 34 73 76 73s74 -33 74 -73c0 -42 -32 -74 -74 -74zM332 820c0 40 33 73 74 73c43 0 76 -33 76 -73c0 -42 -33 -74 -76 -74c-41 0 -74 32 -74 74zM439 0l-39 155h-217l-39 -155h-153l213 692h179l212 -692
h-156zM211 264h161l-81 319z" />
    <glyph glyph-name="uni0226" unicode="&#x226;" horiz-adv-x="586" 
d="M293 763c-51 0 -86 36 -86 83s35 83 86 83s87 -36 87 -83s-36 -83 -87 -83zM439 0l-39 155h-217l-39 -155h-153l213 692h179l212 -692h-156zM211 264h161l-81 319z" />
    <glyph glyph-name="uni1EA0" unicode="&#x1ea0;" horiz-adv-x="586" 
d="M595 0h-156l-39 155h-217l-39 -155h-153l213 692h179zM211 264h161l-81 319zM294 -64c50 0 86 -36 86 -82c0 -48 -36 -84 -86 -84c-52 0 -87 36 -87 84c0 46 35 82 87 82z" />
    <glyph glyph-name="uni01E0" unicode="&#x1e0;" horiz-adv-x="586" 
d="M444 1031v-99h-298v99h298zM207 820c0 47 35 83 86 83s86 -36 86 -83s-35 -83 -86 -83s-86 36 -86 83zM439 0l-39 155h-217l-39 -155h-153l213 692h179l212 -692h-156zM211 264h161l-81 319z" />
    <glyph glyph-name="Agrave" unicode="&#xc0;" horiz-adv-x="586" 
d="M423 825l-36 -73l-234 85l54 108zM439 0l-39 155h-217l-39 -155h-153l213 692h179l212 -692h-156zM211 264h161l-81 319z" />
    <glyph glyph-name="uni1EA2" unicode="&#x1ea2;" horiz-adv-x="586" 
d="M280 923c-24 0 -40 -5 -60 -13l-25 62c27 16 60 26 105 26c78 0 121 -41 121 -100c0 -52 -31 -81 -84 -91v-44h-88v89c48 3 71 11 71 39c0 22 -16 32 -40 32zM439 0l-39 155h-217l-39 -155h-153l213 692h179l212 -692h-156zM211 264h161l-81 319z" />
    <glyph glyph-name="uni0202" unicode="&#x202;" horiz-adv-x="586" 
d="M293 844c-47 0 -74 -29 -86 -77l-81 14c8 93 68 163 167 163s160 -70 168 -163l-81 -14c-13 48 -41 77 -87 77zM439 0l-39 155h-217l-39 -155h-153l213 692h179l212 -692h-156zM211 264h161l-81 319z" />
    <glyph glyph-name="uni2C6D" unicode="&#x2c6d;" horiz-adv-x="689" 
d="M609 170c0 -48 12 -65 44 -80l-43 -106c-65 12 -105 35 -127 77c-39 -45 -93 -77 -173 -77c-157 0 -272 124 -272 349c0 238 117 375 276 375c69 0 121 -29 159 -69l10 53h126v-522zM338 92c50 0 90 19 124 57v394c-29 32 -67 55 -121 55c-92 0 -148 -73 -148 -265
c0 -180 59 -241 145 -241z" />
    <glyph glyph-name="Amacron" unicode="&#x100;" horiz-adv-x="586" 
d="M442 884v-100h-298v100h298zM439 0l-39 155h-217l-39 -155h-153l213 692h179l212 -692h-156zM211 264h161l-81 319z" />
    <glyph glyph-name="Aogonek" unicode="&#x104;" horiz-adv-x="586" 
d="M522 0c-99 -38 -120 -75 -120 -105s17 -46 54 -46c20 0 38 2 61 7l-10 -91c-21 -4 -42 -7 -68 -7c-84 0 -142 44 -142 112c0 72 50 120 136 154l-33 131h-217l-39 -155h-153l213 692h179l212 -692h-73zM211 264h161l-81 319z" />
    <glyph glyph-name="Aring" unicode="&#xc5;" horiz-adv-x="586" 
d="M294 735c-81 0 -133 58 -133 126s52 125 133 125s133 -57 133 -125s-52 -126 -133 -126zM294 912c-28 0 -47 -18 -47 -51c0 -34 19 -52 47 -52s47 18 47 52c0 33 -19 51 -47 51zM439 0l-39 155h-217l-39 -155h-153l213 692h179l212 -692h-156zM211 264h161l-81 319z" />
    <glyph glyph-name="Aringacute" unicode="&#x1fa;" horiz-adv-x="586" 
d="M429 1062l-234 -85l-36 73l216 121zM160 848c0 68 52 125 133 125s133 -57 133 -125s-52 -126 -133 -126s-133 58 -133 126zM340 848c0 33 -19 51 -47 51s-47 -18 -47 -51c0 -34 19 -51 47 -51s47 17 47 51zM439 0l-39 155h-217l-39 -155h-153l213 692h179l212 -692h-156
zM211 264h161l-81 319z" />
    <glyph glyph-name="uni023A" unicode="&#x23a;" horiz-adv-x="586" 
d="M595 0h-145l-41 155h-121l-60 -228l-55 13l57 215h-57l-41 -155h-141l213 692h168l17 62l55 -13l-35 -131v-2zM200 257h57l62 235l-28 105zM315 257h67l-34 125v-1z" />
    <glyph glyph-name="Atilde" unicode="&#xc3;" horiz-adv-x="586" 
d="M237 812c-23 0 -37 -16 -53 -45l-73 36c24 60 67 111 124 111c60 0 82 -46 116 -46c22 0 36 15 53 44l73 -36c-26 -65 -69 -110 -125 -110c-57 0 -81 46 -115 46zM439 0l-39 155h-217l-39 -155h-153l213 692h179l212 -692h-156zM211 264h161l-81 319z" />
    <glyph glyph-name="AE" unicode="&#xc6;" horiz-adv-x="838" 
d="M570 108h230v-108h-352l-29 155h-229l-54 -155h-156l272 692h510l-16 -107h-279l39 -182h247v-106h-224zM227 264h171l-60 319z" />
    <glyph glyph-name="AEacute" unicode="&#x1fc;" horiz-adv-x="838" 
d="M616 837l-234 -85l-36 73l216 120zM570 108h230v-108h-352l-29 155h-229l-54 -155h-156l272 692h510l-16 -107h-279l39 -182h247v-106h-224zM227 264h171l-60 319z" />
    <glyph glyph-name="uni01E2" unicode="&#x1e2;" horiz-adv-x="838" 
d="M630 884v-100h-298v100h298zM570 108h230v-108h-352l-29 155h-229l-54 -155h-156l272 692h510l-16 -107h-279l39 -182h247v-106h-224zM227 264h171l-60 319z" />
    <glyph glyph-name="B" unicode="B" horiz-adv-x="615" 
d="M427 366c78 -15 157 -52 157 -165c0 -155 -125 -201 -295 -201h-216v692h189c181 0 292 -49 292 -177c0 -87 -63 -134 -127 -149zM276 586h-56v-175h72c70 0 112 29 112 91c0 64 -43 84 -128 84zM290 109c82 0 141 16 141 98c0 77 -54 104 -128 104h-83v-202h70z" />
    <glyph glyph-name="uni1E02" unicode="&#x1e02;" horiz-adv-x="615" 
d="M296 763c-51 0 -86 36 -86 83s35 83 86 83s87 -36 87 -83s-36 -83 -87 -83zM427 366c78 -15 157 -52 157 -165c0 -155 -125 -201 -295 -201h-216v692h189c181 0 292 -49 292 -177c0 -87 -63 -134 -127 -149zM276 586h-56v-175h72c70 0 112 29 112 91c0 64 -43 84 -128 84
zM290 109c82 0 141 16 141 98c0 77 -54 104 -128 104h-83v-202h70z" />
    <glyph glyph-name="uni1E04" unicode="&#x1e04;" horiz-adv-x="615" 
d="M427 366c78 -15 157 -52 157 -165c0 -155 -125 -201 -295 -201h-216v692h189c181 0 292 -49 292 -177c0 -87 -63 -134 -127 -149zM276 586h-56v-175h72c70 0 112 29 112 91c0 64 -43 84 -128 84zM290 109c82 0 141 16 141 98c0 77 -54 104 -128 104h-83v-202h70zM310 -64
c50 0 86 -36 86 -82c0 -48 -36 -84 -86 -84c-52 0 -87 36 -87 84c0 46 35 82 87 82z" />
    <glyph glyph-name="uniA7B4" unicode="&#xa7b4;" horiz-adv-x="615" 
d="M427 366c78 -15 157 -52 157 -161c0 -152 -122 -205 -256 -205c-38 0 -74 4 -108 11v-219h-147v900h189c181 0 292 -49 292 -177c0 -87 -63 -134 -127 -149zM312 109c66 0 119 26 119 103c0 72 -52 99 -119 99h-37l10 100h17c59 0 102 30 102 89c0 66 -43 86 -128 86h-56
v-470c29 -4 60 -7 92 -7z" />
    <glyph glyph-name="uni0181" unicode="&#x181;" horiz-adv-x="742" 
d="M554 366c78 -15 157 -52 157 -165c0 -155 -124 -201 -295 -201h-216v585h-28c-33 0 -48 -15 -48 -44c0 -23 7 -43 16 -67l-91 -41c-22 32 -44 70 -44 117c0 87 66 142 175 142h209c182 0 293 -49 293 -177c0 -87 -63 -134 -128 -149zM403 586h-55v-175h71
c71 0 113 29 113 91c0 64 -44 84 -129 84zM417 109c82 0 141 16 141 98c0 77 -54 104 -128 104h-82v-202h69z" />
    <glyph glyph-name="uni0181.ss02" horiz-adv-x="592" 
d="M299 442c170 0 272 -71 272 -215c0 -157 -113 -227 -271 -227h-227v692h419l-16 -113h-256v-137h79zM292 109c77 0 125 31 125 116c0 77 -43 113 -129 113h-68v-229h72z" />
    <glyph glyph-name="uni0243" unicode="&#x243;" horiz-adv-x="628" 
d="M441 366c78 -15 157 -52 157 -165c0 -155 -125 -201 -296 -201h-215v174h-72v77h72v441h188c182 0 293 -49 293 -177c0 -87 -63 -134 -127 -149zM290 586h-56v-175h72c70 0 112 29 112 91c0 64 -43 84 -128 84zM303 109c83 0 142 16 142 98c0 77 -54 104 -128 104h-83
v-60h126v-77h-126v-65h69z" />
    <glyph glyph-name="uni0182" unicode="&#x182;" horiz-adv-x="592" 
d="M299 442c170 0 272 -71 272 -215c0 -157 -113 -227 -271 -227h-227v692h419l-16 -113h-256v-137h79zM292 109c77 0 125 31 125 116c0 77 -43 113 -129 113h-68v-229h72z" />
    <glyph glyph-name="C" unicode="C" horiz-adv-x="571" 
d="M346 708c90 0 149 -27 207 -75l-73 -85c-39 32 -79 49 -126 49c-93 0 -161 -70 -161 -250c0 -174 66 -247 162 -247c57 0 98 25 138 56l68 -85c-44 -45 -117 -87 -212 -87c-185 0 -311 127 -311 363c0 233 134 361 308 361z" />
    <glyph glyph-name="Cacute" unicode="&#x106;" horiz-adv-x="571" 
d="M433 945l54 -108l-234 -85l-36 73zM346 708c90 0 149 -27 207 -75l-73 -85c-39 32 -79 49 -126 49c-93 0 -161 -70 -161 -250c0 -174 66 -247 162 -247c57 0 98 25 138 56l68 -85c-44 -45 -117 -87 -212 -87c-185 0 -311 127 -311 363c0 233 134 361 308 361z" />
    <glyph glyph-name="Cacute.loclPLK" horiz-adv-x="571" 
d="M384 955l106 -61l-140 -154l-65 37zM346 708c90 0 149 -27 207 -75l-73 -85c-39 32 -79 49 -126 49c-93 0 -161 -70 -161 -250c0 -174 66 -247 162 -247c57 0 98 25 138 56l68 -85c-44 -45 -117 -87 -212 -87c-185 0 -311 127 -311 363c0 233 134 361 308 361z" />
    <glyph glyph-name="Ccaron" unicode="&#x10c;" horiz-adv-x="571" 
d="M484 935l52 -60l-140 -124h-88l-140 124l53 60l131 -83zM346 708c90 0 149 -27 207 -75l-73 -85c-39 32 -79 49 -126 49c-93 0 -161 -70 -161 -250c0 -174 66 -247 162 -247c57 0 98 25 138 56l68 -85c-44 -45 -117 -87 -212 -87c-185 0 -311 127 -311 363
c0 233 134 361 308 361z" />
    <glyph glyph-name="Ccedilla" unicode="&#xc7;" horiz-adv-x="571" 
d="M561 71c-39 -40 -100 -77 -179 -85v-36c70 -7 101 -45 101 -96c0 -67 -58 -111 -143 -111c-45 0 -83 12 -107 29l33 68c20 -11 39 -17 64 -17c28 0 48 8 48 32c0 25 -27 36 -92 36l12 96c-157 22 -260 146 -260 360c0 233 134 361 308 361c90 0 149 -27 207 -75l-73 -85
c-39 32 -79 49 -126 49c-93 0 -161 -70 -161 -250c0 -174 66 -247 162 -247c57 0 98 25 138 56z" />
    <glyph glyph-name="Ccircumflex" unicode="&#x108;" horiz-adv-x="571" 
d="M221 756l-53 60l140 124h88l140 -124l-52 -60l-132 83zM346 708c90 0 149 -27 207 -75l-73 -85c-39 32 -79 49 -126 49c-93 0 -161 -70 -161 -250c0 -174 66 -247 162 -247c57 0 98 25 138 56l68 -85c-44 -45 -117 -87 -212 -87c-185 0 -311 127 -311 363
c0 233 134 361 308 361z" />
    <glyph glyph-name="Cdotaccent" unicode="&#x10a;" horiz-adv-x="571" 
d="M351 929c51 0 87 -36 87 -83s-36 -83 -87 -83s-86 36 -86 83s35 83 86 83zM346 708c90 0 149 -27 207 -75l-73 -85c-39 32 -79 49 -126 49c-93 0 -161 -70 -161 -250c0 -174 66 -247 162 -247c57 0 98 25 138 56l68 -85c-44 -45 -117 -87 -212 -87
c-185 0 -311 127 -311 363c0 233 134 361 308 361z" />
    <glyph glyph-name="uniA7B3" unicode="&#xa7b3;" horiz-adv-x="562" 
d="M366 299l198 -453h-162l-124 354l-123 -354h-157l193 448l-177 398h161l105 -305l109 305h157z" />
    <glyph glyph-name="uni0187" unicode="&#x187;" horiz-adv-x="571" 
d="M590 847c59 0 100 -18 130 -38l-43 -89c-23 13 -42 21 -70 21c-35 0 -54 -20 -54 -65v-43l-65 -75c-41 24 -83 39 -135 39c-92 0 -160 -70 -160 -250c0 -174 67 -247 162 -247c58 0 98 27 138 58l68 -87c-44 -45 -117 -87 -213 -87c-184 0 -310 127 -310 363
c0 233 136 361 294 361c37 0 68 -6 93 -17c4 98 59 156 165 156z" />
    <glyph glyph-name="uni023B" unicode="&#x23b;" horiz-adv-x="571" 
d="M493 156l68 -85c-44 -45 -117 -87 -212 -87c-26 0 -52 3 -75 8l-18 -65l-55 13l18 69c-111 47 -181 163 -181 338c0 233 134 361 308 361c21 0 40 -1 57 -4l14 50l55 -13l-14 -51c34 -13 65 -32 95 -57l-73 -85c-17 14 -34 25 -51 33l-125 -473c16 -5 33 -8 51 -8
c57 0 98 25 138 56zM354 597c-93 0 -161 -70 -161 -250c0 -102 23 -169 61 -207v1l122 455c-7 1 -15 1 -22 1z" />
    <glyph glyph-name="D" unicode="D" horiz-adv-x="650" 
d="M254 692c183 0 357 -57 357 -343c0 -279 -170 -349 -340 -349h-198v692h181zM277 584h-57v-476h60c101 0 178 47 178 241c0 198 -81 235 -181 235z" />
    <glyph glyph-name="uni01F1" unicode="&#x1f1;" horiz-adv-x="1163" 
d="M254 692c183 0 357 -57 357 -343c0 -279 -170 -349 -340 -349h-198v692h181zM1128 692v-113l-310 -460h315l-16 -119h-471v111l316 465h-284v116h450zM277 584h-57v-476h60c101 0 178 47 178 241c0 198 -81 235 -181 235z" />
    <glyph glyph-name="uni01C4" unicode="&#x1c4;" horiz-adv-x="1163" 
d="M1032 935l52 -60l-139 -124h-88l-141 124l53 60l131 -83zM254 692c183 0 357 -57 357 -343c0 -279 -170 -349 -340 -349h-198v692h181zM1128 692v-113l-310 -460h315l-16 -119h-471v111l316 465h-284v116h450zM277 584h-57v-476h60c101 0 178 47 178 241
c0 198 -81 235 -181 235z" />
    <glyph glyph-name="uni0189" unicode="&#x189;" horiz-adv-x="663" 
d="M268 692c183 0 357 -57 357 -343c0 -279 -170 -349 -340 -349h-198v307h-72v92h72v293h181zM294 108c101 0 177 47 177 241c0 198 -81 235 -180 235h-57v-185h140v-92h-140v-199h60z" />
    <glyph glyph-name="Eth" unicode="&#xd0;" horiz-adv-x="663" 
d="M268 692c183 0 357 -57 357 -343c0 -279 -170 -349 -340 -349h-198v307h-72v92h72v293h181zM294 108c101 0 177 47 177 241c0 198 -81 235 -180 235h-57v-185h140v-92h-140v-199h60z" />
    <glyph glyph-name="Dcaron" unicode="&#x10e;" horiz-adv-x="650" 
d="M429 935l52 -60l-140 -124h-88l-140 124l53 60l131 -83zM254 692c183 0 357 -57 357 -343c0 -279 -170 -349 -340 -349h-198v692h181zM277 584h-57v-476h60c101 0 178 47 178 241c0 198 -81 235 -181 235z" />
    <glyph glyph-name="uni1E12" unicode="&#x1e12;" horiz-adv-x="650" 
d="M254 692c183 0 357 -57 357 -343c0 -279 -170 -349 -340 -349h-198v692h181zM277 584h-57v-476h60c101 0 178 47 178 241c0 198 -81 235 -181 235zM173 -255l-52 60l140 131h88l140 -131l-53 -60l-131 89z" />
    <glyph glyph-name="Dcroat" unicode="&#x110;" horiz-adv-x="663" 
d="M268 692c183 0 357 -57 357 -343c0 -279 -170 -349 -340 -349h-198v307h-72v92h72v293h181zM294 108c101 0 177 47 177 241c0 198 -81 235 -180 235h-57v-185h140v-92h-140v-199h60z" />
    <glyph glyph-name="uni1E0A" unicode="&#x1e0a;" horiz-adv-x="650" 
d="M297 929c51 0 87 -36 87 -83s-36 -83 -87 -83s-86 36 -86 83s35 83 86 83zM254 692c183 0 357 -57 357 -343c0 -279 -170 -349 -340 -349h-198v692h181zM277 584h-57v-476h60c101 0 178 47 178 241c0 198 -81 235 -181 235z" />
    <glyph glyph-name="uni1E0C" unicode="&#x1e0c;" horiz-adv-x="650" 
d="M254 692c183 0 357 -57 357 -343c0 -279 -170 -349 -340 -349h-198v692h181zM277 584h-57v-476h60c101 0 178 47 178 241c0 198 -81 235 -181 235zM305 -230c-52 0 -87 36 -87 84c0 46 35 82 87 82c50 0 86 -36 86 -82c0 -48 -36 -84 -86 -84z" />
    <glyph glyph-name="uni018A" unicode="&#x18a;" horiz-adv-x="777" 
d="M382 692c183 0 357 -57 357 -343c0 -279 -170 -349 -341 -349h-198v585h-28c-33 0 -48 -15 -48 -44c0 -23 7 -43 16 -67l-91 -41c-22 32 -44 70 -44 117c0 87 66 142 175 142h202zM408 108c101 0 177 47 177 241c0 198 -81 235 -180 235h-57v-476h60z" />
    <glyph glyph-name="uni1E0E" unicode="&#x1e0e;" horiz-adv-x="650" 
d="M254 692c183 0 357 -57 357 -343c0 -279 -170 -349 -340 -349h-198v692h181zM277 584h-57v-476h60c101 0 178 47 178 241c0 198 -81 235 -181 235zM453 -187h-298v100h298v-100z" />
    <glyph glyph-name="uni018B" unicode="&#x18b;" horiz-adv-x="592" 
d="M519 692v-692h-234c-153 0 -264 65 -264 220c0 143 102 222 272 222h78v137h-265v113h413zM300 109h71v229h-68c-85 0 -128 -38 -128 -118c0 -83 48 -111 125 -111z" />
    <glyph glyph-name="uni01F2" unicode="&#x1f2;" horiz-adv-x="1091" 
d="M254 692c183 0 357 -57 357 -343c0 -279 -170 -349 -340 -349h-198v692h181zM277 584h-57v-476h60c101 0 178 47 178 241c0 198 -81 235 -181 235zM1071 530v-101l-249 -319h254l-14 -110h-403v102l249 319h-228v109h391z" />
    <glyph glyph-name="uni01C5" unicode="&#x1c5;" horiz-adv-x="1091" 
d="M1004 806l52 -60l-139 -131h-88l-141 131l53 60l131 -89zM254 692c183 0 357 -57 357 -343c0 -279 -170 -349 -340 -349h-198v692h181zM277 584h-57v-476h60c101 0 178 47 178 241c0 198 -81 235 -181 235zM1071 530v-101l-249 -319h254l-14 -110h-403v102l249 319h-228
v109h391z" />
    <glyph glyph-name="E" unicode="E" horiz-adv-x="528" 
d="M486 692l-16 -107h-250v-180h218v-106h-218v-191h268v-108h-415v692h413z" />
    <glyph glyph-name="Eacute" unicode="&#xc9;" horiz-adv-x="528" 
d="M362 945l54 -108l-234 -85l-36 73zM486 692l-16 -107h-250v-180h218v-106h-218v-191h268v-108h-415v692h413z" />
    <glyph glyph-name="Eacute.loclHUN" horiz-adv-x="528" 
d="M313 955l106 -61l-140 -154l-65 37zM486 692l-16 -107h-250v-180h218v-106h-218v-191h268v-108h-415v692h413z" />
    <glyph glyph-name="Ebreve" unicode="&#x114;" horiz-adv-x="528" 
d="M281 752c-99 0 -159 71 -167 153l81 15c12 -39 39 -67 86 -67c46 0 74 28 87 67l81 -15c-8 -82 -69 -153 -168 -153zM486 692l-16 -107h-250v-180h218v-106h-218v-191h268v-108h-415v692h413z" />
    <glyph glyph-name="Ecaron" unicode="&#x11a;" horiz-adv-x="528" 
d="M414 935l52 -60l-140 -124h-88l-140 124l53 60l131 -83zM486 692l-16 -107h-250v-180h218v-106h-218v-191h268v-108h-415v692h413z" />
    <glyph glyph-name="uni0228" unicode="&#x228;" horiz-adv-x="528" 
d="M488 0h-168v-50c70 -7 101 -45 101 -96c0 -67 -58 -111 -143 -111c-45 0 -83 12 -107 29l33 68c20 -11 39 -17 64 -17c28 0 48 8 48 32c0 25 -27 36 -92 36l14 109h-165v692h413l-16 -107h-250v-180h218v-106h-218v-191h268v-108z" />
    <glyph glyph-name="Ecircumflex" unicode="&#xca;" horiz-adv-x="528" 
d="M150 756l-53 60l140 124h88l140 -124l-52 -60l-132 83zM486 692l-16 -107h-250v-180h218v-106h-218v-191h268v-108h-415v692h413z" />
    <glyph glyph-name="uni1EBE" unicode="&#x1ebe;" horiz-adv-x="528" 
d="M510 1075l78 -77l-152 -136l-55 49zM150 720l-53 60l140 124h88l140 -124l-52 -60l-132 83zM486 692l-16 -107h-250v-180h218v-106h-218v-191h268v-108h-415v692h413z" />
    <glyph glyph-name="uni1EC6" unicode="&#x1ec6;" horiz-adv-x="528" 
d="M150 756l-53 60l140 124h88l140 -124l-52 -60l-132 83zM486 692l-16 -107h-250v-180h218v-106h-218v-191h268v-108h-415v692h413zM281 -230c-52 0 -87 36 -87 84c0 46 35 82 87 82c50 0 86 -36 86 -82c0 -48 -36 -84 -86 -84z" />
    <glyph glyph-name="uni1EC0" unicode="&#x1ec0;" horiz-adv-x="528" 
d="M52 1075l129 -164l-55 -49l-152 136zM149 720l-53 60l140 124h88l140 -124l-52 -60l-132 83zM486 692l-16 -107h-250v-180h218v-106h-218v-191h268v-108h-415v692h413z" />
    </font>
</defs>
</svg>
